%TF.GenerationSoftware,Altium Limited,Altium Designer,21.2.1 (34)*%
G04 Layer_Color=128*
%FSLAX25Y25*%
%MOIN*%
%TF.SameCoordinates,9F7D5B0E-9DD4-4BF0-BF89-A6B7BC673C6C*%
%TF.FilePolarity,Positive*%
%TF.FileFunction,Drillmap*%
%TF.Part,Single*%
G01*
G75*
%TA.AperFunction,NonConductor*%
%ADD76C,0.00500*%
D76*
X185138Y119000D02*
X189862D01*
X187500Y116638D02*
Y121362D01*
X169390Y119000D02*
X174114D01*
X171752Y116638D02*
Y121362D01*
X169390Y95378D02*
X174114D01*
X171752Y93016D02*
Y97740D01*
X185138Y95378D02*
X189862D01*
X187500Y93016D02*
Y97740D01*
X185138Y160000D02*
X189862D01*
X187500Y157638D02*
Y162362D01*
X169390Y160000D02*
X174114D01*
X171752Y157638D02*
Y162362D01*
X169390Y136378D02*
X174114D01*
X171752Y134016D02*
Y138740D01*
X185138Y136378D02*
X189862D01*
X187500Y134016D02*
Y138740D01*
X105728Y162500D02*
X109272D01*
X107500Y160728D02*
Y164272D01*
X85728Y162500D02*
X89272D01*
X87500Y160728D02*
Y164272D01*
X72339Y15000D02*
X75094D01*
X73716Y13622D02*
Y16378D01*
X54622Y15000D02*
X57378D01*
X56000Y13622D02*
Y16378D01*
X5906Y185039D02*
X17717D01*
X11811Y179134D02*
Y190945D01*
X179134Y185039D02*
X190945D01*
X185039Y179134D02*
Y190945D01*
X179134Y11811D02*
X190945D01*
X185039Y5906D02*
Y17717D01*
X5906Y11811D02*
X17717D01*
X11811Y5906D02*
Y17717D01*
X130425Y153000D02*
X133575D01*
X132000Y151425D02*
Y154575D01*
X161925Y63839D02*
X165075D01*
X163500Y62264D02*
Y65413D01*
X161925Y90000D02*
X165075D01*
X163500Y88425D02*
Y91575D01*
X154425Y153000D02*
X157575D01*
X156000Y151425D02*
Y154575D01*
X121925Y54000D02*
X125075D01*
X123500Y52425D02*
Y55575D01*
X121925Y39500D02*
X125075D01*
X123500Y37925D02*
Y41075D01*
X97425Y33500D02*
X100575D01*
X99000Y31925D02*
Y35075D01*
X97425Y54000D02*
X100575D01*
X99000Y52425D02*
Y55575D01*
X29419Y83494D02*
X32568D01*
X30994Y81919D02*
Y85068D01*
X29425Y119946D02*
X32575D01*
X31000Y118371D02*
Y121521D01*
X22925Y116500D02*
X26075D01*
X24500Y114925D02*
Y118075D01*
X22925Y62000D02*
X26075D01*
X24500Y60425D02*
Y63575D01*
X71425Y188000D02*
X74575D01*
X73000Y186425D02*
Y189575D01*
X122425Y114000D02*
X125575D01*
X124000Y112425D02*
Y115575D01*
X156425Y114000D02*
X159575D01*
X158000Y112425D02*
Y115575D01*
X39425Y28000D02*
X42575D01*
X41000Y26425D02*
Y29575D01*
X83425Y28000D02*
X86575D01*
X85000Y26425D02*
Y29575D01*
X18425Y36000D02*
X21575D01*
X20000Y34425D02*
Y37575D01*
X44756Y36219D02*
X47905D01*
X46331Y34644D02*
Y37794D01*
X14925Y43000D02*
X18075D01*
X16500Y41425D02*
Y44575D01*
X14925Y62000D02*
X18075D01*
X16500Y60425D02*
Y63575D01*
X154925Y17000D02*
X158075D01*
X156500Y15425D02*
Y18575D01*
X154925Y72500D02*
X158075D01*
X156500Y70925D02*
Y74075D01*
X83425Y188000D02*
X86575D01*
X85000Y186425D02*
Y189575D01*
X107425Y79000D02*
X110575D01*
X109000Y77425D02*
Y80575D01*
X114425Y139500D02*
X117575D01*
X116000Y137925D02*
Y141075D01*
X113425Y34669D02*
X116575D01*
X115000Y33094D02*
Y36244D01*
X113425Y56861D02*
X116575D01*
X115000Y55286D02*
Y58436D01*
X107425Y27000D02*
X110575D01*
X109000Y25425D02*
Y28575D01*
X122425Y78500D02*
X125575D01*
X124000Y76925D02*
Y80075D01*
X75425Y38500D02*
X78575D01*
X77000Y36925D02*
Y40075D01*
X75425Y65000D02*
X78575D01*
X77000Y63425D02*
Y66575D01*
X49425Y188000D02*
X52575D01*
X51000Y186425D02*
Y189575D01*
X49425Y121500D02*
X52575D01*
X51000Y119925D02*
Y123075D01*
X51425Y114500D02*
X54575D01*
X53000Y112925D02*
Y116075D01*
X66925Y124500D02*
X70075D01*
X68500Y122925D02*
Y126075D01*
X66925Y80000D02*
X70075D01*
X68500Y78425D02*
Y81575D01*
X60425Y188000D02*
X63575D01*
X62000Y186425D02*
Y189575D01*
X60425Y118000D02*
X63575D01*
X62000Y116425D02*
Y119575D01*
X37925Y188000D02*
X41075D01*
X39500Y186425D02*
Y189575D01*
X37925Y118000D02*
X41075D01*
X39500Y116425D02*
Y119575D01*
X72925Y106000D02*
X76075D01*
X74500Y104425D02*
Y107575D01*
X72925Y74500D02*
X76075D01*
X74500Y72925D02*
Y76075D01*
X51411Y87444D02*
X54560D01*
X52985Y85869D02*
Y89018D01*
X145925Y31000D02*
X149075D01*
X147500Y29425D02*
Y32575D01*
X145925Y90500D02*
X149075D01*
X147500Y88925D02*
Y92075D01*
X152425Y139500D02*
X155575D01*
X154000Y137925D02*
Y141075D01*
X9456Y77031D02*
X12606D01*
X11031Y75456D02*
Y78606D01*
X9425Y114500D02*
X12575D01*
X11000Y112925D02*
Y116075D01*
X122425Y98500D02*
X125575D01*
X124000Y96925D02*
Y100075D01*
%TF.MD5,11f1ea197ddb175c3eb0650d8e66e8d8*%
M02*
