%TF.GenerationSoftware,Altium Limited,Altium Designer,21.2.1 (34)*%
G04 Layer_Physical_Order=2*
G04 Layer_Color=11511158*
%FSLAX25Y25*%
%MOIN*%
%TF.SameCoordinates,9F7D5B0E-9DD4-4BF0-BF89-A6B7BC673C6C*%
%TF.FilePolarity,Positive*%
%TF.FileFunction,Copper,L2,Bot,Signal*%
%TF.Part,Single*%
G01*
G75*
%TA.AperFunction,Conductor*%
%ADD10C,0.01181*%
%ADD11C,0.01968*%
%TA.AperFunction,ComponentPad*%
%ADD12O,0.07874X0.09843*%
%ADD13R,0.07874X0.07874*%
%ADD14C,0.07874*%
%ADD15C,0.05906*%
%TA.AperFunction,ViaPad*%
%ADD16C,0.07874*%
%ADD17C,0.05906*%
%TA.AperFunction,SMDPad,CuDef*%
%ADD18R,0.03740X0.03150*%
%ADD19R,0.03150X0.03740*%
%ADD20R,0.03150X0.03937*%
%ADD21R,0.06000X0.07000*%
%ADD22R,0.07000X0.06000*%
%ADD23R,0.05906X0.01181*%
%ADD24R,0.03937X0.03150*%
%ADD25R,0.01181X0.05906*%
%ADD26R,0.04500X0.05400*%
%ADD27R,0.07874X0.07874*%
%ADD28R,0.01575X0.05512*%
%ADD29R,0.08465X0.03937*%
%ADD30R,0.08465X0.12992*%
%ADD31R,0.06299X0.06299*%
%ADD32R,0.04724X0.04724*%
%ADD33R,0.09843X0.03937*%
%TA.AperFunction,Conductor*%
%ADD34C,0.02756*%
G36*
X195646Y189525D02*
X195260Y189448D01*
X194987Y190108D01*
X194071Y191602D01*
X192934Y192934D01*
X191602Y194071D01*
X190108Y194987D01*
X189448Y195260D01*
X189525Y195646D01*
X195646D01*
Y189525D01*
D02*
G37*
G36*
X7402Y195260D02*
X6742Y194987D01*
X5249Y194071D01*
X3917Y192934D01*
X2779Y191602D01*
X1863Y190108D01*
X1590Y189448D01*
X1204Y189525D01*
Y195646D01*
X7325D01*
X7402Y195260D01*
D02*
G37*
G36*
X180630D02*
X179971Y194987D01*
X178477Y194071D01*
X177145Y192934D01*
X176007Y191602D01*
X175092Y190108D01*
X174422Y188489D01*
X174012Y186786D01*
X173875Y185039D01*
X174012Y183293D01*
X174422Y181589D01*
X175092Y179971D01*
X176007Y178477D01*
X177145Y177145D01*
X178477Y176007D01*
X179971Y175092D01*
X181589Y174422D01*
X183293Y174012D01*
X185039Y173875D01*
X186786Y174012D01*
X188489Y174422D01*
X190108Y175092D01*
X191602Y176007D01*
X192934Y177145D01*
X194071Y178477D01*
X194987Y179971D01*
X195260Y180630D01*
X195646Y180553D01*
Y16297D01*
X195260Y16220D01*
X194987Y16880D01*
X194071Y18373D01*
X192934Y19705D01*
X191602Y20843D01*
X190108Y21758D01*
X188489Y22429D01*
X186786Y22838D01*
X185039Y22975D01*
X183293Y22838D01*
X181589Y22429D01*
X179971Y21758D01*
X178477Y20843D01*
X177145Y19705D01*
X176007Y18373D01*
X175092Y16880D01*
X174422Y15261D01*
X174012Y13557D01*
X173875Y11811D01*
X174012Y10064D01*
X174422Y8361D01*
X175092Y6742D01*
X176007Y5249D01*
X177145Y3917D01*
X178477Y2779D01*
X179971Y1863D01*
X180630Y1590D01*
X180553Y1204D01*
X16297D01*
X16220Y1590D01*
X16880Y1863D01*
X18373Y2779D01*
X19705Y3917D01*
X20843Y5249D01*
X21758Y6742D01*
X22429Y8361D01*
X22838Y10064D01*
X22975Y11811D01*
X22838Y13557D01*
X22429Y15261D01*
X21758Y16880D01*
X20843Y18373D01*
X19705Y19705D01*
X18373Y20843D01*
X16880Y21758D01*
X15261Y22429D01*
X13557Y22838D01*
X11811Y22975D01*
X10064Y22838D01*
X8361Y22429D01*
X6742Y21758D01*
X5249Y20843D01*
X3917Y19705D01*
X2779Y18373D01*
X1863Y16880D01*
X1590Y16220D01*
X1204Y16297D01*
Y180553D01*
X1590Y180630D01*
X1863Y179971D01*
X2779Y178477D01*
X3917Y177145D01*
X5249Y176007D01*
X6742Y175092D01*
X8361Y174422D01*
X10064Y174012D01*
X11811Y173875D01*
X13557Y174012D01*
X15261Y174422D01*
X16880Y175092D01*
X18373Y176007D01*
X19705Y177145D01*
X20843Y178477D01*
X21758Y179971D01*
X22429Y181589D01*
X22838Y183293D01*
X22975Y185039D01*
X22838Y186786D01*
X22429Y188489D01*
X21758Y190108D01*
X20843Y191602D01*
X19705Y192934D01*
X18373Y194071D01*
X16880Y194987D01*
X16220Y195260D01*
X16297Y195646D01*
X180553D01*
X180630Y195260D01*
D02*
G37*
G36*
X195646Y7325D02*
Y1204D01*
X189525D01*
X189448Y1590D01*
X190108Y1863D01*
X191602Y2779D01*
X192934Y3917D01*
X194071Y5249D01*
X194987Y6742D01*
X195260Y7402D01*
X195646Y7325D01*
D02*
G37*
G36*
X1863Y6742D02*
X2779Y5249D01*
X3917Y3917D01*
X5249Y2779D01*
X6742Y1863D01*
X7402Y1590D01*
X7325Y1204D01*
X1204D01*
Y7325D01*
X1590Y7402D01*
X1863Y6742D01*
D02*
G37*
%LPC*%
G36*
X85500Y192934D02*
Y188500D01*
X89934D01*
X89747Y189440D01*
X89375Y190339D01*
X88835Y191147D01*
X88147Y191835D01*
X87339Y192375D01*
X86440Y192747D01*
X85500Y192934D01*
D02*
G37*
G36*
X84500D02*
X83560Y192747D01*
X82661Y192375D01*
X81853Y191835D01*
X81165Y191147D01*
X80625Y190339D01*
X80253Y189440D01*
X80066Y188500D01*
X84500D01*
Y192934D01*
D02*
G37*
G36*
X62465Y192724D02*
X61535D01*
X60622Y192543D01*
X59762Y192187D01*
X58988Y191670D01*
X58330Y191012D01*
X57813Y190238D01*
X57457Y189378D01*
X57276Y188465D01*
Y187535D01*
X57457Y186622D01*
X57813Y185762D01*
X58330Y184988D01*
X58988Y184330D01*
X59762Y183813D01*
X60622Y183457D01*
X61535Y183276D01*
X62465D01*
X63378Y183457D01*
X64238Y183813D01*
X65012Y184330D01*
X65670Y184988D01*
X66187Y185762D01*
X66543Y186622D01*
X66724Y187535D01*
Y188465D01*
X66543Y189378D01*
X66187Y190238D01*
X65670Y191012D01*
X65012Y191670D01*
X64238Y192187D01*
X63378Y192543D01*
X62465Y192724D01*
D02*
G37*
G36*
X51465D02*
X50535D01*
X49622Y192543D01*
X48762Y192187D01*
X47988Y191670D01*
X47330Y191012D01*
X46813Y190238D01*
X46457Y189378D01*
X46276Y188465D01*
Y187535D01*
X46457Y186622D01*
X46813Y185762D01*
X47330Y184988D01*
X47988Y184330D01*
X48762Y183813D01*
X49622Y183457D01*
X50535Y183276D01*
X51465D01*
X52378Y183457D01*
X53238Y183813D01*
X54012Y184330D01*
X54670Y184988D01*
X55187Y185762D01*
X55543Y186622D01*
X55724Y187535D01*
Y188465D01*
X55543Y189378D01*
X55187Y190238D01*
X54670Y191012D01*
X54012Y191670D01*
X53238Y192187D01*
X52378Y192543D01*
X51465Y192724D01*
D02*
G37*
G36*
X39965D02*
X39035D01*
X38122Y192543D01*
X37262Y192187D01*
X36488Y191670D01*
X35830Y191012D01*
X35313Y190238D01*
X34957Y189378D01*
X34776Y188465D01*
Y187535D01*
X34957Y186622D01*
X35313Y185762D01*
X35830Y184988D01*
X36488Y184330D01*
X37262Y183813D01*
X38122Y183457D01*
X39035Y183276D01*
X39965D01*
X40878Y183457D01*
X41738Y183813D01*
X42512Y184330D01*
X43170Y184988D01*
X43687Y185762D01*
X44043Y186622D01*
X44224Y187535D01*
Y188465D01*
X44043Y189378D01*
X43687Y190238D01*
X43170Y191012D01*
X42512Y191670D01*
X41738Y192187D01*
X40878Y192543D01*
X39965Y192724D01*
D02*
G37*
G36*
X89934Y187500D02*
X85500D01*
Y183066D01*
X86440Y183253D01*
X87339Y183625D01*
X88147Y184165D01*
X88835Y184853D01*
X89375Y185661D01*
X89747Y186560D01*
X89934Y187500D01*
D02*
G37*
G36*
X84500D02*
X80066D01*
X80253Y186560D01*
X80625Y185661D01*
X81165Y184853D01*
X81853Y184165D01*
X82661Y183625D01*
X83560Y183253D01*
X84500Y183066D01*
Y187500D01*
D02*
G37*
G36*
X145980Y180468D02*
X143905D01*
Y178000D01*
X145980D01*
Y180468D01*
D02*
G37*
G36*
X142905D02*
X140831D01*
Y178000D01*
X142905D01*
Y180468D01*
D02*
G37*
G36*
X145980Y177000D02*
X143905D01*
Y174531D01*
X145980D01*
Y177000D01*
D02*
G37*
G36*
X142905D02*
X140831D01*
Y174531D01*
X142905D01*
Y177000D01*
D02*
G37*
G36*
X30921Y176512D02*
X28551D01*
Y174437D01*
X30921D01*
Y176512D01*
D02*
G37*
G36*
X27551D02*
X25181D01*
Y174437D01*
X27551D01*
Y176512D01*
D02*
G37*
G36*
X30921Y173437D02*
X28551D01*
Y171362D01*
X30921D01*
Y173437D01*
D02*
G37*
G36*
X27551D02*
X25181D01*
Y171362D01*
X27551D01*
Y173437D01*
D02*
G37*
G36*
X40157Y172362D02*
X34843D01*
Y167638D01*
X40157D01*
Y168595D01*
X58595D01*
Y155256D01*
X57638D01*
Y149744D01*
X62362D01*
Y155256D01*
X61405D01*
Y168595D01*
X79418D01*
X83302Y164711D01*
X82957Y163878D01*
X82776Y162965D01*
Y162035D01*
X82957Y161122D01*
X83313Y160262D01*
X83830Y159488D01*
X84488Y158830D01*
X85262Y158313D01*
X86122Y157957D01*
X87035Y157776D01*
X87965D01*
X88878Y157957D01*
X89738Y158313D01*
X90512Y158830D01*
X91170Y159488D01*
X91687Y160262D01*
X92043Y161122D01*
X92224Y162035D01*
Y162965D01*
X92043Y163878D01*
X91687Y164738D01*
X91170Y165512D01*
X90512Y166170D01*
X89738Y166687D01*
X88878Y167043D01*
X87965Y167224D01*
X87035D01*
X86122Y167043D01*
X85289Y166698D01*
X80993Y170993D01*
X80538Y171298D01*
X80000Y171405D01*
X40157D01*
Y172362D01*
D02*
G37*
G36*
X187500Y164944D02*
X186574Y164853D01*
X185683Y164583D01*
X184863Y164144D01*
X184143Y163554D01*
X183553Y162834D01*
X183114Y162014D01*
X182844Y161123D01*
X182753Y160197D01*
Y158228D01*
X182844Y157302D01*
X183114Y156412D01*
X183553Y155591D01*
X184143Y154871D01*
X184863Y154281D01*
X185683Y153842D01*
X186574Y153572D01*
X187500Y153481D01*
X188426Y153572D01*
X189317Y153842D01*
X190137Y154281D01*
X190857Y154871D01*
X191447Y155591D01*
X191886Y156412D01*
X192156Y157302D01*
X192247Y158228D01*
Y160197D01*
X192156Y161123D01*
X191886Y162014D01*
X191447Y162834D01*
X190857Y163554D01*
X190137Y164144D01*
X189317Y164583D01*
X188426Y164853D01*
X187500Y164944D01*
D02*
G37*
G36*
X152362Y180256D02*
X147638D01*
Y174744D01*
X152362D01*
Y176095D01*
X158595D01*
Y171457D01*
X157244D01*
Y170499D01*
X156095D01*
X155557Y170393D01*
X155101Y170088D01*
X153006Y167993D01*
X152702Y167538D01*
X152595Y167000D01*
Y161582D01*
X147506Y156493D01*
X147202Y156038D01*
X147095Y155500D01*
Y149854D01*
X147000Y149500D01*
X146701Y149500D01*
X143000D01*
Y145500D01*
Y141500D01*
X146701D01*
X147000Y141500D01*
X147095Y141146D01*
Y135995D01*
X146787Y135787D01*
X146701Y135787D01*
X138213D01*
Y128213D01*
X141095D01*
Y126082D01*
X140506Y125494D01*
X140202Y125038D01*
X140095Y124500D01*
Y119606D01*
X139075D01*
Y114291D01*
X143701D01*
X143799Y114291D01*
X144095Y114055D01*
Y106082D01*
X137918Y99905D01*
X127496D01*
X127485Y99944D01*
X126993Y100796D01*
X126296Y101493D01*
X125444Y101985D01*
X124492Y102240D01*
X123508D01*
X122556Y101985D01*
X121704Y101493D01*
X121007Y100796D01*
X120515Y99944D01*
X120260Y98992D01*
Y98008D01*
X120515Y97056D01*
X121007Y96204D01*
X121704Y95507D01*
X122556Y95015D01*
X123508Y94760D01*
X124492D01*
X125444Y95015D01*
X126296Y95507D01*
X126993Y96204D01*
X127485Y97056D01*
X127496Y97095D01*
X138500D01*
X139038Y97202D01*
X139494Y97507D01*
X145830Y103843D01*
X146194Y103692D01*
Y94022D01*
X146056Y93985D01*
X145203Y93493D01*
X144507Y92796D01*
X144015Y91944D01*
X143760Y90992D01*
Y90008D01*
X144015Y89056D01*
X144507Y88204D01*
X145203Y87507D01*
X145565Y87299D01*
X145459Y86905D01*
X139817D01*
X139799Y87291D01*
X139799Y87299D01*
Y92606D01*
X135075D01*
Y91755D01*
X122949D01*
X122257Y91618D01*
X121792Y91306D01*
X114709D01*
Y92256D01*
X103566D01*
Y93284D01*
X118110D01*
X118571Y93376D01*
X118962Y93637D01*
X119223Y94027D01*
X119315Y94488D01*
Y102362D01*
X119223Y102823D01*
X118962Y103214D01*
X118571Y103475D01*
X118110Y103566D01*
X103566D01*
Y104744D01*
X114709D01*
Y105694D01*
X135138D01*
Y104842D01*
X139862D01*
Y110158D01*
X135138D01*
Y109306D01*
X114709D01*
Y110256D01*
X103566D01*
Y111744D01*
X114709D01*
Y112735D01*
X115191Y112831D01*
X115777Y113223D01*
X117277Y114723D01*
X117669Y115309D01*
X117806Y116000D01*
Y124000D01*
Y136224D01*
X118297Y136507D01*
X118993Y137204D01*
X119485Y138056D01*
X119740Y139008D01*
Y139992D01*
X119485Y140944D01*
X118993Y141797D01*
X118297Y142493D01*
X117444Y142985D01*
X116492Y143240D01*
X115508D01*
X114961Y143094D01*
X109306Y148748D01*
Y157776D01*
X112224D01*
Y167224D01*
X102776D01*
Y157776D01*
X105694D01*
Y148000D01*
X105831Y147309D01*
X106223Y146723D01*
X112406Y140539D01*
X112260Y139992D01*
Y139008D01*
X112515Y138056D01*
X113007Y137204D01*
X113704Y136507D01*
X114194Y136224D01*
Y125806D01*
X81306D01*
Y144000D01*
X81169Y144691D01*
X80777Y145277D01*
X72277Y153777D01*
X71691Y154169D01*
X71000Y154306D01*
X68957D01*
Y155256D01*
X64232D01*
Y149744D01*
X68957D01*
Y150694D01*
X70252D01*
X77694Y143252D01*
Y124000D01*
Y117000D01*
X77831Y116309D01*
X78223Y115723D01*
X80723Y113223D01*
X81309Y112831D01*
X82000Y112694D01*
X82291D01*
Y111744D01*
X93284D01*
Y110256D01*
X82291D01*
Y109306D01*
X81248D01*
X76306Y114248D01*
Y129000D01*
X76169Y129691D01*
X75777Y130277D01*
X72277Y133777D01*
X71691Y134169D01*
X71000Y134306D01*
X67658D01*
Y134862D01*
X62343D01*
Y130138D01*
X67658D01*
Y130694D01*
X70252D01*
X72694Y128252D01*
Y113500D01*
X72831Y112809D01*
X73223Y112223D01*
X75409Y110036D01*
X75206Y109683D01*
X74992Y109740D01*
X74008D01*
X73056Y109485D01*
X73022Y109465D01*
X65579Y116908D01*
X65740Y117508D01*
Y118492D01*
X65485Y119444D01*
X64993Y120297D01*
X64297Y120993D01*
X63444Y121485D01*
X62492Y121740D01*
X61508D01*
X60556Y121485D01*
X59703Y120993D01*
X59007Y120297D01*
X58515Y119444D01*
X58260Y118492D01*
Y117508D01*
X58515Y116556D01*
X59007Y115703D01*
X59703Y115007D01*
X60556Y114515D01*
X61508Y114260D01*
X62492D01*
X63444Y114515D01*
X63795Y114718D01*
X71035Y107478D01*
X71015Y107444D01*
X70760Y106492D01*
Y105508D01*
X71015Y104556D01*
X71507Y103703D01*
X72203Y103007D01*
X73056Y102515D01*
X74008Y102260D01*
X74992D01*
X75944Y102515D01*
X76797Y103007D01*
X77493Y103703D01*
X77985Y104556D01*
X78240Y105508D01*
Y106492D01*
X78183Y106706D01*
X78536Y106909D01*
X79223Y106223D01*
X79809Y105831D01*
X80500Y105694D01*
X82291D01*
Y104744D01*
X93284D01*
Y103566D01*
X78740D01*
X78279Y103475D01*
X77889Y103214D01*
X77628Y102823D01*
X77536Y102362D01*
Y94488D01*
X77628Y94027D01*
X77889Y93637D01*
X78279Y93376D01*
X78740Y93284D01*
X93284D01*
Y92256D01*
X82291D01*
Y91306D01*
X78748D01*
X69777Y100277D01*
X69191Y100669D01*
X68500Y100806D01*
X58657D01*
Y101362D01*
X53342D01*
Y96638D01*
X58657D01*
Y97194D01*
X67752D01*
X76723Y88223D01*
X77309Y87831D01*
X78000Y87694D01*
X82291D01*
Y86744D01*
X93284D01*
Y85256D01*
X82291D01*
Y79744D01*
X86194D01*
Y78500D01*
X86331Y77809D01*
X86723Y77223D01*
X89723Y74223D01*
X90309Y73831D01*
X91000Y73694D01*
X105500D01*
X106191Y73831D01*
X106777Y74223D01*
X107961Y75406D01*
X108508Y75260D01*
X109492D01*
X110444Y75515D01*
X111296Y76007D01*
X111993Y76704D01*
X112485Y77556D01*
X112740Y78508D01*
Y79492D01*
X112933Y79744D01*
X114709D01*
Y85256D01*
X103566D01*
Y86744D01*
X114709D01*
Y87694D01*
X122500D01*
X123191Y87831D01*
X123657Y88143D01*
X135075D01*
Y87299D01*
X135075Y87291D01*
X135057Y86905D01*
X124500D01*
X123962Y86798D01*
X123506Y86493D01*
X106887Y69873D01*
X89113D01*
X78493Y80493D01*
X78038Y80798D01*
X77500Y80905D01*
X72130D01*
X71985Y81444D01*
X71493Y82297D01*
X70797Y82993D01*
X69944Y83485D01*
X68992Y83740D01*
X68008D01*
X67056Y83485D01*
X66203Y82993D01*
X65507Y82297D01*
X65015Y81444D01*
X64760Y80492D01*
Y79508D01*
X65015Y78556D01*
X65401Y77888D01*
X63395Y75882D01*
X63032Y76033D01*
Y78132D01*
X63059Y78268D01*
Y82572D01*
X63493Y83007D01*
X63798Y83462D01*
X63905Y84000D01*
Y85244D01*
X64862D01*
Y90756D01*
X60138D01*
X60138Y90756D01*
Y90756D01*
X59808Y90914D01*
X57277Y93445D01*
X56691Y93837D01*
X56000Y93974D01*
X50168D01*
X49602Y93862D01*
X49209Y94095D01*
Y97425D01*
X43894D01*
Y96405D01*
X39862D01*
Y97756D01*
X35138D01*
Y92244D01*
X39862D01*
Y93595D01*
X43894D01*
Y92701D01*
X47632D01*
X47782Y92337D01*
X45752Y90306D01*
X28000D01*
X27309Y90169D01*
X26723Y89777D01*
X21223Y84277D01*
X20831Y83691D01*
X20694Y83000D01*
Y76457D01*
X19744D01*
Y75806D01*
X18500D01*
X17809Y75669D01*
X17223Y75277D01*
X15223Y73277D01*
X14831Y72691D01*
X14694Y72000D01*
Y65276D01*
X14203Y64993D01*
X13507Y64297D01*
X13015Y63444D01*
X12799Y62637D01*
X12405Y62689D01*
Y73527D01*
X12475Y73546D01*
X13328Y74038D01*
X14024Y74735D01*
X14516Y75588D01*
X14771Y76539D01*
Y77524D01*
X14516Y78475D01*
X14024Y79328D01*
X13328Y80024D01*
X12475Y80516D01*
X11524Y80771D01*
X10539D01*
X9588Y80516D01*
X8735Y80024D01*
X8299Y79588D01*
X7905Y79751D01*
Y88918D01*
X12582Y93595D01*
X28543D01*
Y92244D01*
X33268D01*
Y97756D01*
X28543D01*
Y96405D01*
X12000D01*
X11462Y96298D01*
X11007Y95993D01*
X5507Y90493D01*
X5202Y90038D01*
X5095Y89500D01*
Y60000D01*
X5202Y59462D01*
X5507Y59007D01*
X14699Y49814D01*
X15155Y49509D01*
X15693Y49402D01*
X34193D01*
X34329Y49429D01*
X35928D01*
X36079Y49065D01*
X26006Y38993D01*
X25702Y38538D01*
X25595Y38000D01*
Y11500D01*
X25702Y10962D01*
X26006Y10507D01*
X33569Y2944D01*
X34025Y2639D01*
X34563Y2532D01*
X93937D01*
X94475Y2639D01*
X94930Y2944D01*
X99993Y8007D01*
X100298Y8462D01*
X100405Y9000D01*
Y20918D01*
X104993Y25506D01*
X105084Y25642D01*
X105511Y25572D01*
X105515Y25556D01*
X106007Y24703D01*
X106703Y24007D01*
X107556Y23515D01*
X108508Y23260D01*
X109492D01*
X110444Y23515D01*
X111296Y24007D01*
X111993Y24703D01*
X112276Y25194D01*
X114500D01*
X115191Y25331D01*
X115777Y25723D01*
X119462Y29407D01*
X119846Y29235D01*
X119846Y29055D01*
Y26130D01*
X121134D01*
Y29386D01*
X120205D01*
X119997Y29386D01*
X119825Y29771D01*
X121248Y31194D01*
X129616D01*
X129963Y29478D01*
X129714Y29173D01*
X125980D01*
Y29386D01*
X124693D01*
Y25630D01*
Y21874D01*
X125980D01*
Y22087D01*
X130650D01*
X130693Y22058D01*
X131000Y21997D01*
X132700D01*
X133007Y22058D01*
X133050Y22087D01*
X133445D01*
Y22509D01*
X133503Y22800D01*
Y28350D01*
X133807Y30811D01*
X133814Y30816D01*
X143743D01*
X143760Y30799D01*
Y30508D01*
X144015Y29556D01*
X144507Y28703D01*
X145203Y28007D01*
X146056Y27515D01*
X147008Y27260D01*
X147992D01*
X148118Y27294D01*
X151456Y23956D01*
X151908Y23609D01*
X152435Y23390D01*
X153000Y23316D01*
X170500D01*
X171065Y23390D01*
X171592Y23609D01*
X172044Y23956D01*
X175044Y26956D01*
X175391Y27408D01*
X175610Y27935D01*
X175684Y28500D01*
Y47000D01*
X175610Y47565D01*
X175391Y48092D01*
X175044Y48544D01*
X170489Y53100D01*
X170037Y53447D01*
X169510Y53665D01*
X168945Y53739D01*
X166988D01*
Y54311D01*
X156949D01*
Y48799D01*
X166988D01*
Y49371D01*
X168040D01*
X171316Y46095D01*
Y29405D01*
X169595Y27684D01*
X153905D01*
X151207Y30382D01*
X151240Y30508D01*
Y31492D01*
X150985Y32444D01*
X150493Y33296D01*
X149796Y33993D01*
X148944Y34485D01*
X147992Y34740D01*
X147008D01*
X146210Y34526D01*
X146192Y34544D01*
X145740Y34891D01*
X145213Y35110D01*
X144648Y35184D01*
X134718D01*
X134388Y35514D01*
X134512Y36513D01*
X134537D01*
Y36721D01*
X134597Y37201D01*
X134593Y37251D01*
X134603Y37300D01*
Y42800D01*
X134542Y43107D01*
X134537Y43114D01*
Y43487D01*
X134188D01*
X134107Y43542D01*
X133800Y43603D01*
X129200D01*
X128893Y43542D01*
X128812Y43487D01*
X128463D01*
Y43114D01*
X128458Y43107D01*
X128397Y42800D01*
Y37300D01*
X128413Y37221D01*
X128413Y37141D01*
X128463Y36896D01*
Y36513D01*
X128540D01*
X128824Y35111D01*
X128574Y34806D01*
X120500D01*
X119809Y34669D01*
X119223Y34277D01*
X119134Y34188D01*
X118740Y34352D01*
Y35162D01*
X118485Y36113D01*
X117993Y36966D01*
X117727Y37231D01*
X117878Y37595D01*
X120281D01*
X120507Y37203D01*
X121203Y36507D01*
X122056Y36015D01*
X123008Y35760D01*
X123992D01*
X124944Y36015D01*
X125796Y36507D01*
X126493Y37203D01*
X126985Y38056D01*
X127240Y39008D01*
Y39992D01*
X126985Y40944D01*
X126493Y41796D01*
X125796Y42493D01*
X124944Y42985D01*
X123992Y43240D01*
X123008D01*
X122056Y42985D01*
X121203Y42493D01*
X120507Y41796D01*
X120015Y40944D01*
X119870Y40405D01*
X113082D01*
X110994Y42494D01*
X110538Y42798D01*
X110000Y42905D01*
X99500D01*
X98962Y42798D01*
X98507Y42494D01*
X93007Y36994D01*
X92702Y36538D01*
X92595Y36000D01*
Y12582D01*
X89418Y9405D01*
X37582D01*
X34405Y12582D01*
Y29481D01*
X42383Y37459D01*
X42736Y37256D01*
X42591Y36711D01*
Y35727D01*
X42845Y34775D01*
X43338Y33923D01*
X43853Y33408D01*
X42039Y31594D01*
X41492Y31740D01*
X40508D01*
X39556Y31485D01*
X38704Y30993D01*
X38007Y30296D01*
X37515Y29444D01*
X37260Y28492D01*
Y27508D01*
X37515Y26556D01*
X38007Y25703D01*
X38704Y25007D01*
X39556Y24515D01*
X40508Y24260D01*
X41492D01*
X42444Y24515D01*
X43297Y25007D01*
X43993Y25703D01*
X44485Y26556D01*
X44740Y27508D01*
Y28492D01*
X44594Y29039D01*
X47277Y31723D01*
X47669Y32309D01*
X47752Y32728D01*
X47774Y32734D01*
X48627Y33226D01*
X49324Y33923D01*
X49816Y34775D01*
X50071Y35727D01*
Y36711D01*
X49816Y37663D01*
X49324Y38516D01*
X48627Y39212D01*
X47774Y39704D01*
X47311Y39829D01*
Y41047D01*
X47374D01*
Y45000D01*
Y48953D01*
X46284D01*
Y48740D01*
X43374D01*
Y70531D01*
X43266Y71069D01*
X42962Y71525D01*
X40323Y74164D01*
X40474Y74528D01*
X58095D01*
Y74315D01*
X59185D01*
Y78268D01*
X60185D01*
Y74315D01*
X61271D01*
X61547Y74033D01*
X48849Y61336D01*
X48544Y60880D01*
X48438Y60343D01*
Y48953D01*
X48374D01*
Y45000D01*
Y41047D01*
X49465D01*
Y41260D01*
X50406D01*
Y40189D01*
X50513Y39651D01*
X50818Y39195D01*
X56893Y33120D01*
X56743Y32756D01*
X56732D01*
Y27244D01*
X57689D01*
Y18788D01*
X57619Y18700D01*
X57367Y18506D01*
X56492Y18740D01*
X55508D01*
X54556Y18485D01*
X53703Y17993D01*
X53007Y17297D01*
X52515Y16444D01*
X52260Y15492D01*
Y14508D01*
X52515Y13556D01*
X53007Y12704D01*
X53703Y12007D01*
X54556Y11515D01*
X55508Y11260D01*
X56492D01*
X57444Y11515D01*
X58297Y12007D01*
X58993Y12704D01*
X59485Y13556D01*
X59740Y14508D01*
Y15492D01*
X59485Y16444D01*
X59465Y16478D01*
X60088Y17101D01*
X60392Y17557D01*
X60499Y18094D01*
Y27244D01*
X61457D01*
Y32756D01*
X60405D01*
Y33000D01*
X60298Y33538D01*
X60189Y33701D01*
X60399Y34095D01*
X67418D01*
X68363Y33150D01*
X68200Y32756D01*
X67638D01*
Y27244D01*
X68595D01*
Y18717D01*
X68702Y18179D01*
X69007Y17723D01*
X70251Y16478D01*
X70231Y16444D01*
X69976Y15492D01*
Y14508D01*
X70231Y13556D01*
X70724Y12704D01*
X71420Y12007D01*
X72273Y11515D01*
X73224Y11260D01*
X74209D01*
X75160Y11515D01*
X76013Y12007D01*
X76709Y12704D01*
X77202Y13556D01*
X77457Y14508D01*
Y15492D01*
X77202Y16444D01*
X76709Y17297D01*
X76013Y17993D01*
X75160Y18485D01*
X74209Y18740D01*
X73224D01*
X72273Y18485D01*
X72238Y18465D01*
X71405Y19298D01*
Y27244D01*
X72362D01*
Y32756D01*
X71405D01*
Y33500D01*
X71298Y34038D01*
X70993Y34493D01*
X69286Y36201D01*
X69449Y36595D01*
X73781D01*
X74007Y36204D01*
X74704Y35507D01*
X75556Y35015D01*
X76508Y34760D01*
X77492D01*
X78444Y35015D01*
X79296Y35507D01*
X79993Y36204D01*
X80485Y37056D01*
X80740Y38008D01*
Y38992D01*
X80485Y39944D01*
X79994Y40794D01*
X79997Y40803D01*
X80189Y41157D01*
X80500Y41095D01*
X82638D01*
Y39744D01*
X83595D01*
Y31496D01*
X83556Y31485D01*
X82704Y30993D01*
X82007Y30296D01*
X81515Y29444D01*
X81260Y28492D01*
Y27508D01*
X81515Y26556D01*
X82007Y25703D01*
X82704Y25007D01*
X83556Y24515D01*
X84508Y24260D01*
X85492D01*
X86444Y24515D01*
X87296Y25007D01*
X87993Y25703D01*
X88485Y26556D01*
X88740Y27508D01*
Y28492D01*
X88485Y29444D01*
X87993Y30296D01*
X87296Y30993D01*
X86444Y31485D01*
X86405Y31496D01*
Y39744D01*
X87362D01*
Y45194D01*
X89020D01*
Y43000D01*
X94169D01*
Y45194D01*
X149752D01*
X153723Y41223D01*
X154309Y40831D01*
X155000Y40694D01*
X156949D01*
Y39744D01*
X166988D01*
Y45256D01*
X156949D01*
Y44306D01*
X155748D01*
X152306Y47748D01*
Y50252D01*
X157248Y55194D01*
X180752D01*
X183194Y52752D01*
Y49784D01*
X179980D01*
Y35217D01*
X190020D01*
Y49784D01*
X186806D01*
Y53500D01*
X186669Y54191D01*
X186277Y54777D01*
X182806Y58248D01*
Y61694D01*
X184350D01*
Y60689D01*
X190650D01*
Y66988D01*
X184350D01*
Y65306D01*
X182806D01*
Y92654D01*
X183200Y92753D01*
X183375Y92425D01*
X183992Y91673D01*
X184744Y91056D01*
X185601Y90598D01*
X186532Y90316D01*
X187000Y90269D01*
Y96165D01*
Y102061D01*
X186532Y102015D01*
X185601Y101733D01*
X184744Y101274D01*
X183992Y100657D01*
X183375Y99906D01*
X182917Y99048D01*
X182794Y98644D01*
X182405Y98586D01*
X182277Y98777D01*
X166531Y114524D01*
X165945Y114916D01*
X165253Y115053D01*
X161590D01*
X161485Y115444D01*
X160993Y116297D01*
X160296Y116993D01*
X159806Y117276D01*
Y118752D01*
X163277Y122223D01*
X163669Y122809D01*
X163806Y123500D01*
Y155500D01*
X163669Y156191D01*
X163277Y156777D01*
X161806Y158248D01*
Y160138D01*
X162756D01*
Y164862D01*
X157244D01*
Y160138D01*
X158194D01*
Y157500D01*
X158331Y156809D01*
X158723Y156223D01*
X160194Y154752D01*
Y151308D01*
X159830Y151157D01*
X159465Y151522D01*
X159485Y151556D01*
X159740Y152508D01*
Y153492D01*
X159485Y154444D01*
X158993Y155297D01*
X158297Y155993D01*
X157444Y156485D01*
X156492Y156740D01*
X155508D01*
X154556Y156485D01*
X153703Y155993D01*
X153007Y155297D01*
X152515Y154444D01*
X152260Y153492D01*
Y152508D01*
X152515Y151556D01*
X153007Y150704D01*
X153703Y150007D01*
X154556Y149515D01*
X155508Y149260D01*
X156492D01*
X157444Y149515D01*
X157478Y149535D01*
X158095Y148918D01*
Y140189D01*
X157701Y140137D01*
X157485Y140944D01*
X156993Y141797D01*
X156297Y142493D01*
X155444Y142985D01*
X154492Y143240D01*
X153508D01*
X152556Y142985D01*
X151704Y142493D01*
X151007Y141797D01*
X150515Y140944D01*
X150299Y140137D01*
X149905Y140189D01*
Y154918D01*
X154993Y160006D01*
X155298Y160462D01*
X155405Y161000D01*
Y166418D01*
X156676Y167690D01*
X157244D01*
Y166732D01*
X162756D01*
Y171457D01*
X161405D01*
Y176095D01*
X165418D01*
X170347Y171166D01*
Y164708D01*
X169935Y164583D01*
X169114Y164144D01*
X168395Y163554D01*
X167805Y162834D01*
X167366Y162014D01*
X167096Y161123D01*
X167005Y160197D01*
Y158228D01*
X167096Y157302D01*
X167366Y156412D01*
X167805Y155591D01*
X168395Y154871D01*
X169114Y154281D01*
X169935Y153842D01*
X170826Y153572D01*
X171752Y153481D01*
X172678Y153572D01*
X173569Y153842D01*
X174389Y154281D01*
X175109Y154871D01*
X175699Y155591D01*
X176138Y156412D01*
X176408Y157302D01*
X176499Y158228D01*
Y160197D01*
X176408Y161123D01*
X176138Y162014D01*
X175699Y162834D01*
X175109Y163554D01*
X174389Y164144D01*
X173569Y164583D01*
X173157Y164708D01*
Y171748D01*
X173050Y172286D01*
X172745Y172741D01*
X166993Y178493D01*
X166538Y178798D01*
X166000Y178905D01*
X152362D01*
Y180256D01*
D02*
G37*
G36*
X30709Y168425D02*
X25394D01*
Y163701D01*
X26646D01*
Y161633D01*
X23101Y158088D01*
X22796Y157632D01*
X22690Y157095D01*
Y155256D01*
X21732D01*
Y149744D01*
X26457D01*
Y155256D01*
X25499D01*
Y156512D01*
X29045Y160058D01*
X29349Y160513D01*
X29456Y161051D01*
Y163701D01*
X30709D01*
Y168425D01*
D02*
G37*
G36*
X142000Y149500D02*
X138000D01*
Y146000D01*
X142000D01*
Y149500D01*
D02*
G37*
G36*
Y145000D02*
X138000D01*
Y141500D01*
X142000D01*
Y145000D01*
D02*
G37*
G36*
X33000Y142000D02*
X29500D01*
Y138000D01*
X33000D01*
Y142000D01*
D02*
G37*
G36*
X28500D02*
X25000D01*
Y138000D01*
X28500D01*
Y142000D01*
D02*
G37*
G36*
X188000Y143061D02*
Y137665D01*
X192461D01*
Y138150D01*
X192366Y139117D01*
X192083Y140048D01*
X191625Y140906D01*
X191008Y141657D01*
X190256Y142274D01*
X189399Y142733D01*
X188468Y143015D01*
X188000Y143061D01*
D02*
G37*
G36*
X187000D02*
X186532Y143015D01*
X185601Y142733D01*
X184744Y142274D01*
X183992Y141657D01*
X183375Y140906D01*
X182917Y140048D01*
X182634Y139117D01*
X182539Y138150D01*
Y137665D01*
X187000D01*
Y143061D01*
D02*
G37*
G36*
X46287Y141787D02*
X38713D01*
Y133213D01*
X46287D01*
Y136095D01*
X49418D01*
X50007Y135506D01*
X50462Y135202D01*
X51000Y135095D01*
X52894D01*
Y134075D01*
X58209D01*
Y138799D01*
X52894D01*
Y137905D01*
X51582D01*
X50994Y138494D01*
X50538Y138798D01*
X50000Y138905D01*
X46287D01*
Y141787D01*
D02*
G37*
G36*
X33000Y137000D02*
X29500D01*
Y133000D01*
X33000D01*
Y137000D01*
D02*
G37*
G36*
X28500D02*
X25000D01*
Y133000D01*
X28500D01*
Y137000D01*
D02*
G37*
G36*
X132492Y156740D02*
X131508D01*
X130556Y156485D01*
X129703Y155993D01*
X129007Y155297D01*
X128515Y154444D01*
X128260Y153492D01*
Y152508D01*
X128515Y151556D01*
X129007Y150704D01*
X129703Y150007D01*
X130095Y149781D01*
Y136957D01*
X128744D01*
Y132232D01*
X134256D01*
Y136957D01*
X132905D01*
Y149370D01*
X133444Y149515D01*
X134297Y150007D01*
X134993Y150704D01*
X135485Y151556D01*
X135740Y152508D01*
Y153492D01*
X135485Y154444D01*
X134993Y155297D01*
X134297Y155993D01*
X133444Y156485D01*
X132492Y156740D01*
D02*
G37*
G36*
X171752Y142897D02*
X170826Y142806D01*
X169935Y142535D01*
X169114Y142097D01*
X168395Y141506D01*
X167805Y140787D01*
X167366Y139966D01*
X167096Y139076D01*
X167005Y138150D01*
Y136181D01*
X167096Y135255D01*
X167366Y134364D01*
X167805Y133544D01*
X168395Y132824D01*
X169114Y132234D01*
X169935Y131795D01*
X170826Y131525D01*
X171752Y131434D01*
X172678Y131525D01*
X173569Y131795D01*
X174389Y132234D01*
X175109Y132824D01*
X175699Y133544D01*
X176138Y134364D01*
X176408Y135255D01*
X176499Y136181D01*
Y138150D01*
X176408Y139076D01*
X176138Y139966D01*
X175699Y140787D01*
X175109Y141506D01*
X174389Y142097D01*
X173569Y142535D01*
X172678Y142806D01*
X171752Y142897D01*
D02*
G37*
G36*
X192461Y136665D02*
X188000D01*
Y131269D01*
X188468Y131316D01*
X189399Y131598D01*
X190256Y132056D01*
X191008Y132673D01*
X191625Y133425D01*
X192083Y134283D01*
X192366Y135213D01*
X192461Y136181D01*
Y136665D01*
D02*
G37*
G36*
X187000D02*
X182539D01*
Y136181D01*
X182634Y135213D01*
X182917Y134283D01*
X183375Y133425D01*
X183992Y132673D01*
X184744Y132056D01*
X185601Y131598D01*
X186532Y131316D01*
X187000Y131269D01*
Y136665D01*
D02*
G37*
G36*
X58209Y130925D02*
X52894D01*
Y129968D01*
X50563D01*
X50025Y129861D01*
X49569Y129556D01*
X46418Y126405D01*
X44862D01*
Y127756D01*
X40138D01*
Y122244D01*
X44862D01*
Y123595D01*
X47000D01*
X47493Y123693D01*
X47617Y123592D01*
X47768Y123382D01*
X47515Y122944D01*
X47260Y121992D01*
Y121008D01*
X47515Y120056D01*
X48007Y119203D01*
X48704Y118507D01*
X49556Y118015D01*
X50441Y117778D01*
X50541Y117568D01*
X50577Y117366D01*
X50007Y116797D01*
X49515Y115944D01*
X49504Y115905D01*
X43582D01*
X42965Y116522D01*
X42985Y116556D01*
X43240Y117508D01*
Y118492D01*
X42985Y119444D01*
X42493Y120297D01*
X41796Y120993D01*
X40944Y121485D01*
X39992Y121740D01*
X39008D01*
X38056Y121485D01*
X37203Y120993D01*
X36507Y120297D01*
X36015Y119444D01*
X35760Y118492D01*
Y117508D01*
X36015Y116556D01*
X36507Y115703D01*
X37203Y115007D01*
X38056Y114515D01*
X39008Y114260D01*
X39992D01*
X40944Y114515D01*
X40978Y114535D01*
X42006Y113506D01*
X42462Y113202D01*
X43000Y113095D01*
X49504D01*
X49515Y113056D01*
X50007Y112204D01*
X50704Y111507D01*
X51556Y111015D01*
X52508Y110760D01*
X53492D01*
X54444Y111015D01*
X55296Y111507D01*
X55993Y112204D01*
X56485Y113056D01*
X56740Y114008D01*
Y114992D01*
X56485Y115944D01*
X55993Y116797D01*
X55296Y117493D01*
X54444Y117985D01*
X53559Y118222D01*
X53459Y118432D01*
X53423Y118634D01*
X53993Y119203D01*
X54485Y120056D01*
X54740Y121008D01*
Y121992D01*
X54546Y122716D01*
X54825Y123092D01*
X54832Y123095D01*
X65004D01*
X65015Y123056D01*
X65507Y122204D01*
X66203Y121507D01*
X67056Y121015D01*
X68008Y120760D01*
X68992D01*
X69944Y121015D01*
X70797Y121507D01*
X71493Y122204D01*
X71985Y123056D01*
X72240Y124008D01*
Y124992D01*
X71985Y125944D01*
X71493Y126796D01*
X70797Y127493D01*
X69944Y127985D01*
X68992Y128240D01*
X68008D01*
X67056Y127985D01*
X66203Y127493D01*
X65507Y126796D01*
X65015Y125944D01*
X65004Y125905D01*
X58445D01*
X58209Y126201D01*
X58209Y126299D01*
Y130925D01*
D02*
G37*
G36*
X38268Y127756D02*
X33543D01*
Y124622D01*
X33534Y124616D01*
X32370Y123451D01*
X31492Y123686D01*
X30508D01*
X29556Y123431D01*
X28703Y122939D01*
X28007Y122242D01*
X27515Y121389D01*
X27260Y120438D01*
Y119887D01*
X27086Y119770D01*
X26866Y119698D01*
X26026Y120183D01*
X25020Y120453D01*
X25000D01*
Y116500D01*
Y112547D01*
X25020D01*
X26026Y112817D01*
X26927Y113337D01*
X27663Y114073D01*
X28183Y114974D01*
X28453Y115980D01*
Y116663D01*
X28481Y116696D01*
X28846Y116870D01*
X29556Y116461D01*
X30508Y116206D01*
X31492D01*
X32444Y116461D01*
X33296Y116953D01*
X33993Y117649D01*
X34485Y118502D01*
X34740Y119454D01*
Y120438D01*
X34485Y121389D01*
X34411Y121518D01*
X35137Y122244D01*
X38268D01*
Y127756D01*
D02*
G37*
G36*
X24000Y120453D02*
X23980D01*
X22974Y120183D01*
X22073Y119663D01*
X21337Y118927D01*
X20817Y118026D01*
X20547Y117020D01*
Y117000D01*
X24000D01*
Y120453D01*
D02*
G37*
G36*
X134256Y130362D02*
X128744D01*
Y125638D01*
X130095D01*
Y124000D01*
X130202Y123462D01*
X130507Y123006D01*
X132158Y121355D01*
Y119606D01*
X131201D01*
Y114291D01*
X135925D01*
Y119606D01*
X134968D01*
Y121937D01*
X134861Y122475D01*
X134556Y122931D01*
X132905Y124582D01*
Y125638D01*
X134256D01*
Y130362D01*
D02*
G37*
G36*
X24000Y116000D02*
X20547D01*
Y115980D01*
X20817Y114974D01*
X21337Y114073D01*
X22073Y113337D01*
X22974Y112817D01*
X23980Y112547D01*
X24000D01*
Y116000D01*
D02*
G37*
G36*
X187500Y123944D02*
X186574Y123853D01*
X185683Y123583D01*
X184863Y123144D01*
X184143Y122554D01*
X183553Y121834D01*
X183114Y121014D01*
X182844Y120123D01*
X182753Y119197D01*
Y117228D01*
X182844Y116302D01*
X183114Y115412D01*
X183553Y114591D01*
X184143Y113872D01*
X184863Y113281D01*
X185683Y112842D01*
X186574Y112572D01*
X187500Y112481D01*
X188426Y112572D01*
X189317Y112842D01*
X190137Y113281D01*
X190857Y113872D01*
X191447Y114591D01*
X191886Y115412D01*
X192156Y116302D01*
X192247Y117228D01*
Y119197D01*
X192156Y120123D01*
X191886Y121014D01*
X191447Y121834D01*
X190857Y122554D01*
X190137Y123144D01*
X189317Y123583D01*
X188426Y123853D01*
X187500Y123944D01*
D02*
G37*
G36*
X171752D02*
X170826Y123853D01*
X169935Y123583D01*
X169114Y123144D01*
X168395Y122554D01*
X167805Y121834D01*
X167366Y121014D01*
X167096Y120123D01*
X167005Y119197D01*
Y117228D01*
X167096Y116302D01*
X167366Y115412D01*
X167805Y114591D01*
X168395Y113872D01*
X169114Y113281D01*
X169935Y112842D01*
X170826Y112572D01*
X171752Y112481D01*
X172678Y112572D01*
X173569Y112842D01*
X174389Y113281D01*
X175109Y113872D01*
X175699Y114591D01*
X176138Y115412D01*
X176408Y116302D01*
X176499Y117228D01*
Y119197D01*
X176408Y120123D01*
X176138Y121014D01*
X175699Y121834D01*
X175109Y122554D01*
X174389Y123144D01*
X173569Y123583D01*
X172678Y123853D01*
X171752Y123944D01*
D02*
G37*
G36*
X19862Y155256D02*
X15138D01*
Y149744D01*
X16095D01*
Y142582D01*
X10007Y136494D01*
X9702Y136038D01*
X9595Y135500D01*
Y117996D01*
X9556Y117985D01*
X8704Y117493D01*
X8007Y116797D01*
X7515Y115944D01*
X7260Y114992D01*
Y114008D01*
X7515Y113056D01*
X8007Y112204D01*
X8704Y111507D01*
X9556Y111015D01*
X10508Y110760D01*
X11492D01*
X12444Y111015D01*
X13296Y111507D01*
X13993Y112204D01*
X14485Y113056D01*
X14740Y114008D01*
Y114992D01*
X14485Y115944D01*
X13993Y116797D01*
X13296Y117493D01*
X12444Y117985D01*
X12405Y117996D01*
Y134918D01*
X18494Y141007D01*
X18798Y141462D01*
X18905Y142000D01*
Y149744D01*
X19862D01*
Y155256D01*
D02*
G37*
G36*
X73465Y192724D02*
X72535D01*
X71622Y192543D01*
X70762Y192187D01*
X69988Y191670D01*
X69330Y191012D01*
X68813Y190238D01*
X68457Y189378D01*
X68276Y188465D01*
Y187535D01*
X68457Y186622D01*
X68813Y185762D01*
X69330Y184988D01*
X69988Y184330D01*
X70762Y183813D01*
X71622Y183457D01*
X72535Y183276D01*
X73465D01*
X74378Y183457D01*
X74810Y183636D01*
X82223Y176223D01*
X82809Y175831D01*
X83500Y175694D01*
X112252D01*
X122194Y165752D01*
Y117276D01*
X121704Y116993D01*
X121007Y116297D01*
X120515Y115444D01*
X120260Y114492D01*
Y113508D01*
X120515Y112556D01*
X121007Y111704D01*
X121704Y111007D01*
X122556Y110515D01*
X123508Y110260D01*
X124492D01*
X125444Y110515D01*
X126296Y111007D01*
X126993Y111704D01*
X127485Y112556D01*
X127740Y113508D01*
Y114492D01*
X127485Y115444D01*
X126993Y116297D01*
X126296Y116993D01*
X125806Y117276D01*
Y166500D01*
X125669Y167191D01*
X125277Y167777D01*
X114277Y178777D01*
X113691Y179169D01*
X113000Y179306D01*
X84248D01*
X77364Y186190D01*
X77543Y186622D01*
X77724Y187535D01*
Y188465D01*
X77543Y189378D01*
X77187Y190238D01*
X76670Y191012D01*
X76012Y191670D01*
X75238Y192187D01*
X74378Y192543D01*
X73465Y192724D01*
D02*
G37*
G36*
X27000Y110000D02*
X23500D01*
Y106000D01*
X27000D01*
Y110000D01*
D02*
G37*
G36*
X22500D02*
X19000D01*
Y106000D01*
X22500D01*
Y110000D01*
D02*
G37*
G36*
X27000Y105000D02*
X23500D01*
Y101000D01*
X27000D01*
Y105000D01*
D02*
G37*
G36*
X22500D02*
X19000D01*
Y101000D01*
X22500D01*
Y105000D01*
D02*
G37*
G36*
X40287Y109787D02*
X32713D01*
Y101213D01*
X40287D01*
Y103211D01*
X40651Y103362D01*
X42070Y101944D01*
X42525Y101639D01*
X43063Y101532D01*
X43894D01*
Y100575D01*
X49209D01*
Y105299D01*
X43894D01*
Y104650D01*
X43500Y104487D01*
X41493Y106493D01*
X41038Y106798D01*
X40500Y106905D01*
X40287D01*
Y109787D01*
D02*
G37*
G36*
X188000Y102061D02*
Y96665D01*
X192461D01*
Y97150D01*
X192366Y98117D01*
X192083Y99048D01*
X191625Y99906D01*
X191008Y100657D01*
X190256Y101274D01*
X189399Y101733D01*
X188468Y102015D01*
X188000Y102061D01*
D02*
G37*
G36*
X192461Y95665D02*
X188000D01*
Y90269D01*
X188468Y90316D01*
X189399Y90598D01*
X190256Y91056D01*
X191008Y91673D01*
X191625Y92425D01*
X192083Y93283D01*
X192366Y94213D01*
X192461Y95181D01*
Y95665D01*
D02*
G37*
G36*
X71669Y90969D02*
X69595D01*
Y88500D01*
X71669D01*
Y90969D01*
D02*
G37*
G36*
X68594D02*
X66520D01*
Y88500D01*
X68594D01*
Y90969D01*
D02*
G37*
G36*
X71669Y87500D02*
X69595D01*
Y85031D01*
X71669D01*
Y87500D01*
D02*
G37*
G36*
X68594D02*
X66520D01*
Y85031D01*
X68594D01*
Y87500D01*
D02*
G37*
G36*
X190862Y75862D02*
X188000D01*
Y73000D01*
X190862D01*
Y75862D01*
D02*
G37*
G36*
X187000D02*
X184138D01*
Y73000D01*
X187000D01*
Y75862D01*
D02*
G37*
G36*
X190862Y72000D02*
X188000D01*
Y69138D01*
X190862D01*
Y72000D01*
D02*
G37*
G36*
X187000D02*
X184138D01*
Y69138D01*
X187000D01*
Y72000D01*
D02*
G37*
G36*
X143250Y43700D02*
X140500D01*
Y40500D01*
X143250D01*
Y43700D01*
D02*
G37*
G36*
X139500D02*
X136750D01*
Y40500D01*
X139500D01*
Y43700D01*
D02*
G37*
G36*
X94169Y42000D02*
X92094D01*
Y39531D01*
X94169D01*
Y42000D01*
D02*
G37*
G36*
X91094D02*
X89020D01*
Y39531D01*
X91094D01*
Y42000D01*
D02*
G37*
G36*
X143250Y39500D02*
X140500D01*
Y36300D01*
X143250D01*
Y39500D01*
D02*
G37*
G36*
X139500D02*
X136750D01*
Y36300D01*
X139500D01*
Y39500D01*
D02*
G37*
G36*
X167201Y36413D02*
X162469D01*
Y33945D01*
X167201D01*
Y36413D01*
D02*
G37*
G36*
X161469D02*
X156736D01*
Y33945D01*
X161469D01*
Y36413D01*
D02*
G37*
G36*
X16992Y46740D02*
X16008D01*
X15056Y46485D01*
X14203Y45993D01*
X13507Y45296D01*
X13015Y44444D01*
X12760Y43492D01*
Y42508D01*
X13015Y41556D01*
X13507Y40703D01*
X14203Y40007D01*
X15056Y39515D01*
X15230Y39468D01*
Y39122D01*
X15367Y38430D01*
X15759Y37844D01*
X16440Y37164D01*
X16260Y36492D01*
Y35508D01*
X16515Y34556D01*
X17007Y33704D01*
X17704Y33007D01*
X18556Y32515D01*
X19508Y32260D01*
X20492D01*
X21444Y32515D01*
X22297Y33007D01*
X22993Y33704D01*
X23485Y34556D01*
X23740Y35508D01*
Y36492D01*
X23485Y37444D01*
X22993Y38296D01*
X22297Y38993D01*
X21444Y39485D01*
X20492Y39740D01*
X19508D01*
X19411Y39714D01*
X19022Y40009D01*
X19015Y40225D01*
X19493Y40703D01*
X19985Y41556D01*
X20240Y42508D01*
Y43492D01*
X19985Y44444D01*
X19493Y45296D01*
X18797Y45993D01*
X17944Y46485D01*
X16992Y46740D01*
D02*
G37*
G36*
X79169Y32969D02*
X77095D01*
Y30500D01*
X79169D01*
Y32969D01*
D02*
G37*
G36*
X55075D02*
X53000D01*
Y30500D01*
X55075D01*
Y32969D01*
D02*
G37*
G36*
X52000D02*
X49925D01*
Y30500D01*
X52000D01*
Y32969D01*
D02*
G37*
G36*
X76095D02*
X74020D01*
Y30500D01*
X76095D01*
Y32969D01*
D02*
G37*
G36*
X167201Y32945D02*
X162469D01*
Y30476D01*
X167201D01*
Y32945D01*
D02*
G37*
G36*
X161469D02*
X156736D01*
Y30476D01*
X161469D01*
Y32945D01*
D02*
G37*
G36*
X79169Y29500D02*
X77095D01*
Y27031D01*
X79169D01*
Y29500D01*
D02*
G37*
G36*
X76095D02*
X74020D01*
Y27031D01*
X76095D01*
Y29500D01*
D02*
G37*
G36*
X55075D02*
X53000D01*
Y27031D01*
X55075D01*
Y29500D01*
D02*
G37*
G36*
X52000D02*
X49925D01*
Y27031D01*
X52000D01*
Y29500D01*
D02*
G37*
G36*
X122134Y29386D02*
Y25630D01*
Y21874D01*
X123693D01*
Y25630D01*
Y29386D01*
X122134D01*
D02*
G37*
G36*
X121134Y25130D02*
X119846D01*
Y21874D01*
X121134D01*
Y25130D01*
D02*
G37*
G36*
X157020Y20953D02*
X157000D01*
Y17500D01*
X160453D01*
Y17520D01*
X160183Y18526D01*
X159663Y19427D01*
X158927Y20163D01*
X158026Y20683D01*
X157020Y20953D01*
D02*
G37*
G36*
X156000D02*
X155980D01*
X154974Y20683D01*
X154073Y20163D01*
X153337Y19427D01*
X152817Y18526D01*
X152547Y17520D01*
Y17500D01*
X156000D01*
Y20953D01*
D02*
G37*
G36*
X160453Y16500D02*
X157000D01*
Y13047D01*
X157020D01*
X158026Y13317D01*
X158927Y13837D01*
X159663Y14573D01*
X160183Y15474D01*
X160453Y16480D01*
Y16500D01*
D02*
G37*
G36*
X156000D02*
X152547D01*
Y16480D01*
X152817Y15474D01*
X153337Y14573D01*
X154073Y13837D01*
X154974Y13317D01*
X155980Y13047D01*
X156000D01*
Y16500D01*
D02*
G37*
G36*
X147224Y19724D02*
X137776D01*
Y10276D01*
X147224D01*
Y19724D01*
D02*
G37*
G36*
X115728D02*
X106280D01*
Y10276D01*
X115728D01*
Y19724D01*
D02*
G37*
%LPD*%
G36*
X158095Y138811D02*
Y131082D01*
X156170Y129157D01*
X155806Y129308D01*
Y136224D01*
X156297Y136507D01*
X156993Y137204D01*
X157485Y138056D01*
X157701Y138863D01*
X158095Y138811D01*
D02*
G37*
G36*
X150515Y138056D02*
X151007Y137204D01*
X151704Y136507D01*
X152194Y136224D01*
Y129248D01*
X150269Y127323D01*
X149905Y127474D01*
Y138811D01*
X150299Y138863D01*
X150515Y138056D01*
D02*
G37*
G36*
X114194Y117256D02*
X103566D01*
Y118110D01*
X103475Y118571D01*
X103214Y118962D01*
X102823Y119223D01*
X102362Y119315D01*
X94488D01*
X94027Y119223D01*
X93637Y118962D01*
X93376Y118571D01*
X93284Y118110D01*
Y117256D01*
X82291D01*
Y117256D01*
X81943Y117112D01*
X81306Y117748D01*
Y122194D01*
X114194D01*
Y117256D01*
D02*
G37*
G36*
X160194Y128692D02*
Y124248D01*
X156723Y120777D01*
X156331Y120191D01*
X156194Y119500D01*
Y117276D01*
X155703Y116993D01*
X155007Y116297D01*
X154515Y115444D01*
X154260Y114492D01*
Y113508D01*
X154515Y112556D01*
X154693Y112248D01*
X152269Y109823D01*
X151905Y109974D01*
Y120918D01*
X159830Y128843D01*
X160194Y128692D01*
D02*
G37*
G36*
X174417Y101529D02*
X174180Y101209D01*
X173569Y101535D01*
X172678Y101806D01*
X171752Y101897D01*
X170826Y101806D01*
X169935Y101535D01*
X169114Y101097D01*
X168991Y100996D01*
X166493Y103493D01*
X166038Y103798D01*
X165500Y103905D01*
X162756D01*
Y104862D01*
X157244D01*
Y100138D01*
X162756D01*
Y101095D01*
X164918D01*
X167292Y98721D01*
X167096Y98076D01*
X167005Y97150D01*
Y95181D01*
X167096Y94255D01*
X167366Y93364D01*
X167805Y92544D01*
X168395Y91824D01*
X169114Y91234D01*
X169935Y90795D01*
X170347Y90670D01*
Y88834D01*
X168418Y86905D01*
X166251D01*
X166088Y87299D01*
X166493Y87704D01*
X166985Y88556D01*
X167240Y89508D01*
Y90492D01*
X166985Y91444D01*
X166493Y92296D01*
X165796Y92993D01*
X164944Y93485D01*
X163992Y93740D01*
X163008D01*
X162756Y93933D01*
Y98268D01*
X157244D01*
Y98268D01*
X156850Y98204D01*
X154806Y100248D01*
Y107252D01*
X157814Y110260D01*
X158492D01*
X159444Y110515D01*
X160296Y111007D01*
X160730Y111440D01*
X164505D01*
X174417Y101529D01*
D02*
G37*
G36*
X155129Y94816D02*
X155715Y94425D01*
X156406Y94288D01*
X157244D01*
Y93543D01*
X161370D01*
X161475Y93150D01*
X161204Y92993D01*
X160507Y92296D01*
X160015Y91444D01*
X160004Y91405D01*
X156582D01*
X151905Y96082D01*
Y97526D01*
X152269Y97677D01*
X155129Y94816D01*
D02*
G37*
G36*
X155007Y89007D02*
X155462Y88702D01*
X156000Y88595D01*
X160004D01*
X160015Y88556D01*
X160507Y87704D01*
X160912Y87299D01*
X160749Y86905D01*
X149541D01*
X149435Y87299D01*
X149796Y87507D01*
X150493Y88204D01*
X150985Y89056D01*
X151240Y90008D01*
Y90992D01*
X150985Y91944D01*
X150493Y92796D01*
X149960Y93330D01*
X149982Y93475D01*
X150401Y93612D01*
X155007Y89007D01*
D02*
G37*
G36*
X179194Y96752D02*
Y63500D01*
Y58806D01*
X156500D01*
X155809Y58669D01*
X155223Y58277D01*
X149223Y52277D01*
X148831Y51691D01*
X148694Y51000D01*
Y48806D01*
X143250D01*
Y52000D01*
X136750D01*
Y48806D01*
X134846D01*
X134537Y49013D01*
Y55987D01*
X128463D01*
Y49013D01*
X128154Y48806D01*
X86806D01*
Y49744D01*
X87362D01*
Y55256D01*
X82638D01*
Y53905D01*
X81000D01*
X80462Y53798D01*
X80007Y53493D01*
X78725Y52212D01*
X71413D01*
Y52276D01*
X63508D01*
Y51185D01*
X63721D01*
Y49429D01*
X67325D01*
X67461Y49402D01*
X79307D01*
X79845Y49509D01*
X80300Y49814D01*
X81582Y51095D01*
X82638D01*
Y49744D01*
X83194D01*
Y45256D01*
X82638D01*
Y43905D01*
X81082D01*
X78993Y45994D01*
X78538Y46298D01*
X78000Y46405D01*
X72000D01*
X71462Y46298D01*
X71007Y45994D01*
X66918Y41905D01*
X63059D01*
Y45000D01*
X63032Y45136D01*
Y48740D01*
X51248D01*
Y59761D01*
X63357Y71870D01*
X63721Y71719D01*
Y67146D01*
Y63209D01*
Y59272D01*
Y54366D01*
X63508D01*
Y53276D01*
X71413D01*
Y54366D01*
X71201D01*
Y57276D01*
X79181D01*
X79719Y57383D01*
X80174Y57688D01*
X82274Y59787D01*
X82638Y59636D01*
Y59244D01*
X87362D01*
Y64756D01*
X87362D01*
X87494Y65095D01*
X88678D01*
X89020Y64969D01*
X89020Y64701D01*
Y62500D01*
X94169D01*
X94169Y64969D01*
X94511Y65095D01*
X108500D01*
X109038Y65202D01*
X109494Y65507D01*
X115636Y71649D01*
X116000Y71499D01*
Y70000D01*
X119500D01*
Y74000D01*
X118501D01*
X118351Y74364D01*
X120420Y76433D01*
X120912Y76368D01*
X121007Y76204D01*
X121704Y75507D01*
X122556Y75015D01*
X123508Y74760D01*
X124492D01*
X125444Y75015D01*
X126296Y75507D01*
X126993Y76204D01*
X127485Y77056D01*
X127740Y78008D01*
Y78992D01*
X127485Y79944D01*
X126993Y80796D01*
X126296Y81493D01*
X125444Y81985D01*
X124492Y82240D01*
X123784D01*
X123621Y82634D01*
X125082Y84095D01*
X150595D01*
Y82756D01*
X149638D01*
Y77244D01*
X154362D01*
Y82756D01*
X153405D01*
Y84095D01*
X169000D01*
X169538Y84202D01*
X169993Y84507D01*
X172745Y87258D01*
X173050Y87714D01*
X173157Y88252D01*
Y90670D01*
X173569Y90795D01*
X174389Y91234D01*
X175109Y91824D01*
X175699Y92544D01*
X176138Y93364D01*
X176408Y94255D01*
X176499Y95181D01*
Y97150D01*
X176408Y98076D01*
X176138Y98966D01*
X175811Y99577D01*
X176131Y99814D01*
X179194Y96752D01*
D02*
G37*
G36*
X49317Y88206D02*
X49245Y87936D01*
Y86951D01*
X49500Y86000D01*
X49992Y85147D01*
X50689Y84451D01*
X51542Y83958D01*
X52493Y83704D01*
X53478D01*
X54134Y83879D01*
X55642Y82372D01*
X55491Y82008D01*
X38622D01*
Y76379D01*
X38258Y76229D01*
X33638Y80849D01*
X33986Y81197D01*
X34479Y82050D01*
X34734Y83001D01*
Y83986D01*
X34479Y84937D01*
X33986Y85790D01*
X33476Y86300D01*
X33639Y86694D01*
X46500D01*
X47191Y86831D01*
X47777Y87223D01*
X48965Y88410D01*
X49317Y88206D01*
D02*
G37*
G36*
X27107Y84962D02*
X27396Y84520D01*
X27253Y83986D01*
Y83001D01*
X27508Y82050D01*
X28001Y81197D01*
X28697Y80501D01*
X29550Y80008D01*
X30501Y79753D01*
X30808D01*
X30904Y79609D01*
X36311Y74202D01*
X36160Y73839D01*
X34329D01*
X34193Y73866D01*
X29621D01*
X28493Y74993D01*
X28038Y75298D01*
X27500Y75405D01*
X25256D01*
Y76457D01*
X24306D01*
Y82252D01*
X27029Y84974D01*
X27107Y84962D01*
D02*
G37*
G36*
X28046Y71467D02*
X28502Y71163D01*
X29039Y71056D01*
X30240D01*
Y70992D01*
X38146D01*
Y71811D01*
X38539Y71974D01*
X40563Y69950D01*
Y52349D01*
X40170Y52229D01*
X39994Y52493D01*
X38718Y53769D01*
X38262Y54074D01*
X37933Y54139D01*
Y57303D01*
Y61240D01*
Y65177D01*
Y68902D01*
X38146D01*
Y69992D01*
X30240D01*
Y68902D01*
X30453D01*
Y67146D01*
Y63209D01*
Y58118D01*
X26468D01*
X26363Y58511D01*
X26927Y58837D01*
X27663Y59573D01*
X28183Y60474D01*
X28453Y61480D01*
Y61500D01*
X24500D01*
Y62500D01*
X28453D01*
Y62520D01*
X28183Y63526D01*
X27663Y64427D01*
X26927Y65163D01*
X26026Y65683D01*
X25469Y65833D01*
Y67000D01*
X19532D01*
Y64925D01*
X21321D01*
X21471Y64561D01*
X21337Y64427D01*
X20817Y63526D01*
X20594Y62694D01*
X20186Y62694D01*
X19985Y63444D01*
X19493Y64297D01*
X18797Y64993D01*
X18306Y65276D01*
Y71252D01*
X19248Y72194D01*
X19744D01*
Y71732D01*
X25256D01*
Y72595D01*
X26918D01*
X28046Y71467D01*
D02*
G37*
G36*
X86744Y68269D02*
X86594Y67905D01*
X80293D01*
X79755Y67798D01*
X79597Y67692D01*
X79296Y67993D01*
X78444Y68485D01*
X77492Y68740D01*
X76508D01*
X75556Y68485D01*
X74704Y67993D01*
X74007Y67296D01*
X73515Y66444D01*
X73260Y65492D01*
Y64508D01*
X73515Y63556D01*
X74007Y62704D01*
X74704Y62007D01*
X75556Y61515D01*
X76508Y61260D01*
X77492D01*
X78444Y61515D01*
X79296Y62007D01*
X79993Y62704D01*
X80485Y63556D01*
X80740Y64508D01*
Y64960D01*
X80875Y65095D01*
X82506D01*
X82638Y64756D01*
X82638D01*
Y63250D01*
X82345D01*
X81808Y63143D01*
X81352Y62839D01*
X78599Y60086D01*
X71201D01*
Y63209D01*
Y67146D01*
Y71056D01*
X71626D01*
X72163Y71163D01*
X72459Y71360D01*
X73056Y71015D01*
X74008Y70760D01*
X74992D01*
X75944Y71015D01*
X76797Y71507D01*
X77493Y72203D01*
X77985Y73056D01*
X78240Y74008D01*
Y74992D01*
X77985Y75944D01*
X77493Y76797D01*
X76797Y77493D01*
X76435Y77701D01*
X76541Y78095D01*
X76918D01*
X86744Y68269D01*
D02*
G37*
G36*
X8735Y74038D02*
X9588Y73546D01*
X9595Y73544D01*
Y59500D01*
X9608Y59436D01*
X9245Y59242D01*
X7905Y60582D01*
Y74311D01*
X8299Y74475D01*
X8735Y74038D01*
D02*
G37*
G36*
X13787Y55308D02*
X30453D01*
Y52212D01*
X16275D01*
X13529Y54958D01*
X13723Y55320D01*
X13787Y55308D01*
D02*
G37*
G36*
X78750Y42263D02*
X78509Y41948D01*
X78444Y41985D01*
X77492Y42240D01*
X76508D01*
X75556Y41985D01*
X74704Y41493D01*
X74007Y40797D01*
X73515Y39944D01*
X73370Y39405D01*
X68949D01*
X68786Y39799D01*
X72582Y43595D01*
X77418D01*
X78750Y42263D01*
D02*
G37*
G36*
X38622Y47121D02*
Y45136D01*
X38595Y45000D01*
Y41082D01*
X37918Y40405D01*
X34500D01*
X33962Y40298D01*
X33507Y39994D01*
X28769Y35256D01*
X28405Y35406D01*
Y37418D01*
X38258Y47271D01*
X38622Y47121D01*
D02*
G37*
G36*
X111506Y38006D02*
X111962Y37702D01*
X112149Y37665D01*
X112279Y37238D01*
X112007Y36966D01*
X111515Y36113D01*
X111504Y36074D01*
X108656D01*
X108118Y35967D01*
X107663Y35663D01*
X103006Y31007D01*
X102702Y30551D01*
X102595Y30013D01*
Y27082D01*
X98299Y22786D01*
X97905Y22949D01*
Y29514D01*
X98299Y29816D01*
X98508Y29760D01*
X99492D01*
X100444Y30015D01*
X101296Y30507D01*
X101993Y31203D01*
X102485Y32056D01*
X102740Y33008D01*
Y33992D01*
X102485Y34944D01*
X101993Y35796D01*
X101296Y36493D01*
X100444Y36985D01*
X99492Y37240D01*
X98508D01*
X97556Y36985D01*
X97492Y36948D01*
X97250Y37263D01*
X100082Y40095D01*
X109418D01*
X111506Y38006D01*
D02*
G37*
G36*
X111515Y33226D02*
X112007Y32373D01*
X112704Y31676D01*
X113556Y31184D01*
X114508Y30929D01*
X115318D01*
X115481Y30535D01*
X113752Y28806D01*
X112276D01*
X111993Y29296D01*
X111296Y29993D01*
X110444Y30485D01*
X109492Y30740D01*
X108508D01*
X107556Y30485D01*
X106703Y29993D01*
X106007Y29296D01*
X105799Y28935D01*
X105405Y29041D01*
Y29431D01*
X109238Y33264D01*
X111504D01*
X111515Y33226D01*
D02*
G37*
G36*
X133800Y37300D02*
X132700Y28400D01*
Y22800D01*
X131000D01*
Y28400D01*
X129200Y37300D01*
Y42800D01*
X133800D01*
Y37300D01*
D02*
G37*
G36*
X38151Y37201D02*
X32006Y31056D01*
X31702Y30601D01*
X31595Y30063D01*
Y12906D01*
X31231Y12756D01*
X30405Y13582D01*
Y32918D01*
X35082Y37595D01*
X37988D01*
X38151Y37201D01*
D02*
G37*
%LPC*%
G36*
X161169Y82968D02*
X159095D01*
Y80500D01*
X161169D01*
Y82968D01*
D02*
G37*
G36*
X158095D02*
X156020D01*
Y80500D01*
X158095D01*
Y82968D01*
D02*
G37*
G36*
X161169Y79500D02*
X159095D01*
Y77031D01*
X161169D01*
Y79500D01*
D02*
G37*
G36*
X158095D02*
X156020D01*
Y77031D01*
X158095D01*
Y79500D01*
D02*
G37*
G36*
X157020Y76453D02*
X157000D01*
Y73000D01*
X160453D01*
Y73020D01*
X160183Y74026D01*
X159663Y74927D01*
X158927Y75663D01*
X158026Y76183D01*
X157020Y76453D01*
D02*
G37*
G36*
X156000D02*
X155980D01*
X154974Y76183D01*
X154073Y75663D01*
X153337Y74927D01*
X152817Y74026D01*
X152547Y73020D01*
Y73000D01*
X156000D01*
Y76453D01*
D02*
G37*
G36*
X177657Y72106D02*
X169783D01*
Y70405D01*
X160248D01*
X160052Y70746D01*
X160183Y70974D01*
X160453Y71980D01*
Y72000D01*
X152547D01*
Y71980D01*
X152817Y70974D01*
X153337Y70073D01*
X154073Y69337D01*
X154974Y68817D01*
X155980Y68547D01*
X156504D01*
X156667Y68154D01*
X150620Y62107D01*
X150256Y62257D01*
Y65768D01*
X144744D01*
Y64811D01*
X139406D01*
X138868Y64704D01*
X138412Y64399D01*
X137418Y63405D01*
X107000D01*
X106462Y63298D01*
X106007Y62993D01*
X100478Y57465D01*
X100444Y57485D01*
X99492Y57740D01*
X98508D01*
X97556Y57485D01*
X96703Y56993D01*
X96007Y56296D01*
X95515Y55444D01*
X95260Y54492D01*
Y53508D01*
X95515Y52556D01*
X96007Y51704D01*
X96703Y51007D01*
X97556Y50515D01*
X98508Y50260D01*
X99492D01*
X100444Y50515D01*
X101296Y51007D01*
X101993Y51704D01*
X102485Y52556D01*
X102740Y53508D01*
Y54492D01*
X102485Y55444D01*
X102465Y55478D01*
X107582Y60595D01*
X113200D01*
X113306Y60201D01*
X112704Y59854D01*
X112007Y59157D01*
X111515Y58304D01*
X111260Y57353D01*
Y56368D01*
X111515Y55417D01*
X112007Y54564D01*
X112704Y53868D01*
X113556Y53376D01*
X114508Y53121D01*
X115492D01*
X116444Y53376D01*
X117297Y53868D01*
X117993Y54564D01*
X118485Y55417D01*
X118740Y56368D01*
Y57353D01*
X118513Y58201D01*
X118721Y58595D01*
X125594D01*
X125744Y58231D01*
X124978Y57465D01*
X124944Y57485D01*
X123992Y57740D01*
X123008D01*
X122056Y57485D01*
X121203Y56993D01*
X120507Y56296D01*
X120015Y55444D01*
X119760Y54492D01*
Y53508D01*
X120015Y52556D01*
X120507Y51704D01*
X121203Y51007D01*
X122056Y50515D01*
X123008Y50260D01*
X123992D01*
X124944Y50515D01*
X125796Y51007D01*
X126493Y51704D01*
X126985Y52556D01*
X127240Y53508D01*
Y54492D01*
X126985Y55444D01*
X126965Y55478D01*
X128082Y56595D01*
X151500D01*
X152038Y56702D01*
X152494Y57007D01*
X157921Y62434D01*
X160004D01*
X160015Y62395D01*
X160507Y61542D01*
X161204Y60846D01*
X162056Y60353D01*
X163008Y60098D01*
X163992D01*
X164944Y60353D01*
X165796Y60846D01*
X166493Y61542D01*
X166985Y62395D01*
X167240Y63346D01*
Y64331D01*
X166985Y65282D01*
X166493Y66135D01*
X165796Y66831D01*
X165156Y67201D01*
X165261Y67595D01*
X169783D01*
Y64232D01*
X177657D01*
Y72106D01*
D02*
G37*
G36*
X124000Y74000D02*
X120500D01*
Y70000D01*
X124000D01*
Y74000D01*
D02*
G37*
G36*
X143736Y83157D02*
X139012D01*
Y77842D01*
X143736D01*
Y79095D01*
X144418D01*
X146095Y77418D01*
Y72362D01*
X144744D01*
Y67638D01*
X150256D01*
Y72362D01*
X148905D01*
Y78000D01*
X148798Y78538D01*
X148494Y78993D01*
X145993Y81493D01*
X145538Y81798D01*
X145000Y81905D01*
X143736D01*
Y83157D01*
D02*
G37*
G36*
X135862D02*
X131138D01*
Y77842D01*
X132095D01*
Y73787D01*
X129713D01*
Y65213D01*
X137287D01*
Y73787D01*
X134905D01*
Y77842D01*
X135862D01*
Y83157D01*
D02*
G37*
G36*
X124000Y69000D02*
X120500D01*
Y65000D01*
X124000D01*
Y69000D01*
D02*
G37*
G36*
X119500D02*
X116000D01*
Y65000D01*
X119500D01*
Y69000D01*
D02*
G37*
G36*
X94169Y61500D02*
X92094D01*
Y59031D01*
X94169D01*
Y61500D01*
D02*
G37*
G36*
X91094D02*
X89020D01*
Y59031D01*
X91094D01*
Y61500D01*
D02*
G37*
G36*
X143250Y56200D02*
X140500D01*
Y53000D01*
X143250D01*
Y56200D01*
D02*
G37*
G36*
X139500D02*
X136750D01*
Y53000D01*
X139500D01*
Y56200D01*
D02*
G37*
G36*
X94169Y55468D02*
X92094D01*
Y53000D01*
X94169D01*
Y55468D01*
D02*
G37*
G36*
X91094D02*
X89020D01*
Y53000D01*
X91094D01*
Y55468D01*
D02*
G37*
G36*
X94169Y52000D02*
X92094D01*
Y49531D01*
X94169D01*
Y52000D01*
D02*
G37*
G36*
X91094D02*
X89020D01*
Y49531D01*
X91094D01*
Y52000D01*
D02*
G37*
G36*
X25469Y70075D02*
X23000D01*
Y68000D01*
X25469D01*
Y70075D01*
D02*
G37*
G36*
X22000D02*
X19532D01*
Y68000D01*
X22000D01*
Y70075D01*
D02*
G37*
%LPD*%
D10*
X160000Y177500D02*
X166000D01*
X150000D02*
X160000D01*
X166000D02*
X171752Y171748D01*
X169000Y85500D02*
X171752Y88252D01*
X124500Y85500D02*
X152000D01*
X169000D01*
X152000Y80000D02*
Y85500D01*
X107468Y68468D02*
X124500Y85500D01*
X171752Y88252D02*
Y95378D01*
X49843Y60343D02*
X69000Y79500D01*
X171752Y160000D02*
Y171748D01*
X131500Y134595D02*
Y152500D01*
X132000Y153000D01*
X131500Y124000D02*
X133563Y121937D01*
Y116949D02*
Y121937D01*
X131500Y124000D02*
Y128000D01*
X141500Y117012D02*
Y124500D01*
X141437Y116949D02*
X141500Y117012D01*
Y124500D02*
X142500Y125500D01*
Y132000D01*
X36500Y105500D02*
X40500D01*
X43063Y102937D01*
X46551D01*
X37500Y95000D02*
X46488D01*
X46551Y95063D01*
X6500Y89500D02*
X12000Y95000D01*
X30906D01*
X6500Y60000D02*
Y89500D01*
X15693Y50807D02*
X34193D01*
X6500Y60000D02*
X15693Y50807D01*
X133500Y69500D02*
Y80500D01*
X84845Y61845D02*
X85000Y62000D01*
X82345Y61845D02*
X84845D01*
X79181Y58681D02*
X82345Y61845D01*
X67461Y58681D02*
X79181D01*
X141488Y80500D02*
X145000D01*
X141437Y80551D02*
X141488Y80500D01*
X145000D02*
X147500Y78000D01*
X99500Y41500D02*
X110000D01*
X112500Y39000D01*
X94000Y36000D02*
X99500Y41500D01*
X150500Y95500D02*
X156000Y90000D01*
X150500Y121500D02*
X159500Y130500D01*
X150500Y95500D02*
Y121500D01*
X94000Y12000D02*
Y36000D01*
X123000Y39000D02*
X123500Y39500D01*
X112500Y39000D02*
X123000D01*
X127500Y58000D02*
X151500D01*
X157339Y63839D02*
X163500D01*
X151500Y58000D02*
X157339Y63839D01*
X159500Y130500D02*
Y149500D01*
X123500Y54000D02*
X127500Y58000D01*
X33000Y12000D02*
Y30063D01*
X43937Y41000D02*
Y45000D01*
X33000Y30063D02*
X43937Y41000D01*
X33000Y12000D02*
X37000Y8000D01*
X90000D02*
X94000Y12000D01*
X37000Y8000D02*
X90000D01*
X156000Y153000D02*
X159500Y149500D01*
X156000Y90000D02*
X163500D01*
X42500Y125000D02*
X47000D01*
X50563Y128563D02*
X55551D01*
X47000Y125000D02*
X50563Y128563D01*
X51000Y136500D02*
X55488D01*
X55551Y136437D01*
X50000Y137500D02*
X51000Y136500D01*
X42500Y137500D02*
X50000D01*
X147500Y70000D02*
Y78000D01*
X24094Y152500D02*
Y157095D01*
X28051Y161051D02*
Y166063D01*
X24094Y157095D02*
X28051Y161051D01*
X96500Y30446D02*
X99000Y32946D01*
Y33500D01*
X96500Y10500D02*
Y30446D01*
X99000Y54000D02*
X107000Y62000D01*
X138000D01*
X139406Y63406D01*
X29000Y13000D02*
Y33500D01*
X34500Y39000D01*
X29000Y13000D02*
X36000Y6000D01*
X92000D01*
X96500Y10500D01*
X38500Y39000D02*
X40000Y40500D01*
Y45000D01*
X34500Y39000D02*
X38500D01*
X139406Y63406D02*
X147500D01*
X41969Y45000D02*
Y70531D01*
X31897Y80603D02*
Y82590D01*
X30994Y83494D02*
X31897Y82590D01*
Y80603D02*
X41969Y70531D01*
X31000Y120095D02*
X34528Y123622D01*
X34921D02*
X35906Y124606D01*
X31000Y119946D02*
Y120095D01*
X34528Y123622D02*
X34921D01*
X35906Y124606D02*
Y125000D01*
X120090Y78090D02*
X123590D01*
X108500Y66500D02*
X120090Y78090D01*
X80293Y66500D02*
X108500D01*
X123590Y78090D02*
X124000Y78500D01*
X88532Y68468D02*
X107468D01*
X93937Y3937D02*
X99000Y9000D01*
Y21500D01*
X104000Y26500D01*
X62500Y84000D02*
Y88000D01*
X61654Y83153D02*
X62500Y84000D01*
X61654Y78268D02*
Y83153D01*
X22500Y74094D02*
X22594Y74000D01*
X27500D01*
X29039Y72461D01*
X34193D01*
X45906Y36644D02*
X46331Y36219D01*
X45906Y36644D02*
Y45000D01*
X85000Y28000D02*
Y42500D01*
X67500Y40500D02*
X72000Y45000D01*
X62345Y40500D02*
X67500D01*
X72000Y45000D02*
X78000D01*
X80500Y42500D01*
X61654Y41192D02*
Y45000D01*
Y41192D02*
X62345Y40500D01*
X81000Y52500D02*
X85000D01*
X79307Y50807D02*
X81000Y52500D01*
X67461Y50807D02*
X79307D01*
X80500Y42500D02*
X85000D01*
X22500Y67500D02*
X22756D01*
X23741Y66516D01*
X60000Y170000D02*
X80000D01*
X87500Y162500D01*
X51811Y40189D02*
X59000Y33000D01*
Y30095D02*
Y33000D01*
Y30095D02*
X59095Y30000D01*
X53780Y41221D02*
Y45000D01*
X59500Y35500D02*
X68000D01*
X53780Y41221D02*
X59500Y35500D01*
X59095Y18094D02*
Y30000D01*
X56000Y15000D02*
X59095Y18094D01*
X70000Y18717D02*
Y30000D01*
Y18717D02*
X73716Y15000D01*
X104000Y30013D02*
X108656Y34669D01*
X115000D01*
X117564Y60000D02*
X150500D01*
X115000Y57436D02*
X117564Y60000D01*
X115000Y56861D02*
Y57436D01*
X104000Y26500D02*
Y30013D01*
X159500Y69000D02*
X172890D01*
X150500Y60000D02*
X159500Y69000D01*
X77500Y79500D02*
X88532Y68468D01*
X76500Y38000D02*
X77000Y38500D01*
X61000Y38000D02*
X76500D01*
X77000Y65000D02*
X77904Y65904D01*
X79697D02*
X80293Y66500D01*
X77904Y65904D02*
X79697D01*
X148500Y126500D02*
Y155500D01*
X145500Y123500D02*
X148500Y126500D01*
X145500Y105500D02*
Y123500D01*
X51000Y121500D02*
X54000Y124500D01*
X68500D01*
X43000Y114500D02*
X53000D01*
X39500Y118000D02*
X43000Y114500D01*
X68500Y80000D02*
X69000Y79500D01*
X62500Y118000D02*
X74500Y106000D01*
X62000Y118000D02*
X62500D01*
X67461Y72461D02*
X71626D01*
X73665Y74500D01*
X74500D01*
X69000Y79500D02*
X77500D01*
X52985Y87015D02*
Y87444D01*
Y87015D02*
X57717Y82284D01*
Y78268D02*
Y82284D01*
X27000Y11500D02*
X34563Y3937D01*
X27000Y38000D02*
X39000Y50000D01*
X27000Y11500D02*
Y38000D01*
X51811Y40189D02*
Y45000D01*
X138500Y98500D02*
X145500Y105500D01*
X124000Y98500D02*
X138500D01*
X172890Y69000D02*
X173721Y68169D01*
X148500Y155500D02*
X154000Y161000D01*
Y167000D01*
X34563Y3937D02*
X93937D01*
X11000Y59500D02*
X13787Y56713D01*
X11000Y59500D02*
Y77000D01*
X13787Y56713D02*
X34193D01*
X11000Y77000D02*
X11031Y77031D01*
X131870Y25630D02*
Y31056D01*
X133814Y33000D01*
X11000Y135500D02*
X17500Y142000D01*
X11000Y114500D02*
Y135500D01*
X49843Y45000D02*
Y60343D01*
X156095Y169095D02*
X160000D01*
X154000Y167000D02*
X156095Y169095D01*
X160000D02*
Y177500D01*
X59685Y39315D02*
X61000Y38000D01*
X59685Y39315D02*
Y45000D01*
X68000Y35500D02*
X70000Y33500D01*
X17500Y142000D02*
Y152500D01*
X34193Y52776D02*
X37724D01*
X39000Y50000D02*
Y51500D01*
X37724Y52776D02*
X39000Y51500D01*
X160000Y102500D02*
X165500D01*
X169783Y98216D01*
X60000Y152500D02*
Y170000D01*
X37500D02*
X60000D01*
X70000Y30000D02*
Y33500D01*
D11*
X56000Y99000D02*
X68500D01*
X78000Y89500D02*
X88000D01*
X68500Y99000D02*
X78000Y89500D01*
X122949Y89949D02*
X137437D01*
X122500Y89500D02*
X122949Y89949D01*
X109000Y89500D02*
X122500D01*
X158247Y113247D02*
X165253D01*
X181000Y97500D01*
Y63500D02*
Y97500D01*
X158000Y113000D02*
X158247Y113247D01*
X85000Y47500D02*
X85500Y47000D01*
X60000Y88168D02*
X62332D01*
X62500Y88000D01*
X56000Y92168D02*
X60000Y88168D01*
X18500Y74000D02*
X22594D01*
X50168Y92168D02*
X56000D01*
X46500Y88500D02*
X50168Y92168D01*
X28000Y88500D02*
X46500D01*
X22500Y83000D02*
X28000Y88500D01*
X22500Y74094D02*
Y83000D01*
X16500Y72000D02*
X18500Y74000D01*
X16500Y62000D02*
Y72000D01*
X46000Y35888D02*
X46331Y36219D01*
X46000Y33000D02*
Y35888D01*
X41000Y28000D02*
X46000Y33000D01*
X153000Y99500D02*
X156406Y96094D01*
X153000Y108000D02*
X158000Y113000D01*
X153000Y99500D02*
Y108000D01*
X160000Y157500D02*
X162000Y155500D01*
Y123500D02*
Y155500D01*
X158000Y119500D02*
X162000Y123500D01*
X73000Y188000D02*
X83500Y177500D01*
X113000D01*
X124000Y166500D01*
X158000Y114000D02*
Y119500D01*
Y113000D02*
Y114000D01*
X124000D02*
Y166500D01*
X156500Y57000D02*
X181000D01*
Y57500D02*
X185000Y53500D01*
Y42500D02*
Y53500D01*
X181000Y57500D02*
Y63500D01*
X187161D01*
X187500Y63839D01*
X150500Y51000D02*
X156500Y57000D01*
X85500Y47000D02*
X131500D01*
X16500Y43000D02*
X17036Y42464D01*
Y39122D02*
Y42464D01*
X20000Y36000D02*
Y36158D01*
X17036Y39122D02*
X20000Y36158D01*
X160000Y157500D02*
Y162500D01*
X150500Y47000D02*
Y51000D01*
X131500Y47000D02*
X150500D01*
X131500D02*
Y52500D01*
X85000Y47500D02*
Y52500D01*
Y42500D02*
Y47500D01*
X150500Y47000D02*
X155000Y42500D01*
X161969D01*
X156406Y96094D02*
X159812D01*
X160000Y95906D01*
X109000Y79000D02*
Y82500D01*
X91000Y75500D02*
X105500D01*
X109000Y79000D01*
X148000Y91000D02*
Y122500D01*
X147500Y90500D02*
X148000Y91000D01*
Y122500D02*
X154000Y128500D01*
X79500Y124000D02*
X116000D01*
Y139500D01*
Y116000D02*
Y124000D01*
X109000Y114500D02*
X114500D01*
X116000Y116000D01*
X107500Y148000D02*
X116000Y139500D01*
X107500Y148000D02*
Y162500D01*
X79500Y124000D02*
Y144000D01*
Y117000D02*
Y124000D01*
X88000Y78500D02*
X91000Y75500D01*
X88000Y78500D02*
Y82500D01*
X114500Y27000D02*
X120500Y33000D01*
X133814D01*
X109000Y27000D02*
X114500D01*
X154000Y128500D02*
Y139500D01*
X82000Y114500D02*
X88000D01*
X79500Y117000D02*
X82000Y114500D01*
X71000Y152500D02*
X79500Y144000D01*
X66594Y152500D02*
X71000D01*
X109000Y107500D02*
X137500D01*
X80500D02*
X88000D01*
X74500Y113500D02*
X80500Y107500D01*
X74500Y113500D02*
Y129000D01*
X71000Y132500D02*
X74500Y129000D01*
X65000Y132500D02*
X71000D01*
D12*
X187500Y118213D02*
D03*
X171752D02*
D03*
Y96165D02*
D03*
X187500D02*
D03*
Y159213D02*
D03*
X171752D02*
D03*
Y137165D02*
D03*
X187500D02*
D03*
D13*
X107500Y162500D02*
D03*
D14*
X87500D02*
D03*
D15*
X73716Y15000D02*
D03*
X56000D02*
D03*
D16*
X11811Y185039D02*
D03*
X185039D02*
D03*
Y11811D02*
D03*
X11811D02*
D03*
X73000Y188000D02*
D03*
X85000D02*
D03*
X51000D02*
D03*
X62000D02*
D03*
X39500D02*
D03*
D17*
X132000Y153000D02*
D03*
X163500Y63839D02*
D03*
Y90000D02*
D03*
X156000Y153000D02*
D03*
X123500Y54000D02*
D03*
Y39500D02*
D03*
X99000Y33500D02*
D03*
Y54000D02*
D03*
X30994Y83494D02*
D03*
X31000Y119946D02*
D03*
X24500Y116500D02*
D03*
Y62000D02*
D03*
X124000Y114000D02*
D03*
X158000D02*
D03*
X41000Y28000D02*
D03*
X85000D02*
D03*
X20000Y36000D02*
D03*
X46331Y36219D02*
D03*
X16500Y43000D02*
D03*
Y62000D02*
D03*
X156500Y17000D02*
D03*
Y72500D02*
D03*
X109000Y79000D02*
D03*
X116000Y139500D02*
D03*
X115000Y34669D02*
D03*
Y56861D02*
D03*
X109000Y27000D02*
D03*
X124000Y78500D02*
D03*
X77000Y38500D02*
D03*
Y65000D02*
D03*
X51000Y121500D02*
D03*
X53000Y114500D02*
D03*
X68500Y124500D02*
D03*
Y80000D02*
D03*
X62000Y118000D02*
D03*
X39500D02*
D03*
X74500Y106000D02*
D03*
Y74500D02*
D03*
X52985Y87444D02*
D03*
X147500Y31000D02*
D03*
Y90500D02*
D03*
X154000Y139500D02*
D03*
X11031Y77031D02*
D03*
X11000Y114500D02*
D03*
X124000Y98500D02*
D03*
D18*
X37500Y170000D02*
D03*
X28051Y173937D02*
D03*
Y166063D02*
D03*
X56000Y99000D02*
D03*
X46551Y102937D02*
D03*
Y95063D02*
D03*
X65000Y132500D02*
D03*
X55551Y136437D02*
D03*
Y128563D02*
D03*
D19*
X137437Y89949D02*
D03*
X133500Y80500D02*
D03*
X141374D02*
D03*
X137500Y107500D02*
D03*
X141437Y116949D02*
D03*
X133563D02*
D03*
D20*
X91594Y62000D02*
D03*
X85000D02*
D03*
X37500Y95000D02*
D03*
X30906D02*
D03*
X42500Y125000D02*
D03*
X24094Y152500D02*
D03*
X35906Y125000D02*
D03*
X62500Y88000D02*
D03*
X69095D02*
D03*
X59095Y30000D02*
D03*
X52500D02*
D03*
X17500Y152500D02*
D03*
X91594Y52500D02*
D03*
X85000D02*
D03*
X91594Y42500D02*
D03*
X85000D02*
D03*
X70000Y30000D02*
D03*
X76595D02*
D03*
X60000Y152500D02*
D03*
X66594D02*
D03*
X143405Y177500D02*
D03*
X150000D02*
D03*
X158595Y80000D02*
D03*
X152000D02*
D03*
D21*
X120000Y69500D02*
D03*
X133500D02*
D03*
X23000Y105500D02*
D03*
X36500D02*
D03*
X42500Y137500D02*
D03*
X29000D02*
D03*
D22*
X142500Y145500D02*
D03*
Y132000D02*
D03*
D23*
X67461Y58681D02*
D03*
X34193Y50807D02*
D03*
Y52776D02*
D03*
Y54744D02*
D03*
Y56713D02*
D03*
Y58681D02*
D03*
Y60650D02*
D03*
Y62618D02*
D03*
Y64587D02*
D03*
Y66555D02*
D03*
Y68524D02*
D03*
Y70492D02*
D03*
Y72461D02*
D03*
X67461D02*
D03*
Y70492D02*
D03*
Y68524D02*
D03*
Y66555D02*
D03*
Y64587D02*
D03*
Y62618D02*
D03*
Y60650D02*
D03*
Y56713D02*
D03*
Y54744D02*
D03*
Y52776D02*
D03*
Y50807D02*
D03*
D24*
X131500Y134595D02*
D03*
X147500Y70000D02*
D03*
Y63406D02*
D03*
X131500Y128000D02*
D03*
X22500Y74094D02*
D03*
Y67500D02*
D03*
X160000Y162500D02*
D03*
Y169095D02*
D03*
Y95906D02*
D03*
Y102500D02*
D03*
D25*
X43937Y45000D02*
D03*
X40000D02*
D03*
X41969D02*
D03*
X61654D02*
D03*
X59685D02*
D03*
X57717D02*
D03*
X55748D02*
D03*
X53780D02*
D03*
X51811D02*
D03*
X49843D02*
D03*
X47874D02*
D03*
X45906D02*
D03*
X40000Y78268D02*
D03*
X41969D02*
D03*
X43937D02*
D03*
X45906D02*
D03*
X47874D02*
D03*
X49843D02*
D03*
X51811D02*
D03*
X53780D02*
D03*
X55748D02*
D03*
X57717D02*
D03*
X59685D02*
D03*
X61654D02*
D03*
D26*
X140000Y40000D02*
D03*
X131500D02*
D03*
X140000Y52500D02*
D03*
X131500D02*
D03*
D27*
X142500Y15000D02*
D03*
X111004D02*
D03*
D28*
X131870Y25630D02*
D03*
X129311D02*
D03*
X126752D02*
D03*
X124193D02*
D03*
X121634D02*
D03*
D29*
X161969Y33445D02*
D03*
Y42500D02*
D03*
Y51555D02*
D03*
D30*
X185000Y42500D02*
D03*
D31*
X173721Y68169D02*
D03*
D32*
X187500Y63839D02*
D03*
Y72500D02*
D03*
D33*
X109000Y82500D02*
D03*
Y114500D02*
D03*
X88000Y107500D02*
D03*
Y89500D02*
D03*
X109000D02*
D03*
X88000Y82500D02*
D03*
X109000Y107500D02*
D03*
X88000Y114500D02*
D03*
D34*
X144648Y33000D02*
X146648Y31000D01*
X133814Y33000D02*
X144648D01*
X146648Y31000D02*
X147500D01*
X153000Y25500D01*
X170500D01*
X131799Y35015D02*
X133814Y33000D01*
X131799Y35015D02*
Y39701D01*
X131500Y40000D02*
X131799Y39701D01*
X170500Y25500D02*
X173500Y28500D01*
Y47000D01*
X168945Y51555D02*
X173500Y47000D01*
X161969Y51555D02*
X168945D01*
%TF.MD5,c0625a8225e2079b933f46dccc4a8a4a*%
M02*
