%TF.GenerationSoftware,Altium Limited,Altium Designer,21.2.1 (34)*%
G04 Layer_Color=26472*
%FSLAX25Y25*%
%MOIN*%
%TF.SameCoordinates,9F7D5B0E-9DD4-4BF0-BF89-A6B7BC673C6C*%
%TF.FilePolarity,Positive*%
%TF.FileFunction,Legend,Bot*%
%TF.Part,Single*%
G01*
G75*
%TA.AperFunction,NonConductor*%
%ADD35C,0.01000*%
%ADD36C,0.01008*%
%ADD37C,0.02000*%
%ADD38C,0.00984*%
%ADD39C,0.00600*%
%ADD40C,0.00591*%
%ADD41C,0.00787*%
%ADD42C,0.00799*%
%ADD43C,0.00800*%
%ADD44C,0.01181*%
G36*
X63032Y49429D02*
X60669Y49429D01*
X63032Y51791D01*
X63032Y49429D01*
D02*
G37*
D35*
X117185Y162500D02*
G03*
X117185Y162500I-19685J0D01*
G01*
X191437Y103252D02*
Y111126D01*
X177657Y95378D02*
X181595D01*
X167815Y103252D02*
Y111126D01*
X177657Y119000D02*
X181595D01*
X191437Y144252D02*
Y152126D01*
X177657Y136378D02*
X181595D01*
X167815Y144252D02*
Y152126D01*
X177657Y160000D02*
X181595D01*
X110216Y30354D02*
X143287D01*
X110216Y20512D02*
Y30354D01*
X143287Y20512D02*
Y30354D01*
X110216Y2008D02*
Y9488D01*
X143287Y2008D02*
Y9488D01*
X110216Y2008D02*
X143287D01*
X110216Y3583D02*
X143287D01*
D36*
X53701Y21000D02*
G03*
X53701Y9000I0J-6000D01*
G01*
X75701D02*
G03*
X75701Y21000I0J6000D01*
G01*
X53701D02*
X75701D01*
X53701Y9000D02*
X75701D01*
D37*
X138760Y25630D02*
G03*
X138760Y25630I-984J0D01*
G01*
D38*
X162461Y29311D02*
G03*
X162461Y29311I-492J0D01*
G01*
X66024Y44902D02*
G03*
X66024Y44902I-433J0D01*
G01*
D39*
X35591Y173056D02*
Y175906D01*
X31653D02*
X35591D01*
Y164094D02*
Y166944D01*
X31653Y164094D02*
X35591D01*
X131532Y88039D02*
X134381D01*
X131532Y84102D02*
Y88039D01*
X140493D02*
X143342D01*
Y84102D02*
Y88039D01*
X54090Y102056D02*
Y104905D01*
X50153D02*
X54090D01*
Y93094D02*
Y95944D01*
X50153Y93094D02*
X54090D01*
X140556Y109409D02*
X143405D01*
Y113347D01*
X131595Y109409D02*
X134444D01*
X131595D02*
Y113347D01*
X63090Y135556D02*
Y138406D01*
X59153D02*
X63090D01*
Y126594D02*
Y129444D01*
X59153Y126594D02*
X63090D01*
X60039Y90800D02*
X71595D01*
X60039Y85200D02*
Y90800D01*
Y85200D02*
X71595D01*
Y90800D01*
X128700Y125539D02*
Y137094D01*
Y125539D02*
X134300D01*
Y137094D01*
X128700D02*
X134300D01*
X61594Y27200D02*
Y32800D01*
X50039Y27200D02*
X61594D01*
X50039D02*
Y32800D01*
X61594D01*
X25300Y65000D02*
Y76555D01*
X19700D02*
X25300D01*
X19700Y65000D02*
Y76555D01*
Y65000D02*
X25300D01*
X15000Y149700D02*
X26555D01*
Y155300D01*
X15000D02*
X26555D01*
X15000Y149700D02*
Y155300D01*
X157200Y160039D02*
Y171595D01*
Y160039D02*
X162800D01*
Y171595D01*
X157200D02*
X162800D01*
X94095Y49700D02*
Y55300D01*
X82539Y49700D02*
X94095D01*
X82539D02*
Y55300D01*
X94095D01*
Y39700D02*
Y45300D01*
X82539Y39700D02*
X94095D01*
X82539D02*
Y45300D01*
X94095D01*
X67500Y27200D02*
Y32800D01*
X79055D01*
Y27200D02*
Y32800D01*
X67500Y27200D02*
X79055D01*
X57539Y155300D02*
X69095D01*
X57539Y149700D02*
Y155300D01*
Y149700D02*
X69095D01*
Y155300D01*
X157200Y93445D02*
Y105000D01*
Y93445D02*
X162800D01*
Y105000D01*
X157200D02*
X162800D01*
X140905Y174700D02*
Y180300D01*
X152461D01*
Y174700D02*
Y180300D01*
X140905Y174700D02*
X152461D01*
X161094Y77200D02*
Y82800D01*
X149539Y77200D02*
X161094D01*
X149539D02*
Y82800D01*
X161094D01*
X150300Y60905D02*
Y72461D01*
X144700D02*
X150300D01*
X144700Y60905D02*
Y72461D01*
Y60905D02*
X150300D01*
X33406Y122200D02*
X44961D01*
Y127800D01*
X33406D02*
X44961D01*
X33406Y122200D02*
Y127800D01*
D40*
X82500Y59200D02*
X94055D01*
Y64800D01*
X82500D02*
X94055D01*
X82500Y59200D02*
Y64800D01*
X28405Y92200D02*
X39961D01*
Y97800D01*
X28405D02*
X39961D01*
X28405Y92200D02*
Y97800D01*
X178840Y71451D02*
Y73287D01*
X181595D01*
Y71451D01*
X180217Y73287D02*
Y72369D01*
X178840Y70532D02*
X180676D01*
X181595Y69614D01*
X180676Y68696D01*
X178840D01*
X181595Y67777D02*
X178840D01*
X179758Y66859D01*
X178840Y65941D01*
X181595D01*
X179299Y65022D02*
X178840Y64563D01*
Y63645D01*
X179299Y63186D01*
X179758D01*
X180217Y63645D01*
Y64104D01*
Y63645D01*
X180676Y63186D01*
X181135D01*
X181595Y63645D01*
Y64563D01*
X181135Y65022D01*
D41*
X115600Y74400D02*
X137900D01*
X115600Y64600D02*
Y74400D01*
Y64600D02*
X137900D01*
Y74400D01*
X147400Y127600D02*
Y149900D01*
X137600D02*
X147400D01*
X137600Y127600D02*
Y149900D01*
Y127600D02*
X147400D01*
X52400Y51791D02*
X48858D01*
Y54153D01*
X49449Y57695D02*
X51810D01*
X52400Y57105D01*
Y55924D01*
X51810Y55334D01*
X49449D01*
X48858Y55924D01*
Y57105D01*
X50039Y56514D02*
X48858Y57695D01*
Y57105D02*
X49449Y57695D01*
X52400Y61237D02*
Y58876D01*
X50629D01*
Y60056D01*
Y58876D01*
X48858D01*
Y62418D02*
X52400D01*
Y64189D01*
X51810Y64779D01*
X50629D01*
X50039Y64189D01*
Y62418D01*
X48858Y67731D02*
X52400D01*
X50629Y65960D01*
Y68321D01*
X51810Y69502D02*
X52400Y70092D01*
Y71273D01*
X51810Y71864D01*
X51220D01*
X50629Y71273D01*
X50039Y71864D01*
X49449D01*
X48858Y71273D01*
Y70092D01*
X49449Y69502D01*
X50039D01*
X50629Y70092D01*
X51220Y69502D01*
X51810D01*
X50629Y70092D02*
Y71273D01*
X141500Y5500D02*
Y9436D01*
X140188Y8124D01*
X138876Y9436D01*
Y5500D01*
X137564D02*
X136252D01*
X136908D01*
Y8124D01*
X137564D01*
X131661D02*
X133628D01*
X134284Y7468D01*
Y6156D01*
X133628Y5500D01*
X131661D01*
X130349Y8124D02*
Y5500D01*
Y6812D01*
X129693Y7468D01*
X129037Y8124D01*
X128381D01*
X125757Y5500D02*
X124445D01*
X123789Y6156D01*
Y7468D01*
X124445Y8124D01*
X125757D01*
X126413Y7468D01*
Y6156D01*
X125757Y5500D01*
X122477Y9436D02*
Y6156D01*
X121821Y5500D01*
X120509D01*
X119853Y6156D01*
Y9436D01*
X115918Y8780D02*
X116574Y9436D01*
X117886D01*
X118542Y8780D01*
Y8124D01*
X117886Y7468D01*
X116574D01*
X115918Y6812D01*
Y6156D01*
X116574Y5500D01*
X117886D01*
X118542Y6156D01*
X114606Y9436D02*
Y5500D01*
X112638D01*
X111982Y6156D01*
Y6812D01*
X112638Y7468D01*
X114606D01*
X112638D01*
X111982Y8124D01*
Y8780D01*
X112638Y9436D01*
X114606D01*
X172204Y50876D02*
X171548Y51532D01*
Y52844D01*
X172204Y53500D01*
X172860D01*
X173516Y52844D01*
Y51532D01*
X174172Y50876D01*
X174828D01*
X175484Y51532D01*
Y52844D01*
X174828Y53500D01*
X171548Y47596D02*
Y48908D01*
X172204Y49564D01*
X174828D01*
X175484Y48908D01*
Y47596D01*
X174828Y46940D01*
X172204D01*
X171548Y47596D01*
Y45628D02*
Y43005D01*
Y44317D01*
X175484D01*
Y39069D02*
Y41693D01*
X172860Y39069D01*
X172204D01*
X171548Y39725D01*
Y41037D01*
X172204Y41693D01*
X175484Y35133D02*
Y37757D01*
X172860Y35133D01*
X172204D01*
X171548Y35789D01*
Y37101D01*
X172204Y37757D01*
Y33821D02*
X171548Y33165D01*
Y31853D01*
X172204Y31198D01*
X172860D01*
X173516Y31853D01*
Y32509D01*
Y31853D01*
X174172Y31198D01*
X174828D01*
X175484Y31853D01*
Y33165D01*
X174828Y33821D01*
X163812Y112376D02*
X164468Y111720D01*
Y110408D01*
X163812Y109752D01*
X163156D01*
X162500Y110408D01*
Y111720D01*
X161844Y112376D01*
X161188D01*
X160532Y111720D01*
Y110408D01*
X161188Y109752D01*
X164468Y113688D02*
X160532D01*
X161844Y115000D01*
X160532Y116312D01*
X164468D01*
X160532Y120248D02*
Y117624D01*
X163156Y120248D01*
X163812D01*
X164468Y119592D01*
Y118280D01*
X163812Y117624D01*
X163812Y145532D02*
X164468Y144876D01*
Y143564D01*
X163812Y142908D01*
X163156D01*
X162500Y143564D01*
Y144876D01*
X161844Y145532D01*
X161188D01*
X160532Y144876D01*
Y143564D01*
X161188Y142908D01*
X164468Y146844D02*
X160532D01*
X161844Y148156D01*
X160532Y149468D01*
X164468D01*
X160532Y150780D02*
Y152092D01*
Y151436D01*
X164468D01*
X163812Y150780D01*
X16264Y103032D02*
Y106968D01*
X14296D01*
X13640Y106312D01*
Y105000D01*
X14296Y104344D01*
X16264D01*
X14952D02*
X13640Y103032D01*
X12328D02*
X11016D01*
X11672D01*
Y106968D01*
X12328Y106312D01*
X9048Y103032D02*
X7736D01*
X8392D01*
Y106968D01*
X9048Y106312D01*
X55656Y88812D02*
X56312Y89468D01*
X57624D01*
X58280Y88812D01*
Y86188D01*
X57624Y85532D01*
X56312D01*
X55656Y86188D01*
X54344Y89468D02*
X51720D01*
Y88812D01*
X54344Y86188D01*
Y85532D01*
X123032Y127376D02*
X126968D01*
Y129344D01*
X126312Y130000D01*
X125000D01*
X124344Y129344D01*
Y127376D01*
Y128688D02*
X123032Y130000D01*
Y131312D02*
Y132624D01*
Y131968D01*
X126968D01*
X126312Y131312D01*
X26280Y93032D02*
Y96968D01*
X24312D01*
X23656Y96312D01*
Y95000D01*
X24312Y94344D01*
X26280D01*
X24968D02*
X23656Y93032D01*
X22344Y93688D02*
X21688Y93032D01*
X20376D01*
X19720Y93688D01*
Y96312D01*
X20376Y96968D01*
X21688D01*
X22344Y96312D01*
Y95656D01*
X21688Y95000D01*
X19720D01*
X55248Y111468D02*
Y108844D01*
X53936Y107532D01*
X52624Y108844D01*
Y111468D01*
X51312D02*
X48688D01*
X50000D01*
Y107532D01*
X45408D02*
Y111468D01*
X47376Y109500D01*
X44752D01*
X45296Y31312D02*
X45952Y31968D01*
X47264D01*
X47920Y31312D01*
Y28688D01*
X47264Y28032D01*
X45952D01*
X45296Y28688D01*
X43984Y28032D02*
X42672D01*
X43328D01*
Y31968D01*
X43984Y31312D01*
X40704D02*
X40048Y31968D01*
X38736D01*
X38080Y31312D01*
Y28688D01*
X38736Y28032D01*
X40048D01*
X40704Y28688D01*
Y31312D01*
X93092Y16968D02*
X90468D01*
Y16312D01*
X93092Y13688D01*
Y13032D01*
X90468D01*
X86532Y13688D02*
Y16312D01*
X87188Y16968D01*
X88500D01*
X89156Y16312D01*
Y13688D01*
X88500Y13032D01*
X87188D01*
X87844Y14344D02*
X86532Y13032D01*
X87188D02*
X86532Y13688D01*
X85220Y13032D02*
X83908D01*
X84564D01*
Y16968D01*
X85220Y16312D01*
X52248Y171968D02*
Y169344D01*
X50936Y168032D01*
X49624Y169344D01*
Y171968D01*
X48312D02*
X45688D01*
X47000D01*
Y168032D01*
X41752Y171968D02*
X44376D01*
Y170000D01*
X43064Y170656D01*
X42408D01*
X41752Y170000D01*
Y168688D01*
X42408Y168032D01*
X43720D01*
X44376Y168688D01*
X129468Y79752D02*
X126844D01*
X125532Y81064D01*
X126844Y82376D01*
X129468D01*
Y83688D02*
Y86312D01*
Y85000D01*
X125532D01*
X128812Y87624D02*
X129468Y88280D01*
Y89592D01*
X128812Y90248D01*
X128156D01*
X127500Y89592D01*
Y88936D01*
Y89592D01*
X126844Y90248D01*
X126188D01*
X125532Y89592D01*
Y88280D01*
X126188Y87624D01*
X129468Y110408D02*
X126844D01*
X125532Y111720D01*
X126844Y113032D01*
X129468D01*
Y114344D02*
Y116968D01*
Y115656D01*
X125532D01*
Y118280D02*
Y119592D01*
Y118936D01*
X129468D01*
X128812Y118280D01*
X65248Y144468D02*
Y141844D01*
X63936Y140532D01*
X62624Y141844D01*
Y144468D01*
X61312D02*
X58688D01*
X60000D01*
Y140532D01*
X54752D02*
X57376D01*
X54752Y143156D01*
Y143812D01*
X55408Y144468D01*
X56720D01*
X57376Y143812D01*
X172624Y26968D02*
Y23688D01*
X171968Y23032D01*
X170656D01*
X170000Y23688D01*
Y26968D01*
X168688Y23032D02*
X167376D01*
X168032D01*
Y26968D01*
X168688Y26312D01*
X38420Y150532D02*
Y154468D01*
X36452D01*
X35796Y153812D01*
Y152500D01*
X36452Y151844D01*
X38420D01*
X37108D02*
X35796Y150532D01*
X34484D02*
X33172D01*
X33828D01*
Y154468D01*
X34484Y153812D01*
X29236Y150532D02*
Y154468D01*
X31204Y152500D01*
X28580D01*
X150532Y95080D02*
X154468D01*
Y97048D01*
X153812Y97704D01*
X152500D01*
X151844Y97048D01*
Y95080D01*
Y96392D02*
X150532Y97704D01*
Y99016D02*
Y100328D01*
Y99672D01*
X154468D01*
X153812Y99016D01*
Y102296D02*
X154468Y102952D01*
Y104264D01*
X153812Y104920D01*
X153156D01*
X152500Y104264D01*
Y103608D01*
Y104264D01*
X151844Y104920D01*
X151188D01*
X150532Y104264D01*
Y102952D01*
X151188Y102296D01*
X150532Y160080D02*
X154468D01*
Y162048D01*
X153812Y162704D01*
X152500D01*
X151844Y162048D01*
Y160080D01*
Y161392D02*
X150532Y162704D01*
Y164016D02*
Y165328D01*
Y164672D01*
X154468D01*
X153812Y164016D01*
X150532Y169920D02*
Y167296D01*
X153156Y169920D01*
X153812D01*
X154468Y169264D01*
Y167952D01*
X153812Y167296D01*
X67420Y158032D02*
Y161968D01*
X65452D01*
X64796Y161312D01*
Y160000D01*
X65452Y159344D01*
X67420D01*
X66108D02*
X64796Y158032D01*
X63484D02*
X62172D01*
X62828D01*
Y161968D01*
X63484Y161312D01*
X60204D02*
X59548Y161968D01*
X58236D01*
X57580Y161312D01*
Y158688D01*
X58236Y158032D01*
X59548D01*
X60204Y158688D01*
Y161312D01*
X153032Y61720D02*
X156968D01*
Y63688D01*
X156312Y64344D01*
X155000D01*
X154344Y63688D01*
Y61720D01*
Y63032D02*
X153032Y64344D01*
X156968Y68280D02*
X156312Y66968D01*
X155000Y65656D01*
X153688D01*
X153032Y66312D01*
Y67624D01*
X153688Y68280D01*
X154344D01*
X155000Y67624D01*
Y65656D01*
X102780Y60032D02*
Y63968D01*
X100812D01*
X100156Y63312D01*
Y62000D01*
X100812Y61344D01*
X102780D01*
X101468D02*
X100156Y60032D01*
X98844Y63312D02*
X98188Y63968D01*
X96876D01*
X96220Y63312D01*
Y62656D01*
X96876Y62000D01*
X96220Y61344D01*
Y60688D01*
X96876Y60032D01*
X98188D01*
X98844Y60688D01*
Y61344D01*
X98188Y62000D01*
X98844Y62656D01*
Y63312D01*
X98188Y62000D02*
X96876D01*
X113780Y67032D02*
Y70968D01*
X111812D01*
X111156Y70312D01*
Y69000D01*
X111812Y68344D01*
X113780D01*
X112468D02*
X111156Y67032D01*
X109844Y70968D02*
X107220D01*
Y70312D01*
X109844Y67688D01*
Y67032D01*
X180780Y78032D02*
Y81968D01*
X178812D01*
X178156Y81312D01*
Y80000D01*
X178812Y79344D01*
X180780D01*
X179468D02*
X178156Y78032D01*
X174220Y81968D02*
X176844D01*
Y80000D01*
X175532Y80656D01*
X174876D01*
X174220Y80000D01*
Y78688D01*
X174876Y78032D01*
X176188D01*
X176844Y78688D01*
X145780Y152032D02*
Y155968D01*
X143812D01*
X143156Y155312D01*
Y154000D01*
X143812Y153344D01*
X145780D01*
X144468D02*
X143156Y152032D01*
X139220D02*
X141844D01*
X139220Y154656D01*
Y155312D01*
X139876Y155968D01*
X141188D01*
X141844Y155312D01*
X21780Y135532D02*
Y139468D01*
X19812D01*
X19156Y138812D01*
Y137500D01*
X19812Y136844D01*
X21780D01*
X20468D02*
X19156Y135532D01*
X15876D02*
Y139468D01*
X17844Y137500D01*
X15220D01*
X31280Y123032D02*
Y126968D01*
X29312D01*
X28656Y126312D01*
Y125000D01*
X29312Y124344D01*
X31280D01*
X29968D02*
X28656Y123032D01*
X27344Y126312D02*
X26688Y126968D01*
X25376D01*
X24720Y126312D01*
Y125656D01*
X25376Y125000D01*
X26032D01*
X25376D01*
X24720Y124344D01*
Y123688D01*
X25376Y123032D01*
X26688D01*
X27344Y123688D01*
X100156Y53812D02*
X100812Y54468D01*
X102124D01*
X102780Y53812D01*
Y51188D01*
X102124Y50532D01*
X100812D01*
X100156Y51188D01*
X98844D02*
X98188Y50532D01*
X96876D01*
X96220Y51188D01*
Y53812D01*
X96876Y54468D01*
X98188D01*
X98844Y53812D01*
Y53156D01*
X98188Y52500D01*
X96220D01*
X99656Y43812D02*
X100312Y44468D01*
X101624D01*
X102280Y43812D01*
Y41188D01*
X101624Y40532D01*
X100312D01*
X99656Y41188D01*
X98344Y43812D02*
X97688Y44468D01*
X96376D01*
X95720Y43812D01*
Y43156D01*
X96376Y42500D01*
X95720Y41844D01*
Y41188D01*
X96376Y40532D01*
X97688D01*
X98344Y41188D01*
Y41844D01*
X97688Y42500D01*
X98344Y43156D01*
Y43812D01*
X97688Y42500D02*
X96376D01*
X23156Y81812D02*
X23812Y82468D01*
X25124D01*
X25780Y81812D01*
Y79188D01*
X25124Y78532D01*
X23812D01*
X23156Y79188D01*
X19220Y82468D02*
X20532Y81812D01*
X21844Y80500D01*
Y79188D01*
X21188Y78532D01*
X19876D01*
X19220Y79188D01*
Y79844D01*
X19876Y80500D01*
X21844D01*
X85156Y31312D02*
X85812Y31968D01*
X87124D01*
X87780Y31312D01*
Y28688D01*
X87124Y28032D01*
X85812D01*
X85156Y28688D01*
X81220Y31968D02*
X83844D01*
Y30000D01*
X82532Y30656D01*
X81876D01*
X81220Y30000D01*
Y28688D01*
X81876Y28032D01*
X83188D01*
X83844Y28688D01*
X149656Y41812D02*
X150312Y42468D01*
X151624D01*
X152280Y41812D01*
Y39188D01*
X151624Y38532D01*
X150312D01*
X149656Y39188D01*
X146376Y38532D02*
Y42468D01*
X148344Y40500D01*
X145720D01*
X149656Y53812D02*
X150312Y54468D01*
X151624D01*
X152280Y53812D01*
Y51188D01*
X151624Y50532D01*
X150312D01*
X149656Y51188D01*
X148344Y53812D02*
X147688Y54468D01*
X146376D01*
X145720Y53812D01*
Y53156D01*
X146376Y52500D01*
X147032D01*
X146376D01*
X145720Y51844D01*
Y51188D01*
X146376Y50532D01*
X147688D01*
X148344Y51188D01*
X158156Y88812D02*
X158812Y89468D01*
X160124D01*
X160780Y88812D01*
Y86188D01*
X160124Y85532D01*
X158812D01*
X158156Y86188D01*
X154220Y85532D02*
X156844D01*
X154220Y88156D01*
Y88812D01*
X154876Y89468D01*
X156188D01*
X156844Y88812D01*
X136000Y178812D02*
X136656Y179468D01*
X137968D01*
X138624Y178812D01*
Y176188D01*
X137968Y175532D01*
X136656D01*
X136000Y176188D01*
X134688Y175532D02*
X133376D01*
X134032D01*
Y179468D01*
X134688Y178812D01*
X104060Y139468D02*
Y135532D01*
X102092D01*
X101436Y136188D01*
Y136844D01*
X102092Y137500D01*
X104060D01*
X102092D01*
X101436Y138156D01*
Y138812D01*
X102092Y139468D01*
X104060D01*
X100124D02*
Y136188D01*
X99468Y135532D01*
X98156D01*
X97500Y136188D01*
Y139468D01*
X96188D02*
X93564D01*
Y138812D01*
X96188Y136188D01*
Y135532D01*
X93564D01*
X92252D02*
X90940D01*
X91596D01*
Y139468D01*
X92252Y138812D01*
D42*
X41000Y100500D02*
Y110500D01*
X18500Y100500D02*
X41000D01*
X18500D02*
Y110500D01*
X41000D01*
X143300Y36300D02*
Y43700D01*
X128200Y36300D02*
X143300D01*
X128200D02*
Y43700D01*
X143300D01*
Y48800D02*
Y56200D01*
X128200Y48800D02*
X143300D01*
X128200D02*
Y56200D01*
X143300D01*
X47000Y132500D02*
Y142500D01*
X24500Y132500D02*
X47000D01*
X24500D02*
Y142500D01*
X47000D01*
X38622Y49429D02*
X63032D01*
X38622Y73839D02*
X63032D01*
Y49429D02*
Y73839D01*
X38622Y49429D02*
Y73839D01*
D43*
X167382Y29311D02*
X179587D01*
X167382Y55689D02*
X179587D01*
Y29311D02*
X180984D01*
Y34500D01*
Y50500D02*
Y55689D01*
X179587D02*
X180984D01*
X173721Y72500D02*
Y74468D01*
Y61870D02*
Y63839D01*
Y74468D02*
X183957D01*
X173721Y61870D02*
X183957D01*
X187500Y67382D02*
Y68957D01*
D44*
X181762Y111126D02*
Y114125D01*
Y112626D01*
X177264D01*
X181762Y106402D02*
X178014D01*
X177264Y107151D01*
Y108651D01*
X178014Y109401D01*
X181762D01*
Y101284D02*
X177264D01*
Y103533D01*
X178014Y104282D01*
X178763D01*
X179513Y103533D01*
Y101284D01*
Y103533D01*
X180263Y104282D01*
X181013D01*
X181762Y103533D01*
Y101284D01*
Y152126D02*
Y155125D01*
Y153626D01*
X177264D01*
X181762Y147402D02*
X178014D01*
X177264Y148151D01*
Y149651D01*
X178014Y150401D01*
X181762D01*
Y142283D02*
X177264D01*
Y144533D01*
X178014Y145282D01*
X178763D01*
X179513Y144533D01*
Y142283D01*
Y144533D01*
X180263Y145282D01*
X181013D01*
X181762Y144533D01*
Y142283D01*
%TF.MD5,1b2f42e8174d49d7667e063be073a93f*%
M02*
