%TF.GenerationSoftware,Altium Limited,Altium Designer,21.2.1 (34)*%
G04 Layer_Physical_Order=1*
G04 Layer_Color=6711008*
%FSLAX25Y25*%
%MOIN*%
%TF.SameCoordinates,9F7D5B0E-9DD4-4BF0-BF89-A6B7BC673C6C*%
%TF.FilePolarity,Positive*%
%TF.FileFunction,Copper,L1,Top,Signal*%
%TF.Part,Single*%
G01*
G75*
%TA.AperFunction,Conductor*%
%ADD10C,0.01181*%
%ADD11C,0.01968*%
%TA.AperFunction,ComponentPad*%
%ADD12O,0.07874X0.09843*%
%ADD13R,0.07874X0.07874*%
%ADD14C,0.07874*%
%ADD15C,0.05906*%
%TA.AperFunction,ViaPad*%
%ADD16C,0.07874*%
%ADD17C,0.05906*%
D10*
X132000Y153000D02*
X156000D01*
X163500Y63839D02*
Y90000D01*
X123500Y39500D02*
Y54000D01*
X99000Y33500D02*
Y54000D01*
X30994Y119939D02*
X31000Y119946D01*
X30994Y83494D02*
Y119939D01*
X46112Y36000D02*
X46331Y36219D01*
X156500Y17000D02*
Y72500D01*
X115000Y34669D02*
Y56861D01*
X124000Y78500D02*
Y98500D01*
X77000Y38500D02*
Y65000D01*
X51000Y121500D02*
Y188000D01*
X52985Y87444D02*
X53000Y87458D01*
Y114500D01*
X68500Y80000D02*
Y124500D01*
X62000Y118000D02*
Y188000D01*
X39500Y118000D02*
Y188000D01*
X74500Y74500D02*
Y106000D01*
X11000Y77062D02*
X11031Y77031D01*
X11000Y77062D02*
Y114500D01*
D11*
X24500Y62000D02*
Y116500D01*
X124000Y114000D02*
X158000D01*
X41000Y28000D02*
X85000D01*
X20000Y36000D02*
X46112D01*
X16500Y43000D02*
Y62000D01*
X109000Y27000D02*
Y79000D01*
X116000Y139500D02*
X154000D01*
X147500Y31000D02*
Y90500D01*
D12*
X187500Y118213D02*
D03*
X171752D02*
D03*
Y96165D02*
D03*
X187500D02*
D03*
Y159213D02*
D03*
X171752D02*
D03*
Y137165D02*
D03*
X187500D02*
D03*
D13*
X107500Y162500D02*
D03*
D14*
X87500D02*
D03*
D15*
X73716Y15000D02*
D03*
X56000D02*
D03*
D16*
X11811Y185039D02*
D03*
X185039D02*
D03*
Y11811D02*
D03*
X11811D02*
D03*
X73000Y188000D02*
D03*
X85000D02*
D03*
X51000D02*
D03*
X62000D02*
D03*
X39500D02*
D03*
D17*
X132000Y153000D02*
D03*
X163500Y63839D02*
D03*
Y90000D02*
D03*
X156000Y153000D02*
D03*
X123500Y54000D02*
D03*
Y39500D02*
D03*
X99000Y33500D02*
D03*
Y54000D02*
D03*
X30994Y83494D02*
D03*
X31000Y119946D02*
D03*
X24500Y116500D02*
D03*
Y62000D02*
D03*
X124000Y114000D02*
D03*
X158000D02*
D03*
X41000Y28000D02*
D03*
X85000D02*
D03*
X20000Y36000D02*
D03*
X46331Y36219D02*
D03*
X16500Y43000D02*
D03*
Y62000D02*
D03*
X156500Y17000D02*
D03*
Y72500D02*
D03*
X109000Y79000D02*
D03*
X116000Y139500D02*
D03*
X115000Y34669D02*
D03*
Y56861D02*
D03*
X109000Y27000D02*
D03*
X124000Y78500D02*
D03*
X77000Y38500D02*
D03*
Y65000D02*
D03*
X51000Y121500D02*
D03*
X53000Y114500D02*
D03*
X68500Y124500D02*
D03*
Y80000D02*
D03*
X62000Y118000D02*
D03*
X39500D02*
D03*
X74500Y106000D02*
D03*
Y74500D02*
D03*
X52985Y87444D02*
D03*
X147500Y31000D02*
D03*
Y90500D02*
D03*
X154000Y139500D02*
D03*
X11031Y77031D02*
D03*
X11000Y114500D02*
D03*
X124000Y98500D02*
D03*
%TF.MD5,20bd315b0cb90aaa43a16d885cd616aa*%
M02*
