%TF.GenerationSoftware,Altium Limited,Altium Designer,21.2.1 (34)*%
G04 Layer_Color=255*
%FSLAX25Y25*%
%MOIN*%
%TF.SameCoordinates,9F7D5B0E-9DD4-4BF0-BF89-A6B7BC673C6C*%
%TF.FilePolarity,Positive*%
%TF.FileFunction,Pads,Bot*%
%TF.Part,Single*%
G01*
G75*
%TA.AperFunction,ComponentPad*%
%ADD12O,0.07874X0.09843*%
%ADD13R,0.07874X0.07874*%
%ADD14C,0.07874*%
%ADD15C,0.05906*%
%TA.AperFunction,ViaPad*%
%ADD16C,0.07874*%
%TA.AperFunction,SMDPad,CuDef*%
%ADD18R,0.03740X0.03150*%
%ADD19R,0.03150X0.03740*%
%ADD20R,0.03150X0.03937*%
%ADD21R,0.06000X0.07000*%
%ADD22R,0.07000X0.06000*%
%ADD23R,0.05906X0.01181*%
%ADD24R,0.03937X0.03150*%
%ADD25R,0.01181X0.05906*%
%ADD26R,0.04500X0.05400*%
%ADD27R,0.07874X0.07874*%
%ADD28R,0.01575X0.05512*%
%ADD29R,0.08465X0.03937*%
%ADD30R,0.08465X0.12992*%
%ADD31R,0.06299X0.06299*%
%ADD32R,0.04724X0.04724*%
%ADD33R,0.09843X0.03937*%
D12*
X187500Y118213D02*
D03*
X171752D02*
D03*
Y96165D02*
D03*
X187500D02*
D03*
Y159213D02*
D03*
X171752D02*
D03*
Y137165D02*
D03*
X187500D02*
D03*
D13*
X107500Y162500D02*
D03*
D14*
X87500D02*
D03*
D15*
X73716Y15000D02*
D03*
X56000D02*
D03*
D16*
X11811Y185039D02*
D03*
X185039D02*
D03*
Y11811D02*
D03*
X11811D02*
D03*
D18*
X37500Y170000D02*
D03*
X28051Y173937D02*
D03*
Y166063D02*
D03*
X56000Y99000D02*
D03*
X46551Y102937D02*
D03*
Y95063D02*
D03*
X65000Y132500D02*
D03*
X55551Y136437D02*
D03*
Y128563D02*
D03*
D19*
X137437Y89949D02*
D03*
X133500Y80500D02*
D03*
X141374D02*
D03*
X137500Y107500D02*
D03*
X141437Y116949D02*
D03*
X133563D02*
D03*
D20*
X91594Y62000D02*
D03*
X85000D02*
D03*
X37500Y95000D02*
D03*
X30906D02*
D03*
X42500Y125000D02*
D03*
X24094Y152500D02*
D03*
X35906Y125000D02*
D03*
X62500Y88000D02*
D03*
X69095D02*
D03*
X59095Y30000D02*
D03*
X52500D02*
D03*
X17500Y152500D02*
D03*
X91594Y52500D02*
D03*
X85000D02*
D03*
X91594Y42500D02*
D03*
X85000D02*
D03*
X70000Y30000D02*
D03*
X76595D02*
D03*
X60000Y152500D02*
D03*
X66594D02*
D03*
X143405Y177500D02*
D03*
X150000D02*
D03*
X158595Y80000D02*
D03*
X152000D02*
D03*
D21*
X120000Y69500D02*
D03*
X133500D02*
D03*
X23000Y105500D02*
D03*
X36500D02*
D03*
X42500Y137500D02*
D03*
X29000D02*
D03*
D22*
X142500Y145500D02*
D03*
Y132000D02*
D03*
D23*
X67461Y58681D02*
D03*
X34193Y50807D02*
D03*
Y52776D02*
D03*
Y54744D02*
D03*
Y56713D02*
D03*
Y58681D02*
D03*
Y60650D02*
D03*
Y62618D02*
D03*
Y64587D02*
D03*
Y66555D02*
D03*
Y68524D02*
D03*
Y70492D02*
D03*
Y72461D02*
D03*
X67461D02*
D03*
Y70492D02*
D03*
Y68524D02*
D03*
Y66555D02*
D03*
Y64587D02*
D03*
Y62618D02*
D03*
Y60650D02*
D03*
Y56713D02*
D03*
Y54744D02*
D03*
Y52776D02*
D03*
Y50807D02*
D03*
D24*
X131500Y134595D02*
D03*
X147500Y70000D02*
D03*
Y63406D02*
D03*
X131500Y128000D02*
D03*
X22500Y74094D02*
D03*
Y67500D02*
D03*
X160000Y162500D02*
D03*
Y169095D02*
D03*
Y95906D02*
D03*
Y102500D02*
D03*
D25*
X43937Y45000D02*
D03*
X40000D02*
D03*
X41969D02*
D03*
X61654D02*
D03*
X59685D02*
D03*
X57717D02*
D03*
X55748D02*
D03*
X53780D02*
D03*
X51811D02*
D03*
X49843D02*
D03*
X47874D02*
D03*
X45906D02*
D03*
X40000Y78268D02*
D03*
X41969D02*
D03*
X43937D02*
D03*
X45906D02*
D03*
X47874D02*
D03*
X49843D02*
D03*
X51811D02*
D03*
X53780D02*
D03*
X55748D02*
D03*
X57717D02*
D03*
X59685D02*
D03*
X61654D02*
D03*
D26*
X140000Y40000D02*
D03*
X131500D02*
D03*
X140000Y52500D02*
D03*
X131500D02*
D03*
D27*
X142500Y15000D02*
D03*
X111004D02*
D03*
D28*
X131870Y25630D02*
D03*
X129311D02*
D03*
X126752D02*
D03*
X124193D02*
D03*
X121634D02*
D03*
D29*
X161969Y33445D02*
D03*
Y42500D02*
D03*
Y51555D02*
D03*
D30*
X185000Y42500D02*
D03*
D31*
X173721Y68169D02*
D03*
D32*
X187500Y63839D02*
D03*
Y72500D02*
D03*
D33*
X109000Y82500D02*
D03*
Y114500D02*
D03*
X88000Y107500D02*
D03*
Y89500D02*
D03*
X109000D02*
D03*
X88000Y82500D02*
D03*
X109000Y107500D02*
D03*
X88000Y114500D02*
D03*
%TF.MD5,d5f35944348e9a52c2019f4e3c1438f6*%
M02*
