%TF.GenerationSoftware,Altium Limited,Altium Designer,21.2.1 (34)*%
G04 Layer_Color=0*
%FSLAX25Y25*%
%MOIN*%
%TF.SameCoordinates,9F7D5B0E-9DD4-4BF0-BF89-A6B7BC673C6C*%
%TF.FilePolarity,Positive*%
%TF.FileFunction,Plated,1,2,PTH,Drill*%
%TF.Part,Single*%
G01*
G75*
%TA.AperFunction,ComponentDrill*%
%ADD67C,0.04724*%
%ADD68C,0.03543*%
%ADD69C,0.02756*%
%TA.AperFunction,OtherDrill,Free Pad (118.11mil,1850.394mil)*%
%ADD70C,0.11811*%
%TA.AperFunction,OtherDrill,Free Pad (1850.394mil,1850.394mil)*%
%ADD71C,0.11811*%
%TA.AperFunction,OtherDrill,Free Pad (1850.394mil,118.11mil)*%
%ADD72C,0.11811*%
%TA.AperFunction,OtherDrill,Free Pad (118.11mil,118.11mil)*%
%ADD73C,0.11811*%
%TA.AperFunction,ViaDrill,NotFilled*%
%ADD74C,0.03150*%
D67*
X187500Y119000D02*
D03*
X171752D02*
D03*
Y95378D02*
D03*
X187500D02*
D03*
Y160000D02*
D03*
X171752D02*
D03*
Y136378D02*
D03*
X187500D02*
D03*
D68*
X107500Y162500D02*
D03*
X87500D02*
D03*
D69*
X73716Y15000D02*
D03*
X56000D02*
D03*
D70*
X11811Y185039D02*
D03*
D71*
X185039D02*
D03*
D72*
Y11811D02*
D03*
D73*
X11811D02*
D03*
D74*
X132000Y153000D02*
D03*
X163500Y63839D02*
D03*
Y90000D02*
D03*
X156000Y153000D02*
D03*
X123500Y54000D02*
D03*
Y39500D02*
D03*
X99000Y33500D02*
D03*
Y54000D02*
D03*
X30994Y83494D02*
D03*
X31000Y119946D02*
D03*
X24500Y116500D02*
D03*
Y62000D02*
D03*
X73000Y188000D02*
D03*
X124000Y114000D02*
D03*
X158000D02*
D03*
X41000Y28000D02*
D03*
X85000D02*
D03*
X20000Y36000D02*
D03*
X46331Y36219D02*
D03*
X16500Y43000D02*
D03*
Y62000D02*
D03*
X156500Y17000D02*
D03*
Y72500D02*
D03*
X85000Y188000D02*
D03*
X109000Y79000D02*
D03*
X116000Y139500D02*
D03*
X115000Y34669D02*
D03*
Y56861D02*
D03*
X109000Y27000D02*
D03*
X124000Y78500D02*
D03*
X77000Y38500D02*
D03*
Y65000D02*
D03*
X51000Y188000D02*
D03*
Y121500D02*
D03*
X53000Y114500D02*
D03*
X68500Y124500D02*
D03*
Y80000D02*
D03*
X62000Y188000D02*
D03*
Y118000D02*
D03*
X39500Y188000D02*
D03*
Y118000D02*
D03*
X74500Y106000D02*
D03*
Y74500D02*
D03*
X52985Y87444D02*
D03*
X147500Y31000D02*
D03*
Y90500D02*
D03*
X154000Y139500D02*
D03*
X11031Y77031D02*
D03*
X11000Y114500D02*
D03*
X124000Y98500D02*
D03*
%TF.MD5,a1dbe5f8dc6eb12ec5b2c1740b143688*%
M02*
