%TF.GenerationSoftware,Altium Limited,Altium Designer,21.2.1 (34)*%
G04 Layer_Color=128*
%FSLAX25Y25*%
%MOIN*%
%TF.SameCoordinates,D824F303-33D3-4EC3-9BEE-61EECA8924FC*%
%TF.FilePolarity,Positive*%
%TF.FileFunction,Drillmap*%
%TF.Part,Single*%
G01*
G75*
%TA.AperFunction,NonConductor*%
%ADD30C,0.00500*%
D30*
X197819Y31000D02*
X200181D01*
X199000Y29819D02*
Y32181D01*
X192319Y234000D02*
X194681D01*
X193500Y232819D02*
Y235181D01*
X171319Y241000D02*
X173681D01*
X172500Y239819D02*
Y242181D01*
X165819Y31000D02*
X168181D01*
X167000Y29819D02*
Y32181D01*
X206925Y68500D02*
X210075D01*
X208500Y66925D02*
Y70075D01*
X239425Y124000D02*
X242575D01*
X241000Y122425D02*
Y125575D01*
X282925Y163500D02*
X286075D01*
X284500Y161925D02*
Y165075D01*
X244425Y233000D02*
X247575D01*
X246000Y231425D02*
Y234575D01*
X149425Y176500D02*
X152575D01*
X151000Y174925D02*
Y178075D01*
X129175Y153250D02*
X132325D01*
X130750Y151675D02*
Y154825D01*
X114425Y177500D02*
X117575D01*
X116000Y175925D02*
Y179075D01*
X136425Y178000D02*
X139575D01*
X138000Y176425D02*
Y179575D01*
X211425Y255000D02*
X214575D01*
X213000Y253425D02*
Y256575D01*
X213925Y196500D02*
X217075D01*
X215500Y194925D02*
Y198075D01*
X143925Y195000D02*
X147075D01*
X145500Y193425D02*
Y196575D01*
X131425Y252000D02*
X134575D01*
X133000Y250425D02*
Y253575D01*
X140925Y257000D02*
X144075D01*
X142500Y255425D02*
Y258575D01*
X226425Y254500D02*
X229575D01*
X228000Y252925D02*
Y256075D01*
X114925Y252000D02*
X118075D01*
X116500Y250425D02*
Y253575D01*
X147925Y156000D02*
X151075D01*
X149500Y154425D02*
Y157575D01*
X121425Y193000D02*
X124575D01*
X123000Y191425D02*
Y194575D01*
X199425Y327000D02*
X202575D01*
X201000Y325425D02*
Y328575D01*
X159925Y327000D02*
X163075D01*
X161500Y325425D02*
Y328575D01*
X163425Y191500D02*
X166575D01*
X165000Y189925D02*
Y193075D01*
X181925Y142000D02*
X185075D01*
X183500Y140425D02*
Y143575D01*
X147925Y118000D02*
X151075D01*
X149500Y116425D02*
Y119575D01*
X205425Y175000D02*
X208575D01*
X207000Y173425D02*
Y176575D01*
X205425Y241000D02*
X208575D01*
X207000Y239425D02*
Y242575D01*
X224925Y313500D02*
X228075D01*
X226500Y311925D02*
Y315075D01*
X222925Y186500D02*
X226075D01*
X224500Y184925D02*
Y188075D01*
X228350Y129075D02*
X231500D01*
X229925Y127500D02*
Y130650D01*
X230925Y164000D02*
X234075D01*
X232500Y162425D02*
Y165575D01*
X140675Y234250D02*
X143825D01*
X142250Y232675D02*
Y235825D01*
X128425Y114500D02*
X131575D01*
X130000Y112925D02*
Y116075D01*
X147425Y92500D02*
X150575D01*
X149000Y90925D02*
Y94075D01*
X215425Y92500D02*
X218575D01*
X217000Y90925D02*
Y94075D01*
X183425Y92500D02*
X186575D01*
X185000Y90925D02*
Y94075D01*
X174925Y92500D02*
X178075D01*
X176500Y90925D02*
Y94075D01*
%TF.MD5,31c25fcf51e586cfa4399fb17dc49f50*%
M02*
