%TF.GenerationSoftware,Altium Limited,Altium Designer,21.2.1 (34)*%
G04 Layer_Color=0*
%FSLAX25Y25*%
%MOIN*%
%TF.SameCoordinates,D4E26BF7-8A77-4173-AB59-83025396DDF1*%
%TF.FilePolarity,Positive*%
%TF.FileFunction,Profile,NP*%
%TF.Part,Single*%
G01*
G75*
%TA.AperFunction,Profile*%
%ADD16C,0.00100*%
G36*
D02*
D01*
X1000D01*
Y1000D01*
X0D01*
Y0D01*
D02*
G37*
D16*
X984Y100184D02*
G03*
X108225Y87598I60030J48322D01*
G01*
D02*
G02*
X74000Y62000I-44343J23607D01*
G01*
D02*
G03*
X138910Y75199I13035J102108D01*
G01*
D02*
G02*
X115250Y55110I-61461J48412D01*
G01*
D02*
G03*
X163343Y60039I13798J102461D01*
G01*
X163343Y24606D01*
X179091D01*
X179091Y245079D01*
X186965D01*
X186965Y24606D01*
X202713D01*
Y60039D01*
D02*
G03*
X250806Y55110I34295J97532D01*
G01*
D02*
G02*
X227146Y75199I37801J68500D01*
G01*
D02*
G03*
X292056Y62000I51876J88909D01*
G01*
D02*
G02*
X257831Y87598I10118J49206D01*
G01*
D02*
G03*
X365072Y100184I47211J60907D01*
G01*
D02*
G02*
X319269Y98718I-25686J86271D01*
G01*
D02*
G02*
X250119Y147323I47245J140709D01*
G01*
D02*
G03*
X281133Y149549I12010J49831D01*
G01*
D02*
G02*
X254202Y163131I26430J85898D01*
G01*
D02*
G03*
X301166Y158352I31258J74031D01*
G01*
D02*
G03*
X324797Y175933I-8743J36424D01*
G01*
D02*
G02*
X284619Y180499I4689J220314D01*
G01*
D02*
G02*
X226669Y221195I57564J143577D01*
G01*
D02*
G03*
X288906Y243909I-9801J123482D01*
G01*
D02*
G02*
X238976Y265773I137167J381181D01*
G01*
D02*
G02*
X214528Y298812I23058J42627D01*
G01*
D02*
G03*
X255174Y309778I-218J81618D01*
G01*
D02*
G02*
X231593Y328685I277405J370145D01*
G01*
D02*
G02*
X189369Y417336I134196J118299D01*
G01*
X176689Y417323D01*
D02*
G02*
X134464Y328686I-176399J29656D01*
G01*
D02*
G02*
X110882Y309778I-300997J351248D01*
G01*
D02*
G03*
X151528Y298812I40864J70652D01*
G01*
D02*
G02*
X127081Y265773I-47506J9588D01*
G01*
D02*
G02*
X77150Y243909I-187098J359317D01*
G01*
D02*
G03*
X139388Y221195I72039J100768D01*
G01*
D02*
G02*
X81438Y180499I-115514J102881D01*
G01*
D02*
G02*
X41259Y175933I-44868J215747D01*
G01*
D02*
G03*
X64891Y158352I32374J18843D01*
G01*
D02*
G03*
X111854Y163131I15705J78810D01*
G01*
D02*
G02*
X84923Y149549I-53360J72316D01*
G01*
D02*
G03*
X115938Y147323I19004J47605D01*
G01*
D02*
G02*
X46787Y98718I-116396J92104D01*
G01*
D02*
G02*
X984Y100184I-20116J87737D01*
G01*
%TF.MD5,8f7800899b108beb819cbcb1db7075a9*%
M02*
