%TF.GenerationSoftware,Altium Limited,Altium Designer,21.2.1 (34)*%
G04 Layer_Color=2752767*
%FSLAX25Y25*%
%MOIN*%
%TF.SameCoordinates,D4E26BF7-8A77-4173-AB59-83025396DDF1*%
%TF.FilePolarity,Positive*%
%TF.FileFunction,Drawing*%
%TF.Part,Single*%
G01*
G75*
%TA.AperFunction,NonConductor*%
%ADD19C,0.00500*%
D19*
X131500Y236500D02*
Y240500D01*
X135500D01*
Y236500D01*
X131500D01*
X189500Y294000D02*
Y298000D01*
X193500D01*
Y294000D01*
X189500D01*
X196500Y270000D02*
Y274000D01*
X200500D01*
Y270000D01*
X196500D01*
X212000Y193500D02*
Y197500D01*
X216000D01*
Y193500D01*
X212000D01*
X140500Y172000D02*
Y176000D01*
X144500D01*
Y172000D01*
X140500D01*
X141000Y125500D02*
Y129500D01*
X145000D01*
Y125500D01*
X141000D01*
X213000Y175000D02*
Y179000D01*
X217000D01*
Y175000D01*
X213000D01*
X137500Y188500D02*
Y192500D01*
X141500D01*
Y188500D01*
X137500D01*
X132500Y153000D02*
Y157000D01*
X136500D01*
Y153000D01*
X132500D01*
X180500Y250500D02*
Y254500D01*
X184500D01*
Y250500D01*
X180500D01*
X188500Y258500D02*
Y262500D01*
X192500D01*
Y258500D01*
X188500D01*
X172500Y275500D02*
Y279500D01*
X176500D01*
Y275500D01*
X172500D01*
X203500Y322500D02*
Y326500D01*
X207500D01*
Y322500D01*
X203500D01*
X159500Y322000D02*
Y326000D01*
X163500D01*
Y322000D01*
X159500D01*
X182000Y340000D02*
Y344000D01*
X186000D01*
Y340000D01*
X182000D01*
X194500Y196500D02*
Y200500D01*
X198500D01*
Y196500D01*
X194500D01*
X169000Y207000D02*
Y211000D01*
X173000D01*
Y207000D01*
X169000D01*
X210500Y223500D02*
Y227500D01*
X214500D01*
Y223500D01*
X210500D01*
X228500Y199500D02*
Y203500D01*
X232500D01*
Y199500D01*
X228500D01*
X149500Y106500D02*
Y110500D01*
X153500D01*
Y106500D01*
X149500D01*
X248500Y175500D02*
Y179500D01*
X252500D01*
Y175500D01*
X248500D01*
X236500Y156000D02*
Y160000D01*
X240500D01*
Y156000D01*
X236500D01*
X154500Y158000D02*
Y162000D01*
X158500D01*
Y158000D01*
X154500D01*
X154000Y222500D02*
Y226500D01*
X158000D01*
Y222500D01*
X154000D01*
Y244500D02*
Y248500D01*
X158000D01*
Y244500D01*
X154000D01*
X211000Y271500D02*
Y275500D01*
X215000D01*
Y271500D01*
X211000D01*
X168500Y294000D02*
Y298000D01*
X172500D01*
Y294000D01*
X168500D01*
Y311000D02*
Y315000D01*
X172500D01*
Y311000D01*
X168500D01*
%TF.MD5,1ee462908b226dff0d4ce335d91dc9fb*%
M02*
