%TF.GenerationSoftware,Altium Limited,Altium Designer,21.2.1 (34)*%
G04 Layer_Color=0*
%FSLAX25Y25*%
%MOIN*%
%TF.SameCoordinates,D4E26BF7-8A77-4173-AB59-83025396DDF1*%
%TF.FilePolarity,Positive*%
%TF.FileFunction,Plated,1,2,PTH,Drill*%
%TF.Part,Single*%
G01*
G75*
%TA.AperFunction,ViaDrill,NotFilled*%
%ADD17C,0.03150*%
D17*
X133500Y238500D02*
D03*
X191500Y296000D02*
D03*
X198500Y272000D02*
D03*
X214000Y195500D02*
D03*
X142500Y174000D02*
D03*
X143000Y127500D02*
D03*
X215000Y177000D02*
D03*
X139500Y190500D02*
D03*
X134500Y155000D02*
D03*
X182500Y252500D02*
D03*
X190500Y260500D02*
D03*
X174500Y277500D02*
D03*
X205500Y324500D02*
D03*
X161500Y324000D02*
D03*
X184000Y342000D02*
D03*
X196500Y198500D02*
D03*
X171000Y209000D02*
D03*
X212500Y225500D02*
D03*
X230500Y201500D02*
D03*
X151500Y108500D02*
D03*
X250500Y177500D02*
D03*
X238500Y158000D02*
D03*
X156500Y160000D02*
D03*
X156000Y224500D02*
D03*
Y246500D02*
D03*
X213000Y273500D02*
D03*
X170500Y296000D02*
D03*
Y313000D02*
D03*
%TF.MD5,694ce2f5637dd68a8b55bc7780ed2daa*%
M02*
