%TF.GenerationSoftware,Altium Limited,Altium Designer,21.2.1 (34)*%
G04 Layer_Color=128*
%FSLAX25Y25*%
%MOIN*%
%TF.SameCoordinates,D4E26BF7-8A77-4173-AB59-83025396DDF1*%
%TF.FilePolarity,Positive*%
%TF.FileFunction,Drillmap*%
%TF.Part,Single*%
G01*
G75*
%TA.AperFunction,NonConductor*%
%ADD19C,0.00500*%
D19*
X131925Y238500D02*
X135075D01*
X133500Y236925D02*
Y240075D01*
X189925Y296000D02*
X193075D01*
X191500Y294425D02*
Y297575D01*
X196925Y272000D02*
X200075D01*
X198500Y270425D02*
Y273575D01*
X212425Y195500D02*
X215575D01*
X214000Y193925D02*
Y197075D01*
X140925Y174000D02*
X144075D01*
X142500Y172425D02*
Y175575D01*
X141425Y127500D02*
X144575D01*
X143000Y125925D02*
Y129075D01*
X213425Y177000D02*
X216575D01*
X215000Y175425D02*
Y178575D01*
X137925Y190500D02*
X141075D01*
X139500Y188925D02*
Y192075D01*
X132925Y155000D02*
X136075D01*
X134500Y153425D02*
Y156575D01*
X180925Y252500D02*
X184075D01*
X182500Y250925D02*
Y254075D01*
X188925Y260500D02*
X192075D01*
X190500Y258925D02*
Y262075D01*
X172925Y277500D02*
X176075D01*
X174500Y275925D02*
Y279075D01*
X203925Y324500D02*
X207075D01*
X205500Y322925D02*
Y326075D01*
X159925Y324000D02*
X163075D01*
X161500Y322425D02*
Y325575D01*
X182425Y342000D02*
X185575D01*
X184000Y340425D02*
Y343575D01*
X194925Y198500D02*
X198075D01*
X196500Y196925D02*
Y200075D01*
X169425Y209000D02*
X172575D01*
X171000Y207425D02*
Y210575D01*
X210925Y225500D02*
X214075D01*
X212500Y223925D02*
Y227075D01*
X228925Y201500D02*
X232075D01*
X230500Y199925D02*
Y203075D01*
X149925Y108500D02*
X153075D01*
X151500Y106925D02*
Y110075D01*
X248925Y177500D02*
X252075D01*
X250500Y175925D02*
Y179075D01*
X236925Y158000D02*
X240075D01*
X238500Y156425D02*
Y159575D01*
X154925Y160000D02*
X158075D01*
X156500Y158425D02*
Y161575D01*
X154425Y224500D02*
X157575D01*
X156000Y222925D02*
Y226075D01*
X154425Y246500D02*
X157575D01*
X156000Y244925D02*
Y248075D01*
X211425Y273500D02*
X214575D01*
X213000Y271925D02*
Y275075D01*
X168925Y296000D02*
X172075D01*
X170500Y294425D02*
Y297575D01*
X168925Y313000D02*
X172075D01*
X170500Y311425D02*
Y314575D01*
%TF.MD5,17ecd9cf9f0349a5a1dd6732aabe3d42*%
M02*
