%TF.GenerationSoftware,Altium Limited,Altium Designer,21.2.1 (34)*%
G04 Layer_Physical_Order=2*
G04 Layer_Color=11511158*
%FSLAX25Y25*%
%MOIN*%
%TF.SameCoordinates,D824F303-33D3-4EC3-9BEE-61EECA8924FC*%
%TF.FilePolarity,Positive*%
%TF.FileFunction,Copper,L2,Bot,Signal*%
%TF.Part,Single*%
G01*
G75*
%TA.AperFunction,SMDPad,CuDef*%
%ADD10R,0.03937X0.09843*%
%ADD11R,0.09843X0.03937*%
%ADD12R,0.01968X0.01968*%
%TA.AperFunction,Conductor*%
%ADD13C,0.01968*%
%ADD14C,0.01181*%
%TA.AperFunction,ViaPad*%
%ADD15R,0.03937X0.09843*%
%ADD16R,0.09843X0.03937*%
%ADD17C,0.07087*%
G36*
X243507Y311507D02*
X243962Y311202D01*
X243990Y311196D01*
X243951Y310803D01*
X242500D01*
X242193Y310742D01*
X241932Y310568D01*
X241758Y310307D01*
X241697Y310000D01*
Y309405D01*
X232582D01*
X230397Y311590D01*
X230719Y312369D01*
X230868Y313500D01*
X230719Y314631D01*
X230283Y315684D01*
X229589Y316589D01*
X228684Y317283D01*
X227630Y317719D01*
X227707Y318095D01*
X236918D01*
X243507Y311507D01*
D02*
G37*
G36*
X248000Y313500D02*
X250500Y312000D01*
Y309000D01*
X248478Y307978D01*
X246456Y310000D01*
Y314426D01*
X248000Y313500D01*
D02*
G37*
G36*
X119544Y310000D02*
X117522Y307978D01*
X115500Y309000D01*
Y312000D01*
X118000Y313500D01*
X119544Y314426D01*
Y310000D01*
D02*
G37*
G36*
X247500Y307000D02*
X245500Y306000D01*
X242500D01*
Y310000D01*
X244500D01*
X247500Y307000D01*
D02*
G37*
G36*
X123500Y306000D02*
X120500D01*
X118500Y307000D01*
X121500Y310000D01*
X123500D01*
Y306000D01*
D02*
G37*
G36*
X164595Y303918D02*
Y281082D01*
X150006Y266493D01*
X149702Y266038D01*
X149595Y265500D01*
Y245905D01*
X87368D01*
X87308Y246299D01*
X87534Y246517D01*
X93509Y248897D01*
X93518Y248903D01*
X93528Y248905D01*
X99819Y251535D01*
X99828Y251540D01*
X99838Y251543D01*
X106084Y254278D01*
X106092Y254284D01*
X106102Y254286D01*
X112301Y257126D01*
X112310Y257132D01*
X112320Y257135D01*
X118470Y260078D01*
X118478Y260085D01*
X118488Y260087D01*
X124588Y263134D01*
X124594Y263139D01*
X124602Y263141D01*
X127632Y264703D01*
X127651Y264717D01*
X127673Y264725D01*
X129213Y265594D01*
X129238Y265616D01*
X129269Y265628D01*
X132248Y267533D01*
X132281Y267564D01*
X132321Y267583D01*
X135153Y269700D01*
X135183Y269733D01*
X135222Y269755D01*
X137892Y272073D01*
X137920Y272108D01*
X137957Y272133D01*
X140451Y274640D01*
X140476Y274677D01*
X140511Y274704D01*
X142816Y277386D01*
X142838Y277424D01*
X142871Y277454D01*
X144974Y280297D01*
X144993Y280337D01*
X145024Y280369D01*
X146915Y283358D01*
X146931Y283400D01*
X146959Y283434D01*
X148626Y286552D01*
X148639Y286595D01*
X148665Y286631D01*
X150101Y289863D01*
X150110Y289906D01*
X150133Y289944D01*
X151330Y293272D01*
X151336Y293316D01*
X151356Y293356D01*
X152307Y296762D01*
X152310Y296795D01*
X152323Y296826D01*
X152704Y298553D01*
X152707Y298682D01*
X152733Y298809D01*
X152712Y298915D01*
X152714Y299023D01*
X152667Y299143D01*
X152642Y299270D01*
X152583Y299360D01*
X152544Y299460D01*
X152454Y299554D01*
X152382Y299662D01*
X152293Y299722D01*
X152218Y299799D01*
X152100Y299851D01*
X151992Y299924D01*
X151887Y299945D01*
X151788Y299988D01*
X151659Y299991D01*
X151532Y300017D01*
X148909Y300024D01*
X143675Y300379D01*
X138475Y301076D01*
X133332Y302109D01*
X128268Y303476D01*
X124039Y304918D01*
X123971Y305290D01*
X124246Y305595D01*
X155418D01*
X159095Y301918D01*
Y285082D01*
X141507Y267493D01*
X141202Y267038D01*
X141095Y266500D01*
Y261106D01*
X140316Y260783D01*
X139411Y260089D01*
X138717Y259184D01*
X138281Y258131D01*
X138132Y257000D01*
X138281Y255870D01*
X138717Y254816D01*
X139411Y253911D01*
X140316Y253217D01*
X141369Y252781D01*
X142500Y252632D01*
X143631Y252781D01*
X144684Y253217D01*
X145589Y253911D01*
X146283Y254816D01*
X146719Y255870D01*
X146868Y257000D01*
X146719Y258131D01*
X146283Y259184D01*
X145589Y260089D01*
X144684Y260783D01*
X143905Y261106D01*
Y265918D01*
X161494Y283507D01*
X161798Y283962D01*
X161905Y284500D01*
Y302500D01*
X161798Y303038D01*
X161494Y303493D01*
X156993Y307993D01*
X156538Y308298D01*
X156000Y308405D01*
X124303D01*
Y310000D01*
X124242Y310307D01*
X124068Y310568D01*
X123807Y310742D01*
X123500Y310803D01*
X122049D01*
X122010Y311196D01*
X122038Y311202D01*
X122494Y311507D01*
X124082Y313095D01*
X155418D01*
X164595Y303918D01*
D02*
G37*
G36*
X225370Y317719D02*
X224316Y317283D01*
X223411Y316589D01*
X222717Y315684D01*
X222281Y314631D01*
X222132Y313500D01*
X222281Y312369D01*
X222717Y311316D01*
X223411Y310411D01*
X224316Y309717D01*
X225370Y309281D01*
X226500Y309132D01*
X227630Y309281D01*
X228410Y309604D01*
X231007Y307007D01*
X231462Y306702D01*
X232000Y306595D01*
X241697D01*
Y306000D01*
X241758Y305693D01*
X241932Y305432D01*
X242059Y305348D01*
X242026Y304921D01*
X237789Y303475D01*
X232724Y302109D01*
X227581Y301076D01*
X222381Y300379D01*
X217148Y300024D01*
X214525Y300017D01*
X214398Y299991D01*
X214268Y299988D01*
X214170Y299945D01*
X214064Y299924D01*
X213957Y299851D01*
X213838Y299799D01*
X213763Y299722D01*
X213674Y299662D01*
X213602Y299554D01*
X213513Y299460D01*
X213474Y299360D01*
X213414Y299270D01*
X213389Y299143D01*
X213342Y299022D01*
X213344Y298915D01*
X213324Y298809D01*
X213349Y298682D01*
X213352Y298553D01*
X213733Y296826D01*
X213747Y296795D01*
X213749Y296762D01*
X214700Y293356D01*
X214720Y293316D01*
X214727Y293272D01*
X215923Y289944D01*
X215946Y289906D01*
X215956Y289863D01*
X217391Y286631D01*
X217417Y286595D01*
X217430Y286552D01*
X219098Y283434D01*
X219126Y283399D01*
X219142Y283358D01*
X221032Y280369D01*
X221063Y280337D01*
X221082Y280297D01*
X223185Y277454D01*
X223218Y277424D01*
X223240Y277386D01*
X225546Y274704D01*
X225581Y274676D01*
X225605Y274639D01*
X228100Y272133D01*
X228137Y272108D01*
X228164Y272073D01*
X230835Y269755D01*
X230873Y269733D01*
X230903Y269700D01*
X233736Y267583D01*
X233776Y267564D01*
X233808Y267533D01*
X236787Y265628D01*
X236818Y265616D01*
X236844Y265594D01*
X238384Y264725D01*
X238406Y264717D01*
X238424Y264703D01*
X241455Y263141D01*
X241462Y263139D01*
X241468Y263134D01*
X247568Y260087D01*
X247578Y260084D01*
X247586Y260078D01*
X253737Y257135D01*
X253747Y257132D01*
X253755Y257126D01*
X259954Y254286D01*
X259964Y254284D01*
X259973Y254278D01*
X266218Y251543D01*
X266229Y251540D01*
X266237Y251535D01*
X272528Y248905D01*
X272538Y248903D01*
X272547Y248897D01*
X278485Y246532D01*
X278698Y246298D01*
X278626Y245905D01*
X215582D01*
X211004Y250483D01*
X211227Y250817D01*
X211814Y250574D01*
X212500Y250483D01*
Y254500D01*
X208483D01*
X208574Y253814D01*
X208817Y253227D01*
X208483Y253004D01*
X204405Y257082D01*
Y304918D01*
X217582Y318095D01*
X225293D01*
X225370Y317719D01*
D02*
G37*
G36*
X188734Y414012D02*
X188741Y413992D01*
X188742Y413971D01*
X190468Y405777D01*
X190479Y405751D01*
X190480Y405722D01*
X192588Y397618D01*
X192600Y397592D01*
X192603Y397564D01*
X195088Y389567D01*
X195101Y389542D01*
X195106Y389514D01*
X197962Y381643D01*
X197976Y381618D01*
X197982Y381590D01*
X201203Y373861D01*
X201219Y373837D01*
X201226Y373809D01*
X204805Y366239D01*
X204822Y366216D01*
X204830Y366189D01*
X208760Y358795D01*
X208778Y358773D01*
X208787Y358746D01*
X213059Y351543D01*
X213078Y351522D01*
X213088Y351496D01*
X217692Y344501D01*
X217712Y344481D01*
X217724Y344455D01*
X222650Y337683D01*
X222671Y337664D01*
X222684Y337639D01*
X227921Y331105D01*
X227938Y331091D01*
X227948Y331073D01*
X230680Y327900D01*
X230754Y327841D01*
X230813Y327768D01*
X233692Y325321D01*
X233699Y325317D01*
X233704Y325311D01*
X239522Y320488D01*
X239531Y320483D01*
X239537Y320475D01*
X245433Y315748D01*
X245442Y315743D01*
X245449Y315736D01*
X245833Y315438D01*
X245878Y315323D01*
X245893Y315251D01*
X245888Y314994D01*
X245833Y314912D01*
X245767Y314840D01*
X245747Y314783D01*
X245714Y314734D01*
X245695Y314637D01*
X245662Y314545D01*
X245665Y314485D01*
X245653Y314426D01*
Y313905D01*
X245082D01*
X238493Y320493D01*
X238038Y320798D01*
X237500Y320905D01*
X217000D01*
X216462Y320798D01*
X216007Y320493D01*
X202007Y306493D01*
X201702Y306038D01*
X201595Y305500D01*
Y256500D01*
X201702Y255962D01*
X202007Y255507D01*
X213595Y243918D01*
Y231082D01*
X205507Y222993D01*
X205202Y222538D01*
X205095Y222000D01*
Y207405D01*
X157806D01*
Y224752D01*
X165248Y232194D01*
X166791D01*
Y231244D01*
X178209D01*
Y236756D01*
X166791D01*
Y235806D01*
X164500D01*
X163809Y235669D01*
X163223Y235277D01*
X155716Y227771D01*
X152405Y231082D01*
Y244500D01*
Y264918D01*
X166993Y279507D01*
X167298Y279962D01*
X167405Y280500D01*
Y304500D01*
X167298Y305038D01*
X166993Y305493D01*
X156993Y315493D01*
X156538Y315798D01*
X156000Y315905D01*
X123500D01*
X122962Y315798D01*
X122506Y315493D01*
X120918Y313905D01*
X120347D01*
Y314426D01*
X120335Y314485D01*
X120338Y314545D01*
X120305Y314637D01*
X120286Y314734D01*
X120253Y314783D01*
X120232Y314840D01*
X120175Y314903D01*
X120155Y314930D01*
X120112Y314994D01*
X120140Y315283D01*
X120156Y315334D01*
X120198Y315419D01*
X120607Y315736D01*
X120614Y315743D01*
X120623Y315748D01*
X126519Y320476D01*
X126526Y320483D01*
X126534Y320488D01*
X132353Y325311D01*
X132357Y325317D01*
X132364Y325321D01*
X135243Y327768D01*
X135302Y327842D01*
X135376Y327900D01*
X138108Y331073D01*
X138119Y331092D01*
X138135Y331106D01*
X143373Y337640D01*
X143386Y337665D01*
X143407Y337685D01*
X148334Y344457D01*
X148346Y344483D01*
X148366Y344503D01*
X152970Y351499D01*
X152981Y351525D01*
X153000Y351547D01*
X157271Y358750D01*
X157281Y358777D01*
X157299Y358799D01*
X161229Y366195D01*
X161237Y366222D01*
X161254Y366245D01*
X164833Y373816D01*
X164840Y373844D01*
X164856Y373868D01*
X168077Y381598D01*
X168083Y381626D01*
X168098Y381650D01*
X170954Y389523D01*
X170958Y389551D01*
X170972Y389577D01*
X173456Y397574D01*
X173459Y397603D01*
X173471Y397628D01*
X175579Y405734D01*
X175580Y405762D01*
X175592Y405789D01*
X177317Y413983D01*
X177317Y414005D01*
X177325Y414025D01*
X177493Y414990D01*
X177887Y414956D01*
X177887Y245079D01*
X177979Y244618D01*
X178149Y244362D01*
X177972Y243969D01*
X173000D01*
Y241500D01*
X178421D01*
Y243637D01*
X178456Y243691D01*
X178815Y243929D01*
X179091Y243875D01*
X186965D01*
X187426Y243966D01*
X187489Y243938D01*
X187426Y243966D01*
X187418Y243965D01*
X187515Y243925D01*
X187713Y243815D01*
X187761Y243767D01*
X187791Y243460D01*
X187791Y243374D01*
Y238244D01*
X199209D01*
Y239194D01*
X203061D01*
X203217Y238816D01*
X203911Y237911D01*
X204816Y237217D01*
X205870Y236781D01*
X207000Y236632D01*
X208131Y236781D01*
X209184Y237217D01*
X210089Y237911D01*
X210783Y238816D01*
X211219Y239869D01*
X211368Y241000D01*
X211219Y242130D01*
X210783Y243184D01*
X210089Y244089D01*
X209184Y244783D01*
X208131Y245219D01*
X207000Y245368D01*
X205870Y245219D01*
X204816Y244783D01*
X203911Y244089D01*
X203217Y243184D01*
X203061Y242806D01*
X199209D01*
Y243756D01*
X188177D01*
X188133Y243756D01*
X187793Y244139D01*
X187801Y244198D01*
X187817Y244227D01*
X187833Y244251D01*
X188078Y244618D01*
X188169Y245079D01*
X188169Y414957D01*
X188563Y414991D01*
X188734Y414012D01*
D02*
G37*
G36*
X281000Y245500D02*
X284000Y244500D01*
Y242000D01*
X281813Y240687D01*
X279500Y243000D01*
X279500Y246000D01*
X281000Y245500D01*
D02*
G37*
G36*
X86500Y243000D02*
X84188Y240687D01*
X82000Y242000D01*
Y244500D01*
X85000Y245500D01*
X86500Y246000D01*
X86500Y243000D01*
D02*
G37*
G36*
X280500Y240000D02*
X279000Y238500D01*
X276000D01*
Y242500D01*
X278000D01*
X280500Y240000D01*
D02*
G37*
G36*
X90000Y238500D02*
X87000D01*
X85500Y240000D01*
X88000Y242500D01*
X90000D01*
Y238500D01*
D02*
G37*
G36*
X149595Y230500D02*
X149702Y229962D01*
X150006Y229507D01*
X154194Y225320D01*
Y206000D01*
Y196748D01*
X149340Y191895D01*
X149044Y192155D01*
X149469Y192709D01*
X149926Y193814D01*
X150017Y194500D01*
X146000D01*
Y190483D01*
X146686Y190574D01*
X147791Y191031D01*
X148345Y191456D01*
X148605Y191160D01*
X139508Y182063D01*
X139130Y182219D01*
X138000Y182368D01*
X136870Y182219D01*
X135816Y181783D01*
X134911Y181089D01*
X134217Y180184D01*
X133781Y179130D01*
X133632Y178000D01*
X133781Y176869D01*
X134217Y175816D01*
X134911Y174911D01*
X135816Y174217D01*
X136194Y174061D01*
Y163000D01*
X136331Y162309D01*
X136723Y161723D01*
X139194Y159252D01*
Y126905D01*
X113000D01*
X112462Y126798D01*
X112006Y126494D01*
X80418Y94905D01*
X28611D01*
X28605Y95299D01*
X32513Y95425D01*
X32551Y95434D01*
X32590Y95430D01*
X38355Y95989D01*
X38392Y96000D01*
X38431Y95999D01*
X44147Y96928D01*
X44175Y96938D01*
X44205Y96938D01*
X47037Y97540D01*
X47100Y97567D01*
X47168Y97576D01*
X47175Y97580D01*
X47184Y97581D01*
X50555Y98759D01*
X50574Y98770D01*
X50596Y98773D01*
X57249Y101370D01*
X57274Y101386D01*
X57303Y101392D01*
X63823Y104305D01*
X63847Y104322D01*
X63876Y104330D01*
X70249Y107554D01*
X70272Y107572D01*
X70300Y107581D01*
X76510Y111108D01*
X76532Y111127D01*
X76560Y111137D01*
X82593Y114959D01*
X82615Y114979D01*
X82642Y114991D01*
X88485Y119097D01*
X88505Y119119D01*
X88531Y119132D01*
X94170Y123515D01*
X94189Y123537D01*
X94214Y123552D01*
X99636Y128201D01*
X99654Y128224D01*
X99679Y128240D01*
X104870Y133144D01*
X104887Y133168D01*
X104911Y133185D01*
X109860Y138334D01*
X109876Y138359D01*
X109900Y138377D01*
X114595Y143757D01*
X114606Y143777D01*
X114623Y143791D01*
X116873Y146564D01*
X116911Y146635D01*
X116965Y146695D01*
X117019Y146842D01*
X117092Y146980D01*
X117099Y147060D01*
X117127Y147136D01*
X117121Y147292D01*
X117136Y147448D01*
X117112Y147525D01*
X117108Y147605D01*
X117043Y147747D01*
X116997Y147897D01*
X116945Y147959D01*
X116911Y148032D01*
X116796Y148138D01*
X116696Y148258D01*
X116625Y148296D01*
X116566Y148350D01*
X116419Y148404D01*
X116281Y148477D01*
X116201Y148485D01*
X116125Y148512D01*
X115969Y148506D01*
X115813Y148521D01*
X115736Y148497D01*
X115656Y148494D01*
X113780Y148042D01*
X109971Y147429D01*
X106126Y147111D01*
X102268Y147091D01*
X98420Y147367D01*
X94604Y147938D01*
X90844Y148802D01*
X89182Y149321D01*
X89174Y149715D01*
X90700Y150256D01*
X90722Y150269D01*
X90748Y150274D01*
X94261Y151688D01*
X94283Y151702D01*
X94308Y151708D01*
X97759Y153270D01*
X97780Y153285D01*
X97805Y153292D01*
X101187Y154998D01*
X101207Y155013D01*
X101232Y155021D01*
X104539Y156868D01*
X104559Y156885D01*
X104583Y156894D01*
X107809Y158878D01*
X107828Y158896D01*
X107852Y158905D01*
X110992Y161024D01*
X111005Y161038D01*
X111023Y161046D01*
X112559Y162154D01*
X112625Y162225D01*
X112706Y162279D01*
X112708Y162283D01*
X112712Y162285D01*
X112786Y162399D01*
X112879Y162498D01*
X112913Y162589D01*
X112967Y162670D01*
X112968Y162674D01*
X112970Y162677D01*
X112996Y162811D01*
X113043Y162938D01*
X113040Y163036D01*
X113058Y163131D01*
X113058Y163135D01*
X113058Y163139D01*
X113031Y163272D01*
X113026Y163408D01*
X112986Y163496D01*
X112967Y163592D01*
X112964Y163595D01*
X112964Y163599D01*
X112887Y163712D01*
X112831Y163835D01*
X112760Y163901D01*
X112706Y163982D01*
X112702Y163985D01*
X112700Y163988D01*
X112586Y164063D01*
X112487Y164155D01*
X112396Y164189D01*
X112315Y164243D01*
X112311Y164244D01*
X112307Y164246D01*
X112174Y164272D01*
X112046Y164320D01*
X111949Y164316D01*
X111854Y164335D01*
X111850Y164334D01*
X111846Y164335D01*
X111713Y164307D01*
X111577Y164303D01*
X111488Y164262D01*
X111393Y164243D01*
X111390Y164241D01*
X111386Y164240D01*
X109574Y163475D01*
X105878Y162127D01*
X102120Y160964D01*
X98310Y159989D01*
X94455Y159204D01*
X90566Y158612D01*
X86653Y158214D01*
X82724Y158010D01*
X78790Y158002D01*
X74862Y158190D01*
X70946Y158572D01*
X67055Y159148D01*
X65149Y159528D01*
X63390Y159950D01*
X59930Y161161D01*
X56610Y162714D01*
X53464Y164594D01*
X51140Y166323D01*
X51263Y166697D01*
X52000D01*
X52307Y166758D01*
X52568Y166932D01*
X52742Y167193D01*
X52803Y167500D01*
Y168595D01*
X129095D01*
Y157252D01*
X128566Y157033D01*
X127661Y156339D01*
X126967Y155434D01*
X126531Y154381D01*
X126382Y153250D01*
X126531Y152120D01*
X126967Y151066D01*
X127661Y150161D01*
X128566Y149467D01*
X129620Y149031D01*
X130750Y148882D01*
X131880Y149031D01*
X132934Y149467D01*
X133839Y150161D01*
X134533Y151066D01*
X134969Y152120D01*
X135118Y153250D01*
X134969Y154381D01*
X134533Y155434D01*
X133839Y156339D01*
X132934Y157033D01*
X131905Y157459D01*
Y170000D01*
Y187418D01*
X140677Y196190D01*
X141050Y196006D01*
X140983Y195500D01*
X145000D01*
Y199517D01*
X144494Y199450D01*
X144310Y199823D01*
X148494Y204007D01*
X148798Y204462D01*
X148905Y205000D01*
Y223000D01*
X148798Y223538D01*
X148494Y223993D01*
X143655Y228832D01*
Y230144D01*
X144434Y230467D01*
X145339Y231161D01*
X146033Y232066D01*
X146469Y233120D01*
X146618Y234250D01*
X146469Y235381D01*
X146033Y236434D01*
X145339Y237339D01*
X144434Y238033D01*
X143380Y238469D01*
X142250Y238618D01*
X141120Y238469D01*
X140340Y238146D01*
X137994Y240493D01*
X137538Y240798D01*
X137000Y240905D01*
X90803D01*
Y242500D01*
X90763Y242701D01*
X90937Y243007D01*
X91023Y243095D01*
X149595D01*
Y230500D01*
D02*
G37*
G36*
X275063Y243007D02*
X275237Y242701D01*
X275197Y242500D01*
Y240905D01*
X235000D01*
X234462Y240798D01*
X234007Y240493D01*
X219507Y225993D01*
X219202Y225538D01*
X219095Y225000D01*
Y211000D01*
X219202Y210462D01*
X219507Y210007D01*
X223095Y206418D01*
Y190606D01*
X222316Y190283D01*
X221411Y189589D01*
X220717Y188684D01*
X220281Y187630D01*
X220132Y186500D01*
X220281Y185370D01*
X220717Y184316D01*
X221411Y183411D01*
X222316Y182717D01*
X223370Y182281D01*
X224500Y182132D01*
X225630Y182281D01*
X226684Y182717D01*
X227589Y183411D01*
X228283Y184316D01*
X228719Y185370D01*
X228868Y186500D01*
X228719Y187630D01*
X228283Y188684D01*
X227589Y189589D01*
X226684Y190283D01*
X225905Y190606D01*
Y207000D01*
X225798Y207538D01*
X225493Y207993D01*
X221905Y211582D01*
Y224418D01*
X235582Y238095D01*
X275324D01*
X275432Y237932D01*
X275693Y237758D01*
X276000Y237697D01*
X276131D01*
X276229Y237303D01*
X271639Y234883D01*
X266631Y232524D01*
X261522Y230394D01*
X256321Y228496D01*
X251041Y226835D01*
X245690Y225413D01*
X240282Y224234D01*
X234825Y223301D01*
X229332Y222614D01*
X226573Y222395D01*
X226420Y222352D01*
X226262Y222328D01*
X226196Y222288D01*
X226121Y222268D01*
X225996Y222169D01*
X225859Y222086D01*
X225813Y222024D01*
X225752Y221976D01*
X225674Y221837D01*
X225579Y221709D01*
X225561Y221634D01*
X225523Y221566D01*
X225504Y221408D01*
X225466Y221253D01*
X225477Y221176D01*
X225468Y221099D01*
X225512Y220946D01*
X225535Y220788D01*
X225575Y220722D01*
X225596Y220647D01*
X225695Y220522D01*
X225777Y220385D01*
X227778Y218181D01*
X227792Y218171D01*
X227802Y218156D01*
X231930Y213866D01*
X231949Y213853D01*
X231962Y213833D01*
X236252Y209705D01*
X236272Y209692D01*
X236286Y209674D01*
X240732Y205714D01*
X240752Y205702D01*
X240767Y205683D01*
X245361Y201897D01*
X245382Y201886D01*
X245398Y201869D01*
X250134Y198262D01*
X250156Y198252D01*
X250172Y198235D01*
X255044Y194813D01*
X255065Y194804D01*
X255082Y194787D01*
X260083Y191556D01*
X260104Y191547D01*
X260122Y191532D01*
X265243Y188495D01*
X265265Y188487D01*
X265283Y188472D01*
X270517Y185635D01*
X270539Y185628D01*
X270558Y185613D01*
X275897Y182980D01*
X275920Y182974D01*
X275939Y182960D01*
X281376Y180533D01*
X281393Y180529D01*
X281407Y180520D01*
X284160Y179385D01*
X284273Y179363D01*
X284380Y179318D01*
X286861Y178817D01*
X286872Y178817D01*
X286881Y178813D01*
X291859Y177897D01*
X291873Y177897D01*
X291886Y177892D01*
X296884Y177090D01*
X296898Y177091D01*
X296912Y177086D01*
X301926Y176399D01*
X301940Y176400D01*
X301954Y176396D01*
X306983Y175824D01*
X307009Y175799D01*
X306845Y175405D01*
X225582D01*
X207905Y193082D01*
Y206000D01*
Y221418D01*
X215993Y229507D01*
X216298Y229962D01*
X216405Y230500D01*
Y243095D01*
X274977D01*
X275063Y243007D01*
D02*
G37*
G36*
X138354Y236160D02*
X138031Y235381D01*
X137882Y234250D01*
X138031Y233120D01*
X138467Y232066D01*
X139161Y231161D01*
X140066Y230467D01*
X140845Y230144D01*
Y228250D01*
X140952Y227712D01*
X141256Y227257D01*
X146095Y222418D01*
Y205582D01*
X129507Y188994D01*
X129202Y188538D01*
X129095Y188000D01*
Y171405D01*
X52803D01*
Y172000D01*
X52763Y172201D01*
X52937Y172507D01*
X53023Y172595D01*
X112500D01*
X113038Y172702D01*
X113494Y173006D01*
X114090Y173603D01*
X114869Y173281D01*
X116000Y173132D01*
X117130Y173281D01*
X118184Y173717D01*
X119089Y174411D01*
X119783Y175316D01*
X120219Y176370D01*
X120368Y177500D01*
X120219Y178630D01*
X119783Y179684D01*
X119089Y180589D01*
X118184Y181283D01*
X117130Y181719D01*
X116000Y181868D01*
X114869Y181719D01*
X113816Y181283D01*
X112911Y180589D01*
X112217Y179684D01*
X111781Y178630D01*
X111632Y177500D01*
X111781Y176370D01*
X112038Y175749D01*
X111775Y175405D01*
X59211D01*
X59048Y175799D01*
X59073Y175824D01*
X64102Y176396D01*
X64116Y176400D01*
X64130Y176399D01*
X69145Y177086D01*
X69158Y177091D01*
X69172Y177090D01*
X74170Y177892D01*
X74183Y177897D01*
X74197Y177897D01*
X79175Y178813D01*
X79185Y178817D01*
X79195Y178817D01*
X81676Y179318D01*
X81783Y179363D01*
X81897Y179385D01*
X84649Y180520D01*
X84664Y180529D01*
X84681Y180534D01*
X90117Y182960D01*
X90136Y182974D01*
X90159Y182980D01*
X95498Y185614D01*
X95517Y185628D01*
X95540Y185635D01*
X100773Y188472D01*
X100792Y188487D01*
X100814Y188495D01*
X105935Y191532D01*
X105952Y191547D01*
X105974Y191556D01*
X110974Y194788D01*
X110991Y194804D01*
X111012Y194813D01*
X115884Y198235D01*
X115901Y198252D01*
X115922Y198262D01*
X120659Y201869D01*
X120674Y201886D01*
X120695Y201897D01*
X125289Y205683D01*
X125304Y205702D01*
X125325Y205714D01*
X129770Y209674D01*
X129784Y209692D01*
X129804Y209705D01*
X134094Y213833D01*
X134107Y213853D01*
X134127Y213866D01*
X138254Y218156D01*
X138264Y218171D01*
X138278Y218181D01*
X140279Y220385D01*
X140361Y220522D01*
X140460Y220648D01*
X140474Y220694D01*
X140500Y220734D01*
X140506Y220763D01*
X140521Y220788D01*
X140545Y220946D01*
X140588Y221100D01*
X140583Y221147D01*
X140592Y221195D01*
X140586Y221224D01*
X140591Y221253D01*
X140552Y221408D01*
X140533Y221566D01*
X140510Y221608D01*
X140500Y221656D01*
X140484Y221680D01*
X140477Y221709D01*
X140382Y221837D01*
X140304Y221976D01*
X140266Y222006D01*
X140239Y222046D01*
X140215Y222063D01*
X140197Y222086D01*
X140061Y222169D01*
X139935Y222268D01*
X139889Y222281D01*
X139849Y222307D01*
X139820Y222313D01*
X139795Y222328D01*
X139637Y222352D01*
X139483Y222395D01*
X136724Y222614D01*
X131231Y223301D01*
X125774Y224234D01*
X120366Y225413D01*
X115016Y226835D01*
X109735Y228496D01*
X104535Y230394D01*
X99426Y232524D01*
X94418Y234883D01*
X89828Y237303D01*
X89925Y237697D01*
X90000D01*
X90307Y237758D01*
X90568Y237932D01*
X90676Y238095D01*
X136418D01*
X138354Y236160D01*
D02*
G37*
G36*
X321500Y173000D02*
X319546Y171046D01*
X317500Y173000D01*
Y175000D01*
X321500D01*
Y173000D01*
D02*
G37*
G36*
X48500D02*
X46454Y171046D01*
X44500Y173000D01*
Y175000D01*
X48500D01*
Y173000D01*
D02*
G37*
G36*
X318500Y170000D02*
X316000Y167500D01*
X314000D01*
Y172000D01*
X316500D01*
X318500Y170000D01*
D02*
G37*
G36*
X52000Y167500D02*
X50000D01*
X47500Y170000D01*
X49500Y172000D01*
X52000D01*
Y167500D01*
D02*
G37*
G36*
X313063Y172507D02*
X313237Y172201D01*
X313197Y172000D01*
Y171405D01*
X238500D01*
X237962Y171298D01*
X237507Y170993D01*
X234410Y167896D01*
X233630Y168219D01*
X232500Y168368D01*
X231369Y168219D01*
X230316Y167783D01*
X229411Y167089D01*
X228717Y166184D01*
X228281Y165130D01*
X228132Y164000D01*
X228281Y162870D01*
X228717Y161816D01*
X229411Y160911D01*
X230316Y160217D01*
X231369Y159781D01*
X232500Y159632D01*
X233630Y159781D01*
X234684Y160217D01*
X235589Y160911D01*
X236283Y161816D01*
X236719Y162870D01*
X236868Y164000D01*
X236719Y165130D01*
X236397Y165910D01*
X239082Y168595D01*
X313197D01*
Y167500D01*
X313258Y167193D01*
X313432Y166932D01*
X313693Y166758D01*
X314000Y166697D01*
X314793D01*
X314917Y166323D01*
X312593Y164594D01*
X309446Y162714D01*
X306126Y161161D01*
X302666Y159950D01*
X300907Y159528D01*
X299001Y159148D01*
X295110Y158572D01*
X291195Y158190D01*
X287266Y158002D01*
X283332Y158010D01*
X279404Y158214D01*
X275490Y158612D01*
X271601Y159204D01*
X267747Y159989D01*
X263936Y160964D01*
X260178Y162127D01*
X256482Y163475D01*
X254671Y164240D01*
X254572Y164260D01*
X254480Y164303D01*
X254344Y164307D01*
X254210Y164335D01*
X254111Y164316D01*
X254010Y164319D01*
X253883Y164272D01*
X253749Y164246D01*
X253664Y164191D01*
X253570Y164155D01*
X253470Y164063D01*
X253356Y163988D01*
X253300Y163904D01*
X253226Y163835D01*
X253169Y163712D01*
X253093Y163599D01*
X253072Y163500D01*
X253030Y163408D01*
X253025Y163272D01*
X252998Y163139D01*
X253017Y163040D01*
X253013Y162938D01*
X253061Y162811D01*
X253086Y162677D01*
X253142Y162593D01*
X253177Y162498D01*
X253270Y162399D01*
X253345Y162285D01*
X253429Y162228D01*
X253497Y162154D01*
X255033Y161046D01*
X255051Y161038D01*
X255064Y161024D01*
X258204Y158905D01*
X258228Y158895D01*
X258247Y158878D01*
X261473Y156894D01*
X261498Y156885D01*
X261517Y156868D01*
X264825Y155021D01*
X264849Y155013D01*
X264869Y154997D01*
X268251Y153292D01*
X268276Y153285D01*
X268297Y153270D01*
X271748Y151708D01*
X271773Y151702D01*
X271795Y151688D01*
X275309Y150274D01*
X275334Y150269D01*
X275356Y150256D01*
X276882Y149715D01*
X276874Y149321D01*
X275212Y148802D01*
X271452Y147938D01*
X267636Y147367D01*
X263788Y147090D01*
X259930Y147111D01*
X256085Y147429D01*
X252276Y148042D01*
X250401Y148494D01*
X250320Y148497D01*
X250244Y148521D01*
X250181Y148515D01*
X250119Y148527D01*
X250026Y148509D01*
X249931Y148512D01*
X249856Y148485D01*
X249776Y148477D01*
X249720Y148448D01*
X249658Y148435D01*
X249579Y148383D01*
X249490Y148350D01*
X249431Y148296D01*
X249360Y148258D01*
X249320Y148210D01*
X249267Y148174D01*
X249267D01*
X249215Y148096D01*
X249145Y148031D01*
X249111Y147959D01*
X249060Y147897D01*
X249041Y147836D01*
X249006Y147784D01*
X248988Y147691D01*
X248948Y147605D01*
X248945Y147525D01*
X248921Y147448D01*
X248927Y147385D01*
X248914Y147323D01*
X248933Y147230D01*
X248929Y147135D01*
X248957Y147060D01*
X248964Y146980D01*
X248994Y146924D01*
X249006Y146862D01*
X249059Y146783D01*
X249091Y146695D01*
X249146Y146635D01*
X249183Y146564D01*
X251433Y143791D01*
X251450Y143777D01*
X251461Y143757D01*
X256157Y138377D01*
X256180Y138359D01*
X256196Y138334D01*
X261145Y133185D01*
X261169Y133168D01*
X261186Y133144D01*
X266378Y128240D01*
X266403Y128224D01*
X266421Y128201D01*
X271842Y123552D01*
X271867Y123537D01*
X271887Y123515D01*
X277525Y119132D01*
X277552Y119119D01*
X277572Y119097D01*
X283415Y114991D01*
X283442Y114979D01*
X283463Y114958D01*
X289496Y111137D01*
X289524Y111127D01*
X289546Y111108D01*
X295757Y107581D01*
X295785Y107572D01*
X295808Y107554D01*
X302181Y104330D01*
X302209Y104322D01*
X302233Y104305D01*
X308753Y101392D01*
X308782Y101386D01*
X308807Y101370D01*
X315460Y98773D01*
X315482Y98770D01*
X315501Y98758D01*
X318872Y97581D01*
X318949Y97570D01*
X319019Y97540D01*
X321852Y96938D01*
X321881Y96938D01*
X321909Y96928D01*
X327625Y95999D01*
X327664Y96000D01*
X327702Y95989D01*
X333466Y95430D01*
X333505Y95434D01*
X333543Y95425D01*
X337450Y95299D01*
X337443Y94905D01*
X282082D01*
X226405Y150582D01*
Y172595D01*
X312977D01*
X313063Y172507D01*
D02*
G37*
G36*
X139194Y87500D02*
X139331Y86809D01*
X139723Y86223D01*
X143723Y82223D01*
X144309Y81831D01*
X145000Y81694D01*
X158752D01*
X172194Y68252D01*
Y36709D01*
X171244D01*
Y25811D01*
X169968D01*
Y30500D01*
X167000D01*
Y31000D01*
X166500D01*
Y36921D01*
X164547D01*
X164547Y60039D01*
X164508Y60238D01*
X164479Y60439D01*
X164462Y60467D01*
X164456Y60500D01*
X164343Y60669D01*
X164240Y60843D01*
X164213Y60863D01*
X164195Y60891D01*
X164026Y61004D01*
X163864Y61125D01*
X163832Y61133D01*
X163804Y61152D01*
X163605Y61191D01*
X163409Y61242D01*
X163376Y61237D01*
X163343Y61244D01*
X163144Y61204D01*
X162944Y61175D01*
X160099Y60175D01*
X154302Y58514D01*
X148418Y57197D01*
X142465Y56230D01*
X136467Y55615D01*
X130442Y55355D01*
X124412Y55450D01*
X119530Y55817D01*
X119437Y56199D01*
X120902Y57106D01*
X120925Y57127D01*
X120953Y57139D01*
X124167Y59357D01*
X124188Y59379D01*
X124215Y59393D01*
X127315Y61769D01*
X127335Y61791D01*
X127362Y61806D01*
X130338Y64334D01*
X130357Y64358D01*
X130383Y64374D01*
X133230Y67047D01*
X133248Y67072D01*
X133273Y67089D01*
X135983Y69901D01*
X136000Y69926D01*
X136024Y69945D01*
X138591Y72888D01*
X138602Y72908D01*
X138619Y72923D01*
X139847Y74442D01*
X139855Y74458D01*
X139869Y74470D01*
X139964Y74666D01*
X140065Y74858D01*
X140067Y74876D01*
X140075Y74892D01*
X140088Y75109D01*
X140108Y75326D01*
X140102Y75343D01*
X140103Y75361D01*
X140033Y75567D01*
X139968Y75774D01*
X139956Y75788D01*
X139950Y75806D01*
X139806Y75969D01*
X139667Y76135D01*
X139651Y76144D01*
X139639Y76157D01*
X139443Y76253D01*
X139251Y76354D01*
X139233Y76355D01*
X139217Y76363D01*
X138999Y76376D01*
X138783Y76396D01*
X138766Y76391D01*
X138748Y76392D01*
X138542Y76321D01*
X138335Y76256D01*
X138321Y76245D01*
X138303Y76239D01*
X135904Y74839D01*
X130960Y72305D01*
X125885Y70045D01*
X120694Y68065D01*
X115403Y66372D01*
X110028Y64969D01*
X104584Y63862D01*
X99087Y63054D01*
X93555Y62547D01*
X88003Y62342D01*
X82449Y62441D01*
X81515Y62509D01*
X81460Y62899D01*
X83201Y63533D01*
X83240Y63556D01*
X83283Y63566D01*
X86638Y65074D01*
X86674Y65100D01*
X86717Y65113D01*
X89952Y66863D01*
X89986Y66891D01*
X90028Y66907D01*
X93126Y68889D01*
X93159Y68920D01*
X93199Y68939D01*
X96144Y71142D01*
X96174Y71175D01*
X96213Y71197D01*
X98989Y73610D01*
X99016Y73645D01*
X99054Y73670D01*
X101646Y76279D01*
X101671Y76317D01*
X101706Y76344D01*
X104100Y79136D01*
X104122Y79175D01*
X104155Y79205D01*
X106339Y82165D01*
X106358Y82205D01*
X106388Y82237D01*
X108350Y85349D01*
X108362Y85380D01*
X108384Y85406D01*
X109277Y87013D01*
X109347Y87231D01*
X109420Y87447D01*
X109419Y87454D01*
X109421Y87460D01*
X109403Y87688D01*
X109387Y87916D01*
X109384Y87922D01*
X109383Y87929D01*
X109279Y88132D01*
X109177Y88336D01*
X109172Y88341D01*
X109169Y88347D01*
X108994Y88495D01*
X108822Y88644D01*
X108816Y88646D01*
X108810Y88651D01*
X108593Y88721D01*
X108376Y88793D01*
X108370Y88793D01*
X108363Y88795D01*
X108135Y88776D01*
X107908Y88760D01*
X107902Y88757D01*
X107895Y88757D01*
X107692Y88652D01*
X107487Y88550D01*
X105547Y87047D01*
X101482Y84297D01*
X97246Y81815D01*
X92860Y79612D01*
X88340Y77698D01*
X83706Y76080D01*
X78977Y74765D01*
X74173Y73758D01*
X69314Y73063D01*
X64420Y72685D01*
X59512Y72623D01*
X54610Y72879D01*
X49735Y73451D01*
X44907Y74337D01*
X40146Y75533D01*
X35473Y77035D01*
X30907Y78835D01*
X26466Y80927D01*
X22170Y83302D01*
X18036Y85949D01*
X14956Y88215D01*
X14962Y88269D01*
X15104Y88595D01*
X88000D01*
X88538Y88702D01*
X88993Y89007D01*
X113082Y113095D01*
X125894D01*
X126217Y112316D01*
X126911Y111411D01*
X127816Y110717D01*
X128869Y110281D01*
X130000Y110132D01*
X131131Y110281D01*
X132184Y110717D01*
X133089Y111411D01*
X133783Y112316D01*
X134219Y113370D01*
X134368Y114500D01*
X134219Y115630D01*
X133783Y116684D01*
X133089Y117589D01*
X132184Y118283D01*
X131131Y118719D01*
X130000Y118868D01*
X128869Y118719D01*
X127816Y118283D01*
X126911Y117589D01*
X126217Y116684D01*
X125894Y115905D01*
X112500D01*
X111962Y115798D01*
X111506Y115494D01*
X87418Y91405D01*
X15582D01*
X15303Y91684D01*
Y92696D01*
X15667Y92847D01*
X16006Y92507D01*
X16462Y92202D01*
X17000Y92095D01*
X81000D01*
X81538Y92202D01*
X81993Y92507D01*
X113582Y124095D01*
X139194D01*
Y87500D01*
D02*
G37*
G36*
X359000Y95000D02*
X356500Y93000D01*
X354500Y95000D01*
X356500Y97000D01*
X359000D01*
Y95000D01*
D02*
G37*
G36*
X11500D02*
X9500Y93000D01*
X7000Y95000D01*
Y97000D01*
X9500D01*
X11500Y95000D01*
D02*
G37*
G36*
X205095Y192500D02*
X205202Y191962D01*
X205507Y191507D01*
X223595Y173418D01*
Y150000D01*
X223702Y149462D01*
X224007Y149007D01*
X280507Y92507D01*
X280962Y92202D01*
X281500Y92095D01*
X349000D01*
X349538Y92202D01*
X349993Y92507D01*
X350333Y92847D01*
X350697Y92696D01*
Y91684D01*
X350418Y91405D01*
X277582D01*
X261493Y107493D01*
X261493Y107493D01*
X252493Y116493D01*
X252038Y116798D01*
X251500Y116905D01*
X231806D01*
Y125167D01*
X232109Y125292D01*
X233014Y125987D01*
X233708Y126891D01*
X234144Y127945D01*
X234293Y129075D01*
X234144Y130206D01*
X233708Y131259D01*
X233014Y132164D01*
X232109Y132858D01*
X231055Y133294D01*
X229925Y133443D01*
X228794Y133294D01*
X227741Y132858D01*
X226836Y132164D01*
X226142Y131259D01*
X225819Y130480D01*
X208405D01*
Y170894D01*
X209184Y171217D01*
X210089Y171911D01*
X210783Y172816D01*
X211219Y173870D01*
X211368Y175000D01*
X211219Y176130D01*
X210783Y177184D01*
X210089Y178089D01*
X209184Y178783D01*
X208131Y179219D01*
X207000Y179368D01*
X205870Y179219D01*
X204816Y178783D01*
X203911Y178089D01*
X203217Y177184D01*
X202781Y176130D01*
X202632Y175000D01*
X202781Y173870D01*
X203217Y172816D01*
X203911Y171911D01*
X204816Y171217D01*
X205595Y170894D01*
Y130480D01*
X160575D01*
X160038Y130373D01*
X159582Y130069D01*
X151410Y121897D01*
X150630Y122219D01*
X149500Y122368D01*
X148370Y122219D01*
X147316Y121783D01*
X146411Y121089D01*
X145717Y120184D01*
X145281Y119131D01*
X145132Y118000D01*
X145281Y116869D01*
X145717Y115816D01*
X146411Y114911D01*
X147316Y114217D01*
X148370Y113781D01*
X149500Y113632D01*
X150630Y113781D01*
X151684Y114217D01*
X152589Y114911D01*
X153283Y115816D01*
X153719Y116869D01*
X153868Y118000D01*
X153719Y119131D01*
X153396Y119910D01*
X161157Y127670D01*
X225819D01*
X226142Y126891D01*
X226836Y125987D01*
X227741Y125292D01*
X228194Y125105D01*
Y115500D01*
Y93248D01*
X220252Y85306D01*
X207000D01*
X206309Y85169D01*
X205723Y84777D01*
X190623Y69677D01*
X190231Y69091D01*
X190094Y68400D01*
Y36709D01*
X189244D01*
Y25811D01*
X176756D01*
Y36709D01*
X175806D01*
Y69000D01*
X175669Y69691D01*
X175277Y70277D01*
X160777Y84777D01*
X160191Y85169D01*
X159500Y85306D01*
X145748D01*
X142806Y88248D01*
Y125500D01*
Y160000D01*
X142669Y160691D01*
X142277Y161277D01*
X139806Y163748D01*
Y174061D01*
X140184Y174217D01*
X141089Y174911D01*
X141783Y175816D01*
X142219Y176869D01*
X142368Y178000D01*
X142219Y179130D01*
X142063Y179508D01*
X157277Y194723D01*
X157669Y195309D01*
X157806Y196000D01*
Y204595D01*
X205095D01*
Y192500D01*
D02*
G37*
G36*
X355750Y92250D02*
X354000Y90500D01*
X351500D01*
Y93500D01*
X354500D01*
X355750Y92250D01*
D02*
G37*
G36*
X14500Y90500D02*
X12000D01*
X10250Y92250D01*
X11500Y93500D01*
X14500D01*
Y90500D01*
D02*
G37*
G36*
X259507Y105507D02*
X259507Y105507D01*
X276007Y89007D01*
X276462Y88702D01*
X277000Y88595D01*
X350595D01*
X350963Y88206D01*
X350959Y88112D01*
X348020Y85949D01*
X343886Y83302D01*
X339590Y80927D01*
X335150Y78835D01*
X330583Y77035D01*
X325910Y75533D01*
X321150Y74337D01*
X316322Y73451D01*
X311446Y72879D01*
X306545Y72623D01*
X301637Y72685D01*
X296743Y73063D01*
X291883Y73758D01*
X287079Y74765D01*
X282350Y76080D01*
X277716Y77698D01*
X273196Y79612D01*
X268810Y81815D01*
X264575Y84297D01*
X260509Y87047D01*
X258569Y88550D01*
X258365Y88652D01*
X258162Y88757D01*
X258155Y88757D01*
X258149Y88760D01*
X257921Y88776D01*
X257693Y88795D01*
X257687Y88793D01*
X257680Y88793D01*
X257463Y88721D01*
X257246Y88651D01*
X257241Y88646D01*
X257234Y88644D01*
X257062Y88494D01*
X256888Y88347D01*
X256885Y88341D01*
X256879Y88336D01*
X256777Y88132D01*
X256673Y87929D01*
X256673Y87922D01*
X256670Y87916D01*
X256654Y87688D01*
X256635Y87461D01*
X256637Y87454D01*
X256637Y87447D01*
X256709Y87230D01*
X256779Y87013D01*
X257673Y85406D01*
X257695Y85380D01*
X257706Y85349D01*
X259668Y82237D01*
X259699Y82205D01*
X259718Y82165D01*
X261901Y79205D01*
X261934Y79175D01*
X261956Y79136D01*
X264351Y76344D01*
X264386Y76316D01*
X264410Y76279D01*
X267003Y73670D01*
X267040Y73645D01*
X267067Y73610D01*
X269843Y71197D01*
X269882Y71175D01*
X269912Y71142D01*
X272857Y68939D01*
X272898Y68920D01*
X272930Y68889D01*
X276028Y66907D01*
X276070Y66891D01*
X276104Y66863D01*
X279340Y65113D01*
X279382Y65100D01*
X279419Y65074D01*
X282773Y63566D01*
X282817Y63556D01*
X282855Y63533D01*
X284596Y62899D01*
X284542Y62509D01*
X283608Y62441D01*
X278053Y62342D01*
X272501Y62547D01*
X266969Y63054D01*
X261473Y63862D01*
X256029Y64969D01*
X250653Y66372D01*
X245362Y68065D01*
X240171Y70045D01*
X235096Y72305D01*
X230152Y74839D01*
X227753Y76239D01*
X227736Y76245D01*
X227722Y76256D01*
X227514Y76321D01*
X227309Y76392D01*
X227291Y76391D01*
X227273Y76396D01*
X227057Y76376D01*
X226840Y76363D01*
X226823Y76355D01*
X226805Y76354D01*
X226613Y76253D01*
X226417Y76157D01*
X226405Y76144D01*
X226389Y76135D01*
X226250Y75968D01*
X226106Y75805D01*
X226100Y75788D01*
X226088Y75774D01*
X226024Y75567D01*
X225953Y75361D01*
X225954Y75343D01*
X225949Y75326D01*
X225968Y75109D01*
X225981Y74892D01*
X225989Y74876D01*
X225991Y74858D01*
X226092Y74665D01*
X226187Y74470D01*
X226201Y74458D01*
X226209Y74442D01*
X227437Y72923D01*
X227454Y72908D01*
X227466Y72888D01*
X230032Y69945D01*
X230057Y69926D01*
X230073Y69901D01*
X232783Y67089D01*
X232808Y67072D01*
X232826Y67047D01*
X235673Y64374D01*
X235699Y64358D01*
X235718Y64334D01*
X238695Y61806D01*
X238721Y61791D01*
X238742Y61769D01*
X241841Y59393D01*
X241868Y59379D01*
X241890Y59357D01*
X245104Y57139D01*
X245132Y57127D01*
X245154Y57106D01*
X246620Y56199D01*
X246526Y55817D01*
X241644Y55450D01*
X235614Y55355D01*
X229590Y55615D01*
X223591Y56230D01*
X217639Y57197D01*
X211754Y58514D01*
X205957Y60175D01*
X203113Y61175D01*
X202912Y61204D01*
X202713Y61244D01*
X202680Y61237D01*
X202647Y61242D01*
X202451Y61191D01*
X202252Y61152D01*
X202225Y61133D01*
X202192Y61125D01*
X202030Y61004D01*
X201862Y60891D01*
X201843Y60863D01*
X201817Y60843D01*
X201713Y60669D01*
X201601Y60500D01*
X201594Y60467D01*
X201577Y60439D01*
X201549Y60238D01*
X201509Y60039D01*
X201509Y60039D01*
Y36921D01*
X199500D01*
Y31000D01*
X199000D01*
Y30500D01*
X196031D01*
Y25811D01*
X194756D01*
Y36709D01*
X193706D01*
Y67652D01*
X207748Y81694D01*
X221000D01*
X221691Y81831D01*
X222277Y82223D01*
X231277Y91223D01*
X231669Y91809D01*
X231806Y92500D01*
Y114095D01*
X250918D01*
X259507Y105507D01*
D02*
G37*
%LPC*%
G36*
X133500Y256517D02*
Y252500D01*
X137517D01*
X137426Y253186D01*
X136969Y254291D01*
X136240Y255240D01*
X135291Y255969D01*
X134186Y256426D01*
X133500Y256517D01*
D02*
G37*
G36*
X132500D02*
X131814Y256426D01*
X130709Y255969D01*
X129760Y255240D01*
X129031Y254291D01*
X128574Y253186D01*
X128483Y252500D01*
X132500D01*
Y256517D01*
D02*
G37*
G36*
X117000D02*
Y252500D01*
X121017D01*
X120926Y253186D01*
X120469Y254291D01*
X119740Y255240D01*
X118791Y255969D01*
X117686Y256426D01*
X117000Y256517D01*
D02*
G37*
G36*
X116000D02*
X115314Y256426D01*
X114209Y255969D01*
X113260Y255240D01*
X112531Y254291D01*
X112074Y253186D01*
X111983Y252500D01*
X116000D01*
Y256517D01*
D02*
G37*
G36*
X137517Y251500D02*
X133500D01*
Y247483D01*
X134186Y247574D01*
X135291Y248031D01*
X136240Y248760D01*
X136969Y249709D01*
X137426Y250814D01*
X137517Y251500D01*
D02*
G37*
G36*
X132500D02*
X128483D01*
X128574Y250814D01*
X129031Y249709D01*
X129760Y248760D01*
X130709Y248031D01*
X131814Y247574D01*
X132500Y247483D01*
Y251500D01*
D02*
G37*
G36*
X121017D02*
X117000D01*
Y247483D01*
X117686Y247574D01*
X118791Y248031D01*
X119740Y248760D01*
X120469Y249709D01*
X120926Y250814D01*
X121017Y251500D01*
D02*
G37*
G36*
X116000D02*
X111983D01*
X112074Y250814D01*
X112531Y249709D01*
X113260Y248760D01*
X114209Y248031D01*
X115314Y247574D01*
X116000Y247483D01*
Y251500D01*
D02*
G37*
G36*
X213500Y259517D02*
Y255500D01*
X217517D01*
X217426Y256186D01*
X216969Y257291D01*
X216240Y258240D01*
X215291Y258969D01*
X214186Y259426D01*
X213500Y259517D01*
D02*
G37*
G36*
X212500D02*
X211814Y259426D01*
X210709Y258969D01*
X209760Y258240D01*
X209031Y257291D01*
X208574Y256186D01*
X208483Y255500D01*
X212500D01*
Y259517D01*
D02*
G37*
G36*
X228500Y259017D02*
Y255000D01*
X232517D01*
X232426Y255686D01*
X231969Y256791D01*
X231240Y257740D01*
X230291Y258469D01*
X229186Y258926D01*
X228500Y259017D01*
D02*
G37*
G36*
X227500D02*
X226814Y258926D01*
X225709Y258469D01*
X224760Y257740D01*
X224031Y256791D01*
X223574Y255686D01*
X223483Y255000D01*
X227500D01*
Y259017D01*
D02*
G37*
G36*
X217517Y254500D02*
X213500D01*
Y250483D01*
X214186Y250574D01*
X215291Y251031D01*
X216240Y251760D01*
X216969Y252709D01*
X217426Y253814D01*
X217517Y254500D01*
D02*
G37*
G36*
X232517Y254000D02*
X228500D01*
Y249983D01*
X229186Y250074D01*
X230291Y250531D01*
X231240Y251260D01*
X231969Y252209D01*
X232426Y253314D01*
X232517Y254000D01*
D02*
G37*
G36*
X227500D02*
X223483D01*
X223574Y253314D01*
X224031Y252209D01*
X224760Y251260D01*
X225709Y250531D01*
X226814Y250074D01*
X227500Y249983D01*
Y254000D01*
D02*
G37*
G36*
X201500Y331517D02*
Y327500D01*
X205517D01*
X205426Y328186D01*
X204969Y329291D01*
X204240Y330240D01*
X203291Y330969D01*
X202186Y331426D01*
X201500Y331517D01*
D02*
G37*
G36*
X200500D02*
X199814Y331426D01*
X198709Y330969D01*
X197760Y330240D01*
X197031Y329291D01*
X196574Y328186D01*
X196483Y327500D01*
X200500D01*
Y331517D01*
D02*
G37*
G36*
X162000D02*
Y327500D01*
X166017D01*
X165926Y328186D01*
X165469Y329291D01*
X164740Y330240D01*
X163791Y330969D01*
X162686Y331426D01*
X162000Y331517D01*
D02*
G37*
G36*
X161000D02*
X160314Y331426D01*
X159209Y330969D01*
X158260Y330240D01*
X157531Y329291D01*
X157074Y328186D01*
X156983Y327500D01*
X161000D01*
Y331517D01*
D02*
G37*
G36*
X205517Y326500D02*
X201500D01*
Y322483D01*
X202186Y322574D01*
X203291Y323031D01*
X204240Y323760D01*
X204969Y324709D01*
X205426Y325814D01*
X205517Y326500D01*
D02*
G37*
G36*
X200500D02*
X196483D01*
X196574Y325814D01*
X197031Y324709D01*
X197760Y323760D01*
X198709Y323031D01*
X199814Y322574D01*
X200500Y322483D01*
Y326500D01*
D02*
G37*
G36*
X166017D02*
X162000D01*
Y322483D01*
X162686Y322574D01*
X163791Y323031D01*
X164740Y323760D01*
X165469Y324709D01*
X165926Y325814D01*
X166017Y326500D01*
D02*
G37*
G36*
X161000D02*
X156983D01*
X157074Y325814D01*
X157531Y324709D01*
X158260Y323760D01*
X159209Y323031D01*
X160314Y322574D01*
X161000Y322483D01*
Y326500D01*
D02*
G37*
G36*
X172000Y243969D02*
X166579D01*
Y241500D01*
X172000D01*
Y243969D01*
D02*
G37*
G36*
X178421Y240500D02*
X173000D01*
Y238032D01*
X178421D01*
Y240500D01*
D02*
G37*
G36*
X172000D02*
X166579D01*
Y238032D01*
X172000D01*
Y240500D01*
D02*
G37*
G36*
X199421Y236968D02*
X194000D01*
Y234500D01*
X199421D01*
Y236968D01*
D02*
G37*
G36*
X193000D02*
X187579D01*
Y234500D01*
X193000D01*
Y236968D01*
D02*
G37*
G36*
X199421Y233500D02*
X194000D01*
Y231031D01*
X199421D01*
Y233500D01*
D02*
G37*
G36*
X193000D02*
X187579D01*
Y231031D01*
X193000D01*
Y233500D01*
D02*
G37*
G36*
X146000Y199517D02*
Y195500D01*
X150017D01*
X149926Y196186D01*
X149469Y197291D01*
X148740Y198240D01*
X147791Y198969D01*
X146686Y199426D01*
X146000Y199517D01*
D02*
G37*
G36*
X145000Y194500D02*
X140983D01*
X141074Y193814D01*
X141531Y192709D01*
X142260Y191760D01*
X143209Y191031D01*
X144314Y190574D01*
X145000Y190483D01*
Y194500D01*
D02*
G37*
G36*
X246500Y237517D02*
Y233500D01*
X250517D01*
X250426Y234186D01*
X249969Y235291D01*
X249240Y236240D01*
X248291Y236969D01*
X247186Y237426D01*
X246500Y237517D01*
D02*
G37*
G36*
X245500D02*
X244814Y237426D01*
X243709Y236969D01*
X242760Y236240D01*
X242031Y235291D01*
X241574Y234186D01*
X241483Y233500D01*
X245500D01*
Y237517D01*
D02*
G37*
G36*
X250517Y232500D02*
X246500D01*
Y228483D01*
X247186Y228574D01*
X248291Y229031D01*
X249240Y229760D01*
X249969Y230709D01*
X250426Y231814D01*
X250517Y232500D01*
D02*
G37*
G36*
X245500D02*
X241483D01*
X241574Y231814D01*
X242031Y230709D01*
X242760Y229760D01*
X243709Y229031D01*
X244814Y228574D01*
X245500Y228483D01*
Y232500D01*
D02*
G37*
G36*
X216000Y201017D02*
Y197000D01*
X220017D01*
X219926Y197686D01*
X219469Y198791D01*
X218740Y199740D01*
X217791Y200469D01*
X216686Y200926D01*
X216000Y201017D01*
D02*
G37*
G36*
X215000D02*
X214314Y200926D01*
X213209Y200469D01*
X212260Y199740D01*
X211531Y198791D01*
X211074Y197686D01*
X210983Y197000D01*
X215000D01*
Y201017D01*
D02*
G37*
G36*
X220017Y196000D02*
X216000D01*
Y191983D01*
X216686Y192074D01*
X217791Y192531D01*
X218740Y193260D01*
X219469Y194209D01*
X219926Y195314D01*
X220017Y196000D01*
D02*
G37*
G36*
X215000D02*
X210983D01*
X211074Y195314D01*
X211531Y194209D01*
X212260Y193260D01*
X213209Y192531D01*
X214314Y192074D01*
X215000Y191983D01*
Y196000D01*
D02*
G37*
G36*
X123500Y197517D02*
Y193500D01*
X127517D01*
X127426Y194186D01*
X126969Y195291D01*
X126240Y196240D01*
X125291Y196969D01*
X124186Y197426D01*
X123500Y197517D01*
D02*
G37*
G36*
X122500D02*
X121814Y197426D01*
X120709Y196969D01*
X119760Y196240D01*
X119031Y195291D01*
X118574Y194186D01*
X118483Y193500D01*
X122500D01*
Y197517D01*
D02*
G37*
G36*
X127517Y192500D02*
X123500D01*
Y188483D01*
X124186Y188574D01*
X125291Y189031D01*
X126240Y189760D01*
X126969Y190709D01*
X127426Y191814D01*
X127517Y192500D01*
D02*
G37*
G36*
X122500D02*
X118483D01*
X118574Y191814D01*
X119031Y190709D01*
X119760Y189760D01*
X120709Y189031D01*
X121814Y188574D01*
X122500Y188483D01*
Y192500D01*
D02*
G37*
G36*
X285000Y168017D02*
Y164000D01*
X289017D01*
X288926Y164686D01*
X288469Y165791D01*
X287740Y166740D01*
X286791Y167469D01*
X285686Y167926D01*
X285000Y168017D01*
D02*
G37*
G36*
X284000D02*
X283314Y167926D01*
X282209Y167469D01*
X281260Y166740D01*
X280531Y165791D01*
X280074Y164686D01*
X279983Y164000D01*
X284000D01*
Y168017D01*
D02*
G37*
G36*
X289017Y163000D02*
X285000D01*
Y158983D01*
X285686Y159074D01*
X286791Y159531D01*
X287740Y160260D01*
X288469Y161209D01*
X288926Y162314D01*
X289017Y163000D01*
D02*
G37*
G36*
X284000D02*
X279983D01*
X280074Y162314D01*
X280531Y161209D01*
X281260Y160260D01*
X282209Y159531D01*
X283314Y159074D01*
X284000Y158983D01*
Y163000D01*
D02*
G37*
G36*
X169968Y36921D02*
X167500D01*
Y31500D01*
X169968D01*
Y36921D01*
D02*
G37*
G36*
X165500Y196017D02*
Y192000D01*
X169517D01*
X169426Y192686D01*
X168969Y193791D01*
X168240Y194740D01*
X167291Y195469D01*
X166186Y195926D01*
X165500Y196017D01*
D02*
G37*
G36*
X164500D02*
X163814Y195926D01*
X162709Y195469D01*
X161760Y194740D01*
X161031Y193791D01*
X160574Y192686D01*
X160483Y192000D01*
X164500D01*
Y196017D01*
D02*
G37*
G36*
X169517Y191000D02*
X165500D01*
Y186983D01*
X166186Y187074D01*
X167291Y187531D01*
X168240Y188260D01*
X168969Y189209D01*
X169426Y190314D01*
X169517Y191000D01*
D02*
G37*
G36*
X164500D02*
X160483D01*
X160574Y190314D01*
X161031Y189209D01*
X161760Y188260D01*
X162709Y187531D01*
X163814Y187074D01*
X164500Y186983D01*
Y191000D01*
D02*
G37*
G36*
X151500Y181017D02*
Y177000D01*
X155517D01*
X155426Y177686D01*
X154969Y178791D01*
X154240Y179740D01*
X153291Y180469D01*
X152186Y180926D01*
X151500Y181017D01*
D02*
G37*
G36*
X150500D02*
X149814Y180926D01*
X148709Y180469D01*
X147760Y179740D01*
X147031Y178791D01*
X146574Y177686D01*
X146483Y177000D01*
X150500D01*
Y181017D01*
D02*
G37*
G36*
X155517Y176000D02*
X151500D01*
Y171983D01*
X152186Y172074D01*
X153291Y172531D01*
X154240Y173260D01*
X154969Y174209D01*
X155426Y175314D01*
X155517Y176000D01*
D02*
G37*
G36*
X150500D02*
X146483D01*
X146574Y175314D01*
X147031Y174209D01*
X147760Y173260D01*
X148709Y172531D01*
X149814Y172074D01*
X150500Y171983D01*
Y176000D01*
D02*
G37*
G36*
X150000Y160517D02*
Y156500D01*
X154017D01*
X153926Y157186D01*
X153469Y158291D01*
X152740Y159240D01*
X151791Y159969D01*
X150686Y160426D01*
X150000Y160517D01*
D02*
G37*
G36*
X149000D02*
X148314Y160426D01*
X147209Y159969D01*
X146260Y159240D01*
X145531Y158291D01*
X145074Y157186D01*
X144983Y156500D01*
X149000D01*
Y160517D01*
D02*
G37*
G36*
X154017Y155500D02*
X150000D01*
Y151483D01*
X150686Y151574D01*
X151791Y152031D01*
X152740Y152760D01*
X153469Y153709D01*
X153926Y154814D01*
X154017Y155500D01*
D02*
G37*
G36*
X149000D02*
X144983D01*
X145074Y154814D01*
X145531Y153709D01*
X146260Y152760D01*
X147209Y152031D01*
X148314Y151574D01*
X149000Y151483D01*
Y155500D01*
D02*
G37*
G36*
X184000Y146517D02*
Y142500D01*
X188017D01*
X187926Y143186D01*
X187469Y144291D01*
X186740Y145240D01*
X185791Y145969D01*
X184686Y146426D01*
X184000Y146517D01*
D02*
G37*
G36*
X183000D02*
X182314Y146426D01*
X181209Y145969D01*
X180260Y145240D01*
X179531Y144291D01*
X179074Y143186D01*
X178983Y142500D01*
X183000D01*
Y146517D01*
D02*
G37*
G36*
X188017Y141500D02*
X184000D01*
Y137483D01*
X184686Y137574D01*
X185791Y138031D01*
X186740Y138760D01*
X187469Y139709D01*
X187926Y140814D01*
X188017Y141500D01*
D02*
G37*
G36*
X183000D02*
X178983D01*
X179074Y140814D01*
X179531Y139709D01*
X180260Y138760D01*
X181209Y138031D01*
X182314Y137574D01*
X183000Y137483D01*
Y141500D01*
D02*
G37*
G36*
X241500Y128517D02*
Y124500D01*
X245517D01*
X245426Y125186D01*
X244969Y126291D01*
X244240Y127240D01*
X243291Y127969D01*
X242186Y128426D01*
X241500Y128517D01*
D02*
G37*
G36*
X240500D02*
X239814Y128426D01*
X238709Y127969D01*
X237760Y127240D01*
X237031Y126291D01*
X236574Y125186D01*
X236483Y124500D01*
X240500D01*
Y128517D01*
D02*
G37*
G36*
X245517Y123500D02*
X241500D01*
Y119483D01*
X242186Y119574D01*
X243291Y120031D01*
X244240Y120760D01*
X244969Y121709D01*
X245426Y122814D01*
X245517Y123500D01*
D02*
G37*
G36*
X240500D02*
X236483D01*
X236574Y122814D01*
X237031Y121709D01*
X237760Y120760D01*
X238709Y120031D01*
X239814Y119574D01*
X240500Y119483D01*
Y123500D01*
D02*
G37*
G36*
X217000Y96868D02*
X215869Y96719D01*
X214816Y96283D01*
X213911Y95589D01*
X213217Y94684D01*
X212894Y93905D01*
X189106D01*
X188783Y94684D01*
X188089Y95589D01*
X187184Y96283D01*
X186130Y96719D01*
X185000Y96868D01*
X183870Y96719D01*
X182816Y96283D01*
X181911Y95589D01*
X181217Y94684D01*
X180963Y94071D01*
X180537D01*
X180283Y94684D01*
X179589Y95589D01*
X178684Y96283D01*
X177630Y96719D01*
X176500Y96868D01*
X175370Y96719D01*
X174316Y96283D01*
X173411Y95589D01*
X172717Y94684D01*
X172394Y93905D01*
X153106D01*
X152783Y94684D01*
X152089Y95589D01*
X151184Y96283D01*
X150130Y96719D01*
X149000Y96868D01*
X147870Y96719D01*
X146816Y96283D01*
X145911Y95589D01*
X145217Y94684D01*
X144781Y93630D01*
X144632Y92500D01*
X144781Y91369D01*
X145217Y90316D01*
X145911Y89411D01*
X146816Y88717D01*
X147870Y88281D01*
X149000Y88132D01*
X150130Y88281D01*
X151184Y88717D01*
X152089Y89411D01*
X152783Y90316D01*
X153106Y91095D01*
X172394D01*
X172717Y90316D01*
X173411Y89411D01*
X174316Y88717D01*
X175370Y88281D01*
X176500Y88132D01*
X177630Y88281D01*
X178684Y88717D01*
X179589Y89411D01*
X180283Y90316D01*
X180537Y90929D01*
X180963D01*
X181217Y90316D01*
X181911Y89411D01*
X182816Y88717D01*
X183870Y88281D01*
X185000Y88132D01*
X186130Y88281D01*
X187184Y88717D01*
X188089Y89411D01*
X188783Y90316D01*
X189106Y91095D01*
X212894D01*
X213217Y90316D01*
X213911Y89411D01*
X214816Y88717D01*
X215869Y88281D01*
X217000Y88132D01*
X218130Y88281D01*
X219184Y88717D01*
X220089Y89411D01*
X220783Y90316D01*
X221219Y91369D01*
X221368Y92500D01*
X221219Y93630D01*
X220783Y94684D01*
X220089Y95589D01*
X219184Y96283D01*
X218130Y96719D01*
X217000Y96868D01*
D02*
G37*
G36*
X209000Y73017D02*
Y69000D01*
X213017D01*
X212926Y69686D01*
X212469Y70791D01*
X211740Y71740D01*
X210791Y72469D01*
X209686Y72926D01*
X209000Y73017D01*
D02*
G37*
G36*
X208000D02*
X207314Y72926D01*
X206209Y72469D01*
X205260Y71740D01*
X204531Y70791D01*
X204074Y69686D01*
X203983Y69000D01*
X208000D01*
Y73017D01*
D02*
G37*
G36*
X213017Y68000D02*
X209000D01*
Y63983D01*
X209686Y64074D01*
X210791Y64531D01*
X211740Y65260D01*
X212469Y66209D01*
X212926Y67314D01*
X213017Y68000D01*
D02*
G37*
G36*
X208000D02*
X203983D01*
X204074Y67314D01*
X204531Y66209D01*
X205260Y65260D01*
X206209Y64531D01*
X207314Y64074D01*
X208000Y63983D01*
Y68000D01*
D02*
G37*
G36*
X198500Y36921D02*
X196031D01*
Y31500D01*
X198500D01*
Y36921D01*
D02*
G37*
%LPD*%
D10*
X192000Y31000D02*
D03*
X174000D02*
D03*
X199000D02*
D03*
D11*
X193500Y241000D02*
D03*
X172500Y234000D02*
D03*
D12*
X283000Y243500D02*
D03*
X278000Y239500D02*
D03*
X358000Y96000D02*
D03*
X353000Y92000D02*
D03*
X88000Y239500D02*
D03*
X83000Y243500D02*
D03*
X121500Y307000D02*
D03*
X116500Y311000D02*
D03*
X13000Y92000D02*
D03*
X8000Y96000D02*
D03*
X320500Y174000D02*
D03*
X315500Y170000D02*
D03*
X50500D02*
D03*
X45500Y174000D02*
D03*
X249500Y311000D02*
D03*
X244500Y307000D02*
D03*
D13*
X174000Y31000D02*
Y69000D01*
X191900Y31496D02*
Y68400D01*
X156000Y196000D02*
Y206000D01*
X138000Y178000D02*
X156000Y196000D01*
X138000Y163000D02*
Y178000D01*
X141000Y125500D02*
Y160000D01*
X138000Y163000D02*
X141000Y160000D01*
Y87500D02*
Y125500D01*
Y87500D02*
X145000Y83500D01*
X230000Y115500D02*
Y129000D01*
Y92500D02*
Y115500D01*
X229925Y129075D02*
X230000Y129000D01*
X193500Y241000D02*
X207000D01*
X221000Y83500D02*
X230000Y92500D01*
X191900Y68400D02*
X207000Y83500D01*
X221000D01*
X156000Y206000D02*
Y225500D01*
X145000Y83500D02*
X159500D01*
X174000Y69000D01*
X164500Y234000D02*
X172500D01*
X156000Y225500D02*
X164500Y234000D01*
D14*
X130500Y153500D02*
X130750Y153250D01*
X130500Y153500D02*
Y170000D01*
X45500Y174000D02*
X112500D01*
X116000Y177500D01*
X203000Y256500D02*
X215000Y244500D01*
X203000Y256500D02*
Y305500D01*
X156000Y206000D02*
X206500D01*
Y222000D01*
Y192500D02*
Y206000D01*
Y192500D02*
X225000Y174000D01*
X235000Y239500D02*
X278000D01*
X220500Y225000D02*
X235000Y239500D01*
X220500Y211000D02*
Y225000D01*
Y211000D02*
X224500Y207000D01*
Y186500D02*
Y207000D01*
X142500Y257000D02*
Y266500D01*
X260500Y106500D02*
X277000Y90000D01*
X351000D02*
X353000Y92000D01*
X277000Y90000D02*
X351000D01*
X13000Y92000D02*
X15000Y90000D01*
X88000D02*
X112500Y114500D01*
X15000Y90000D02*
X88000D01*
X147500Y205000D02*
Y223000D01*
X142250Y228250D02*
X147500Y223000D01*
X142250Y228250D02*
Y234250D01*
X151000Y244500D02*
Y265500D01*
X166000Y280500D01*
Y304500D01*
X123500Y314500D02*
X156000D01*
X166000Y304500D01*
X207000Y129075D02*
X229925D01*
X160575D02*
X207000D01*
Y175000D01*
X149500Y118000D02*
X160575Y129075D01*
X260500Y106500D02*
Y106500D01*
X251500Y115500D02*
X260500Y106500D01*
X230000Y115500D02*
X251500D01*
X112500Y114500D02*
X130000D01*
X232000Y308000D02*
X243500D01*
X226500Y313500D02*
X232000Y308000D01*
X217000Y319500D02*
X237500D01*
X244500Y312500D01*
X203000Y305500D02*
X217000Y319500D01*
X232500Y164000D02*
X238500Y170000D01*
X315500D01*
X281500Y93500D02*
X349000D01*
X225000Y150000D02*
Y174000D01*
Y150000D02*
X281500Y93500D01*
X225000Y174000D02*
X320500D01*
X357606Y95606D02*
X358000Y96000D01*
X357106Y95606D02*
X357606D01*
X356492Y94992D02*
X357106Y95606D01*
X349728Y94228D02*
Y94234D01*
X350766Y95272D01*
X355234D01*
X355514Y94992D01*
X356492D01*
X349000Y93500D02*
X349728Y94228D01*
X247500Y312500D02*
X248500Y311500D01*
X244500Y312500D02*
X247500D01*
X280500Y243500D02*
X283000D01*
X279500Y244500D02*
X280500Y243500D01*
X215000Y244500D02*
X279500D01*
X206500Y222000D02*
X215000Y230500D01*
Y244500D01*
X151000Y230500D02*
Y244500D01*
Y230500D02*
X156000Y225500D01*
X137000Y239500D02*
X142250Y234250D01*
X142500Y266500D02*
X160500Y284500D01*
Y302500D01*
X156000Y307000D02*
X160500Y302500D01*
X121500Y307000D02*
X156000D01*
X81000Y93500D02*
X113000Y125500D01*
X141000D01*
X130500Y170000D02*
Y188000D01*
X50500Y170000D02*
X130500D01*
Y188000D02*
X147500Y205000D01*
X88000Y239500D02*
X137000D01*
X86500Y244500D02*
X151000D01*
X85500Y243500D02*
X86500Y244500D01*
X83000Y243500D02*
X85500D01*
X149000Y92500D02*
X176500D01*
X17000Y93500D02*
X81000D01*
X121500Y312500D02*
X123500Y314500D01*
X118500Y312500D02*
X121500D01*
X117500Y311500D02*
X118500Y312500D01*
X16272Y94228D02*
X17000Y93500D01*
X9508Y94992D02*
X10486D01*
X10766Y95272D01*
X15234D01*
X16272Y94234D01*
Y94228D02*
Y94234D01*
X8894Y95606D02*
X9508Y94992D01*
X8394Y95606D02*
X8894D01*
X8000Y96000D02*
X8394Y95606D01*
X185000Y92500D02*
X217000D01*
D15*
X199000Y31000D02*
D03*
X167000D02*
D03*
D16*
X193500Y234000D02*
D03*
X172500Y241000D02*
D03*
D17*
X208500Y68500D02*
D03*
X241000Y124000D02*
D03*
X284500Y163500D02*
D03*
X246000Y233000D02*
D03*
X151000Y176500D02*
D03*
X130750Y153250D02*
D03*
X116000Y177500D02*
D03*
X138000Y178000D02*
D03*
X213000Y255000D02*
D03*
X215500Y196500D02*
D03*
X145500Y195000D02*
D03*
X133000Y252000D02*
D03*
X142500Y257000D02*
D03*
X228000Y254500D02*
D03*
X116500Y252000D02*
D03*
X149500Y156000D02*
D03*
X123000Y193000D02*
D03*
X201000Y327000D02*
D03*
X161500D02*
D03*
X165000Y191500D02*
D03*
X183500Y142000D02*
D03*
X149500Y118000D02*
D03*
X207000Y175000D02*
D03*
Y241000D02*
D03*
X226500Y313500D02*
D03*
X224500Y186500D02*
D03*
X229925Y129075D02*
D03*
X232500Y164000D02*
D03*
X142250Y234250D02*
D03*
X130000Y114500D02*
D03*
X149000Y92500D02*
D03*
X217000D02*
D03*
X185000D02*
D03*
X176500D02*
D03*
%TF.MD5,8ee17890b706c0fbdc693d88621f0e24*%
M02*
